<svg xmlns="http://www.w3.org/2000/svg" xmlns:xlink="http://www.w3.org/1999/xlink" contentStyleType="text/css" data-diagram-type="SEQUENCE" height="1731px" preserveAspectRatio="none" style="width:3033px;height:1731px;background:#FFFFFF;" version="1.1" viewBox="0 0 3033 1731" width="3033px" zoomAndPan="magnify"><defs/><g><g><title>ContentControllerV3</title><rect fill="#FFFFFF" height="568.0023" style="stroke:#181818;stroke-width:1;" width="10" x="288.9591" y="90.4799"/></g><g><title>ApiService</title><rect fill="#FFFFFF" height="203.2361" style="stroke:#181818;stroke-width:1;" width="10" x="654.1134" y="238.304"/></g><g><title>ApiService</title><rect fill="#FFFFFF" height="95.118" style="stroke:#181818;stroke-width:1;" width="10" x="654.1134" y="506.9521"/></g><g><title>IpfsService</title><rect fill="#FFFFFF" height="76.412" style="stroke:#181818;stroke-width:1;" width="10" x="875.0066" y="270.01"/></g><g><title>Redis</title><rect fill="#FFFFFF" height="31.706" style="stroke:#181818;stroke-width:1;" width="10" x="1049.4587" y="378.1281"/></g><g><title>Redis</title><rect fill="#FFFFFF" height="31.706" style="stroke:#181818;stroke-width:1;" width="10" x="1049.4587" y="1520.8387"/></g><g><title>BatchQueue</title><rect fill="#FFFFFF" height="31.706" style="stroke:#181818;stroke-width:1;" width="10" x="1131.9295" y="538.6582"/></g><g><title>BatchAnnouncementService</title><rect fill="#FFFFFF" height="285.3541" style="stroke:#181818;stroke-width:1;" width="10" x="1289.342" y="727.8943"/></g><g><title>BatchAnnouncer</title><rect fill="#FFFFFF" height="158.5301" style="stroke:#181818;stroke-width:1;" width="10" x="1659.1582" y="759.6003"/></g><g><title>PublishQueue</title><rect fill="#FFFFFF" height="31.706" style="stroke:#181818;stroke-width:1;" width="10" x="1784.2308" y="949.8364"/></g><g><title>PublishingService</title><rect fill="#FFFFFF" height="501.5902" style="stroke:#181818;stroke-width:1;" width="10" x="1944.666" y="1082.6604"/></g><g><title>MessagePublisher</title><rect fill="#FFFFFF" height="374.7662" style="stroke:#181818;stroke-width:1;" width="10" x="2183.9622" y="1114.3665"/></g><g><title>BlockchainService</title><rect fill="#FFFFFF" height="31.706" style="stroke:#181818;stroke-width:1;" width="10" x="2560.0625" y="1235.4845"/></g><g><title>BlockchainService</title><rect fill="#FFFFFF" height="31.706" style="stroke:#181818;stroke-width:1;" width="10" x="2560.0625" y="1298.8965"/></g><g><title>BlockchainService</title><rect fill="#FFFFFF" height="95.118" style="stroke:#181818;stroke-width:1;" width="10" x="2560.0625" y="1362.3086"/></g><g><title>Frequency Chain</title><rect fill="#FFFFFF" height="31.706" style="stroke:#181818;stroke-width:1;" width="10" x="2771.9027" y="1394.0146"/></g><rect fill="none" height="254.6481" style="stroke:#000000;stroke-width:1.5;" width="879.8713" x="209.3534" y="194.892"/><rect fill="none" height="146.5301" style="stroke:#000000;stroke-width:1.5;" width="985.2809" x="209.3534" y="463.5401"/><g><title>Client</title><rect fill="#000000" fill-opacity="0.00000" height="1654.0068" width="8" x="26.8369" y="39.0679"/><line style="stroke:#181818;stroke-width:0.5;stroke-dasharray:5,5;" x1="30" x2="30" y1="39.0679" y2="1693.0748"/></g><g><title>ContentControllerV3</title><rect fill="#000000" fill-opacity="0.00000" height="1654.0068" width="8" x="289.9591" y="39.0679"/><line style="stroke:#181818;stroke-width:0.5;stroke-dasharray:5,5;" x1="293.3534" x2="293.3534" y1="39.0679" y2="1693.0748"/></g><g><title>ApiService</title><rect fill="#000000" fill-opacity="0.00000" height="1654.0068" width="8" x="655.1134" y="39.0679"/><line style="stroke:#181818;stroke-width:0.5;stroke-dasharray:5,5;" x1="658.1776" x2="658.1776" y1="39.0679" y2="1693.0748"/></g><g><title>IpfsService</title><rect fill="#000000" fill-opacity="0.00000" height="1654.0068" width="8" x="876.0066" y="39.0679"/><line style="stroke:#181818;stroke-width:0.5;stroke-dasharray:5,5;" x1="879.2158" x2="879.2158" y1="39.0679" y2="1693.0748"/></g><g><title>Redis</title><rect fill="#000000" fill-opacity="0.00000" height="1654.0068" width="8" x="1050.4587" y="39.0679"/><line style="stroke:#181818;stroke-width:0.5;stroke-dasharray:5,5;" x1="1053.6928" x2="1053.6928" y1="39.0679" y2="1693.0748"/></g><g><title>BatchQueue</title><rect fill="#000000" fill-opacity="0.00000" height="1654.0068" width="8" x="1132.9295" y="39.0679"/><line style="stroke:#181818;stroke-width:0.5;stroke-dasharray:5,5;" x1="1136.2247" x2="1136.2247" y1="39.0679" y2="1693.0748"/></g><g><title>BatchAnnouncementService</title><rect fill="#000000" fill-opacity="0.00000" height="1654.0068" width="8" x="1290.342" y="39.0679"/><line style="stroke:#181818;stroke-width:0.5;stroke-dasharray:5,5;" x1="1293.6343" x2="1293.6343" y1="39.0679" y2="1693.0748"/></g><g><title>BatchAnnouncer</title><rect fill="#000000" fill-opacity="0.00000" height="1654.0068" width="8" x="1660.1582" y="39.0679"/><line style="stroke:#181818;stroke-width:0.5;stroke-dasharray:5,5;" x1="1663.2575" x2="1663.2575" y1="39.0679" y2="1693.0748"/></g><g><title>PublishQueue</title><rect fill="#000000" fill-opacity="0.00000" height="1654.0068" width="8" x="1785.2308" y="39.0679"/><line style="stroke:#181818;stroke-width:0.5;stroke-dasharray:5,5;" x1="1789.059" x2="1789.059" y1="39.0679" y2="1693.0748"/></g><g><title>PublishingService</title><rect fill="#000000" fill-opacity="0.00000" height="1654.0068" width="8" x="1945.666" y="39.0679"/><line style="stroke:#181818;stroke-width:0.5;stroke-dasharray:5,5;" x1="1948.7202" x2="1948.7202" y1="39.0679" y2="1693.0748"/></g><g><title>MessagePublisher</title><rect fill="#000000" fill-opacity="0.00000" height="1654.0068" width="8" x="2184.9622" y="39.0679"/><line style="stroke:#181818;stroke-width:0.5;stroke-dasharray:5,5;" x1="2188.7834" x2="2188.7834" y1="39.0679" y2="1693.0748"/></g><g><title>BlockchainService</title><rect fill="#000000" fill-opacity="0.00000" height="1654.0068" width="8" x="2561.0625" y="39.0679"/><line style="stroke:#181818;stroke-width:0.5;stroke-dasharray:5,5;" x1="2564.2767" x2="2564.2767" y1="39.0679" y2="1693.0748"/></g><g><title>Frequency Chain</title><rect fill="#000000" fill-opacity="0.00000" height="1654.0068" width="8" x="2772.9027" y="39.0679"/><line style="stroke:#181818;stroke-width:0.5;stroke-dasharray:5,5;" x1="2775.9669" x2="2775.9669" y1="39.0679" y2="1693.0748"/></g><g class="participant participant-head" data-participant="Client"><rect fill="#E2E2F0" height="33.0679" rx="2.5" ry="2.5" style="stroke:#181818;stroke-width:0.5;" width="51.6738" x="5" y="5"/><text fill="#000000" font-family="sans-serif" font-size="14" lengthAdjust="spacing" textLength="37.6738" x="12" y="26.9659">Client</text></g><g class="participant participant-tail" data-participant="Client"><rect fill="#E2E2F0" height="33.0679" rx="2.5" ry="2.5" style="stroke:#181818;stroke-width:0.5;" width="51.6738" x="5" y="1692.0748"/><text fill="#000000" font-family="sans-serif" font-size="14" lengthAdjust="spacing" textLength="37.6738" x="12" y="1714.0407">Client</text></g><g class="participant participant-head" data-participant="Controller"><rect fill="#E2E2F0" height="33.0679" rx="2.5" ry="2.5" style="stroke:#181818;stroke-width:0.5;" width="149.2115" x="219.3534" y="5"/><text fill="#000000" font-family="sans-serif" font-size="14" lengthAdjust="spacing" textLength="135.2115" x="226.3534" y="26.9659">ContentControllerV3</text></g><g class="participant participant-tail" data-participant="Controller"><rect fill="#E2E2F0" height="33.0679" rx="2.5" ry="2.5" style="stroke:#181818;stroke-width:0.5;" width="149.2115" x="219.3534" y="1692.0748"/><text fill="#000000" font-family="sans-serif" font-size="14" lengthAdjust="spacing" textLength="135.2115" x="226.3534" y="1714.0407">ContentControllerV3</text></g><g class="participant participant-head" data-participant="API"><rect fill="#E2E2F0" height="33.0679" rx="2.5" ry="2.5" style="stroke:#181818;stroke-width:0.5;" width="81.8717" x="618.1776" y="5"/><text fill="#000000" font-family="sans-serif" font-size="14" lengthAdjust="spacing" textLength="67.8717" x="625.1776" y="26.9659">ApiService</text></g><g class="participant participant-tail" data-participant="API"><rect fill="#E2E2F0" height="33.0679" rx="2.5" ry="2.5" style="stroke:#181818;stroke-width:0.5;" width="81.8717" x="618.1776" y="1692.0748"/><text fill="#000000" font-family="sans-serif" font-size="14" lengthAdjust="spacing" textLength="67.8717" x="625.1776" y="1714.0407">ApiService</text></g><g class="participant participant-head" data-participant="IPFS"><rect fill="#E2E2F0" height="33.0679" rx="2.5" ry="2.5" style="stroke:#181818;stroke-width:0.5;" width="85.5817" x="837.2158" y="5"/><text fill="#000000" font-family="sans-serif" font-size="14" lengthAdjust="spacing" textLength="71.5817" x="844.2158" y="26.9659">IpfsService</text></g><g class="participant participant-tail" data-participant="IPFS"><rect fill="#E2E2F0" height="33.0679" rx="2.5" ry="2.5" style="stroke:#181818;stroke-width:0.5;" width="85.5817" x="837.2158" y="1692.0748"/><text fill="#000000" font-family="sans-serif" font-size="14" lengthAdjust="spacing" textLength="71.5817" x="844.2158" y="1714.0407">IpfsService</text></g><g class="participant participant-head" data-participant="Cache"><rect fill="#E2E2F0" height="33.0679" rx="2.5" ry="2.5" style="stroke:#181818;stroke-width:0.5;" width="49.5319" x="1029.6928" y="5"/><text fill="#000000" font-family="sans-serif" font-size="14" lengthAdjust="spacing" textLength="35.5319" x="1036.6928" y="26.9659">Redis</text></g><g class="participant participant-tail" data-participant="Cache"><rect fill="#E2E2F0" height="33.0679" rx="2.5" ry="2.5" style="stroke:#181818;stroke-width:0.5;" width="49.5319" x="1029.6928" y="1692.0748"/><text fill="#000000" font-family="sans-serif" font-size="14" lengthAdjust="spacing" textLength="35.5319" x="1036.6928" y="1714.0407">Redis</text></g><g class="participant participant-head" data-participant="BQueue"><rect fill="#E2E2F0" height="33.0679" rx="2.5" ry="2.5" style="stroke:#181818;stroke-width:0.5;" width="95.4097" x="1089.2247" y="5"/><text fill="#000000" font-family="sans-serif" font-size="14" lengthAdjust="spacing" textLength="81.4097" x="1096.2247" y="26.9659">BatchQueue</text></g><g class="participant participant-tail" data-participant="BQueue"><rect fill="#E2E2F0" height="33.0679" rx="2.5" ry="2.5" style="stroke:#181818;stroke-width:0.5;" width="95.4097" x="1089.2247" y="1692.0748"/><text fill="#000000" font-family="sans-serif" font-size="14" lengthAdjust="spacing" textLength="81.4097" x="1096.2247" y="1714.0407">BatchQueue</text></g><g class="participant participant-head" data-participant="BatchSvc"><rect fill="#E2E2F0" height="33.0679" rx="2.5" ry="2.5" style="stroke:#181818;stroke-width:0.5;" width="199.4153" x="1194.6343" y="5"/><text fill="#000000" font-family="sans-serif" font-size="14" lengthAdjust="spacing" textLength="185.4153" x="1201.6343" y="26.9659">BatchAnnouncementService</text></g><g class="participant participant-tail" data-participant="BatchSvc"><rect fill="#E2E2F0" height="33.0679" rx="2.5" ry="2.5" style="stroke:#181818;stroke-width:0.5;" width="199.4153" x="1194.6343" y="1692.0748"/><text fill="#000000" font-family="sans-serif" font-size="14" lengthAdjust="spacing" textLength="185.4153" x="1201.6343" y="1714.0407">BatchAnnouncementService</text></g><g class="participant participant-head" data-participant="Announcer"><rect fill="#E2E2F0" height="33.0679" rx="2.5" ry="2.5" style="stroke:#181818;stroke-width:0.5;" width="123.8016" x="1602.2575" y="5"/><text fill="#000000" font-family="sans-serif" font-size="14" lengthAdjust="spacing" textLength="109.8016" x="1609.2575" y="26.9659">BatchAnnouncer</text></g><g class="participant participant-tail" data-participant="Announcer"><rect fill="#E2E2F0" height="33.0679" rx="2.5" ry="2.5" style="stroke:#181818;stroke-width:0.5;" width="123.8016" x="1602.2575" y="1692.0748"/><text fill="#000000" font-family="sans-serif" font-size="14" lengthAdjust="spacing" textLength="109.8016" x="1609.2575" y="1714.0407">BatchAnnouncer</text></g><g class="participant participant-head" data-participant="PQueue"><rect fill="#E2E2F0" height="33.0679" rx="2.5" ry="2.5" style="stroke:#181818;stroke-width:0.5;" width="106.3436" x="1736.059" y="5"/><text fill="#000000" font-family="sans-serif" font-size="14" lengthAdjust="spacing" textLength="92.3436" x="1743.059" y="26.9659">PublishQueue</text></g><g class="participant participant-tail" data-participant="PQueue"><rect fill="#E2E2F0" height="33.0679" rx="2.5" ry="2.5" style="stroke:#181818;stroke-width:0.5;" width="106.3436" x="1736.059" y="1692.0748"/><text fill="#000000" font-family="sans-serif" font-size="14" lengthAdjust="spacing" textLength="92.3436" x="1743.059" y="1714.0407">PublishQueue</text></g><g class="participant participant-head" data-participant="PublishSvc"><rect fill="#E2E2F0" height="33.0679" rx="2.5" ry="2.5" style="stroke:#181818;stroke-width:0.5;" width="129.8915" x="1884.7202" y="5"/><text fill="#000000" font-family="sans-serif" font-size="14" lengthAdjust="spacing" textLength="115.8915" x="1891.7202" y="26.9659">PublishingService</text></g><g class="participant participant-tail" data-participant="PublishSvc"><rect fill="#E2E2F0" height="33.0679" rx="2.5" ry="2.5" style="stroke:#181818;stroke-width:0.5;" width="129.8915" x="1884.7202" y="1692.0748"/><text fill="#000000" font-family="sans-serif" font-size="14" lengthAdjust="spacing" textLength="115.8915" x="1891.7202" y="1714.0407">PublishingService</text></g><g class="participant participant-head" data-participant="MsgPub"><rect fill="#E2E2F0" height="33.0679" rx="2.5" ry="2.5" style="stroke:#181818;stroke-width:0.5;" width="134.3575" x="2121.7834" y="5"/><text fill="#000000" font-family="sans-serif" font-size="14" lengthAdjust="spacing" textLength="120.3575" x="2128.7834" y="26.9659">MessagePublisher</text></g><g class="participant participant-tail" data-participant="MsgPub"><rect fill="#E2E2F0" height="33.0679" rx="2.5" ry="2.5" style="stroke:#181818;stroke-width:0.5;" width="134.3575" x="2121.7834" y="1692.0748"/><text fill="#000000" font-family="sans-serif" font-size="14" lengthAdjust="spacing" textLength="120.3575" x="2128.7834" y="1714.0407">MessagePublisher</text></g><g class="participant participant-head" data-participant="Blockchain"><rect fill="#E2E2F0" height="33.0679" rx="2.5" ry="2.5" style="stroke:#181818;stroke-width:0.5;" width="131.5715" x="2499.2767" y="5"/><text fill="#000000" font-family="sans-serif" font-size="14" lengthAdjust="spacing" textLength="117.5715" x="2506.2767" y="26.9659">BlockchainService</text></g><g class="participant participant-tail" data-participant="Blockchain"><rect fill="#E2E2F0" height="33.0679" rx="2.5" ry="2.5" style="stroke:#181818;stroke-width:0.5;" width="131.5715" x="2499.2767" y="1692.0748"/><text fill="#000000" font-family="sans-serif" font-size="14" lengthAdjust="spacing" textLength="117.5715" x="2506.2767" y="1714.0407">BlockchainService</text></g><g class="participant participant-head" data-participant="Chain"><rect fill="#E2E2F0" height="33.0679" rx="2.5" ry="2.5" style="stroke:#181818;stroke-width:0.5;" width="123.8716" x="2714.9669" y="5"/><text fill="#000000" font-family="sans-serif" font-size="14" lengthAdjust="spacing" textLength="109.8716" x="2721.9669" y="26.9659">Frequency Chain</text></g><g class="participant participant-tail" data-participant="Chain"><rect fill="#E2E2F0" height="33.0679" rx="2.5" ry="2.5" style="stroke:#181818;stroke-width:0.5;" width="123.8716" x="2714.9669" y="1692.0748"/><text fill="#000000" font-family="sans-serif" font-size="14" lengthAdjust="spacing" textLength="109.8716" x="2721.9669" y="1714.0407">Frequency Chain</text></g><g><title>ContentControllerV3</title><rect fill="#FFFFFF" height="568.0023" style="stroke:#181818;stroke-width:1;" width="10" x="288.9591" y="90.4799"/></g><g><title>ApiService</title><rect fill="#FFFFFF" height="203.2361" style="stroke:#181818;stroke-width:1;" width="10" x="654.1134" y="238.304"/></g><g><title>ApiService</title><rect fill="#FFFFFF" height="95.118" style="stroke:#181818;stroke-width:1;" width="10" x="654.1134" y="506.9521"/></g><g><title>IpfsService</title><rect fill="#FFFFFF" height="76.412" style="stroke:#181818;stroke-width:1;" width="10" x="875.0066" y="270.01"/></g><g><title>Redis</title><rect fill="#FFFFFF" height="31.706" style="stroke:#181818;stroke-width:1;" width="10" x="1049.4587" y="378.1281"/></g><g><title>Redis</title><rect fill="#FFFFFF" height="31.706" style="stroke:#181818;stroke-width:1;" width="10" x="1049.4587" y="1520.8387"/></g><g><title>BatchQueue</title><rect fill="#FFFFFF" height="31.706" style="stroke:#181818;stroke-width:1;" width="10" x="1131.9295" y="538.6582"/></g><g><title>BatchAnnouncementService</title><rect fill="#FFFFFF" height="285.3541" style="stroke:#181818;stroke-width:1;" width="10" x="1289.342" y="727.8943"/></g><g><title>BatchAnnouncer</title><rect fill="#FFFFFF" height="158.5301" style="stroke:#181818;stroke-width:1;" width="10" x="1659.1582" y="759.6003"/></g><g><title>PublishQueue</title><rect fill="#FFFFFF" height="31.706" style="stroke:#181818;stroke-width:1;" width="10" x="1784.2308" y="949.8364"/></g><g><title>PublishingService</title><rect fill="#FFFFFF" height="501.5902" style="stroke:#181818;stroke-width:1;" width="10" x="1944.666" y="1082.6604"/></g><g><title>MessagePublisher</title><rect fill="#FFFFFF" height="374.7662" style="stroke:#181818;stroke-width:1;" width="10" x="2183.9622" y="1114.3665"/></g><g><title>BlockchainService</title><rect fill="#FFFFFF" height="31.706" style="stroke:#181818;stroke-width:1;" width="10" x="2560.0625" y="1235.4845"/></g><g><title>BlockchainService</title><rect fill="#FFFFFF" height="31.706" style="stroke:#181818;stroke-width:1;" width="10" x="2560.0625" y="1298.8965"/></g><g><title>BlockchainService</title><rect fill="#FFFFFF" height="95.118" style="stroke:#181818;stroke-width:1;" width="10" x="2560.0625" y="1362.3086"/></g><g><title>Frequency Chain</title><rect fill="#FFFFFF" height="31.706" style="stroke:#181818;stroke-width:1;" width="10" x="2771.9027" y="1394.0146"/></g><g class="message" data-participant-1="Client" data-participant-2="Controller"><polygon fill="#181818" points="276.9591,86.4799,286.9591,90.4799,276.9591,94.4799,280.9591,90.4799" style="stroke:#181818;stroke-width:1;"/><line style="stroke:#181818;stroke-width:1;" x1="30.8369" x2="282.9591" y1="90.4799" y2="90.4799"/><text fill="#000000" font-family="sans-serif" font-size="13" lengthAdjust="spacing" textLength="234.7152" x="37.8369" y="66.9649">POST v3/content/batchAnnouncement</text><text fill="#000000" font-family="sans-serif" font-size="13" lengthAdjust="spacing" textLength="239.1222" x="37.8369" y="84.6709">(multipart/form-data files + schemaIds)</text></g><g class="message" data-participant-1="Controller" data-participant-2="Controller"><line style="stroke:#181818;stroke-width:1;" x1="298.9591" x2="340.9591" y1="122.186" y2="122.186"/><line style="stroke:#181818;stroke-width:1;" x1="340.9591" x2="340.9591" y1="122.186" y2="135.186"/><line style="stroke:#181818;stroke-width:1;" x1="299.9591" x2="340.9591" y1="135.186" y2="135.186"/><polygon fill="#181818" points="309.9591,131.186,299.9591,135.186,309.9591,139.186,305.9591,135.186" style="stroke:#181818;stroke-width:1;"/><text fill="#000000" font-family="sans-serif" font-size="13" lengthAdjust="spacing" textLength="203.3202" x="305.9591" y="116.377">Parse multipart data with Busboy</text></g><g class="message" data-participant-1="Controller" data-participant-2="Controller"><line style="stroke:#181818;stroke-width:1;" x1="298.9591" x2="340.9591" y1="166.892" y2="166.892"/><line style="stroke:#181818;stroke-width:1;" x1="340.9591" x2="340.9591" y1="166.892" y2="179.892"/><line style="stroke:#181818;stroke-width:1;" x1="299.9591" x2="340.9591" y1="179.892" y2="179.892"/><polygon fill="#181818" points="309.9591,175.892,299.9591,179.892,309.9591,183.892,305.9591,179.892" style="stroke:#181818;stroke-width:1;"/><text fill="#000000" font-family="sans-serif" font-size="13" lengthAdjust="spacing" textLength="215.0202" x="305.9591" y="161.083">Validate files and schemaIds match</text></g><path d="M209.3534,194.892 L282.6414,194.892 L282.6414,204.598 L272.6414,214.598 L209.3534,214.598 L209.3534,194.892" fill="#EEEEEE" style="stroke:#000000;stroke-width:1.5;"/><rect fill="none" height="254.6481" style="stroke:#000000;stroke-width:1.5;" width="879.8713" x="209.3534" y="194.892"/><text fill="#000000" font-family="sans-serif" font-size="13" font-weight="bold" lengthAdjust="spacing" textLength="28.288" x="224.3534" y="209.789">loop</text><text fill="#000000" font-family="sans-serif" font-size="11" font-weight="bold" lengthAdjust="spacing" textLength="74.3375" x="297.6414" y="208.6509">[For each file]</text><g class="message" data-participant-1="Controller" data-participant-2="API"><polygon fill="#181818" points="642.1134,234.304,652.1134,238.304,642.1134,242.304,646.1134,238.304" style="stroke:#181818;stroke-width:1;"/><line style="stroke:#181818;stroke-width:1;" x1="298.9591" x2="648.1134" y1="238.304" y2="238.304"/><text fill="#000000" font-family="sans-serif" font-size="13" lengthAdjust="spacing" textLength="336.1543" x="305.9591" y="232.495">uploadStreamedAsset(fileStream, filename, mimeType)</text></g><g class="message" data-participant-1="API" data-participant-2="IPFS"><polygon fill="#181818" points="863.0066,266.01,873.0066,270.01,863.0066,274.01,867.0066,270.01" style="stroke:#181818;stroke-width:1;"/><line style="stroke:#181818;stroke-width:1;" x1="664.1134" x2="869.0066" y1="270.01" y2="270.01"/><text fill="#000000" font-family="sans-serif" font-size="13" lengthAdjust="spacing" textLength="191.8932" x="671.1134" y="264.201">ipfsPinStream(uploadPassThru)</text></g><g class="message" data-participant-1="IPFS" data-participant-2="IPFS"><line style="stroke:#181818;stroke-width:1;" x1="885.0066" x2="927.0066" y1="301.716" y2="301.716"/><line style="stroke:#181818;stroke-width:1;" x1="927.0066" x2="927.0066" y1="301.716" y2="314.716"/><line style="stroke:#181818;stroke-width:1;" x1="886.0066" x2="927.0066" y1="314.716" y2="314.716"/><polygon fill="#181818" points="896.0066,310.716,886.0066,314.716,896.0066,318.716,892.0066,314.716" style="stroke:#181818;stroke-width:1;"/><text fill="#000000" font-family="sans-serif" font-size="13" lengthAdjust="spacing" textLength="140.4521" x="892.0066" y="295.907">Pin file to IPFS network</text></g><g class="message" data-participant-1="IPFS" data-participant-2="API"><polygon fill="#181818" points="675.1134,342.4221,665.1134,346.4221,675.1134,350.4221,671.1134,346.4221" style="stroke:#181818;stroke-width:1;"/><line style="stroke:#181818;stroke-width:1;stroke-dasharray:2,2;" x1="669.1134" x2="879.0066" y1="346.4221" y2="346.4221"/><text fill="#000000" font-family="sans-serif" font-size="13" lengthAdjust="spacing" textLength="93.8081" x="681.1134" y="340.6131">{cid, hash, size}</text></g><g class="message" data-participant-1="API" data-participant-2="Cache"><polygon fill="#181818" points="1037.4587,374.1281,1047.4587,378.1281,1037.4587,382.1281,1041.4587,378.1281" style="stroke:#181818;stroke-width:1;"/><line style="stroke:#181818;stroke-width:1;" x1="664.1134" x2="1043.4587" y1="378.1281" y2="378.1281"/><text fill="#000000" font-family="sans-serif" font-size="13" lengthAdjust="spacing" textLength="196.0271" x="671.1134" y="372.3191">setex(assetMetadata, metadata)</text></g><g class="message" data-participant-1="Cache" data-participant-2="API"><polygon fill="#181818" points="675.1134,405.8341,665.1134,409.8341,675.1134,413.8341,671.1134,409.8341" style="stroke:#181818;stroke-width:1;"/><line style="stroke:#181818;stroke-width:1;stroke-dasharray:2,2;" x1="669.1134" x2="1053.4587" y1="409.8341" y2="409.8341"/><text fill="#000000" font-family="sans-serif" font-size="13" lengthAdjust="spacing" textLength="18.2" x="681.1134" y="404.0251">OK</text></g><g class="message" data-participant-1="API" data-participant-2="Controller"><polygon fill="#181818" points="309.9591,437.5401,299.9591,441.5401,309.9591,445.5401,305.9591,441.5401" style="stroke:#181818;stroke-width:1;"/><line style="stroke:#181818;stroke-width:1;stroke-dasharray:2,2;" x1="303.9591" x2="658.1134" y1="441.5401" y2="441.5401"/><text fill="#000000" font-family="sans-serif" font-size="13" lengthAdjust="spacing" textLength="88.6471" x="315.9591" y="435.7311">{cid} or {error}</text></g><path d="M209.3534,463.5401 L282.6414,463.5401 L282.6414,473.2461 L272.6414,483.2461 L209.3534,483.2461 L209.3534,463.5401" fill="#EEEEEE" style="stroke:#000000;stroke-width:1.5;"/><rect fill="none" height="146.5301" style="stroke:#000000;stroke-width:1.5;" width="985.2809" x="209.3534" y="463.5401"/><text fill="#000000" font-family="sans-serif" font-size="13" font-weight="bold" lengthAdjust="spacing" textLength="28.288" x="224.3534" y="478.4371">loop</text><text fill="#000000" font-family="sans-serif" font-size="11" font-weight="bold" lengthAdjust="spacing" textLength="153.9659" x="297.6414" y="477.299">[For each successful upload]</text><g class="message" data-participant-1="Controller" data-participant-2="API"><polygon fill="#181818" points="642.1134,502.9521,652.1134,506.9521,642.1134,510.9521,646.1134,506.9521" style="stroke:#181818;stroke-width:1;"/><line style="stroke:#181818;stroke-width:1;" x1="298.9591" x2="648.1134" y1="506.9521" y2="506.9521"/><text fill="#000000" font-family="sans-serif" font-size="13" lengthAdjust="spacing" textLength="240.3182" x="305.9591" y="501.1431">enqueueBatchRequest({cid, schemaId})</text></g><g class="message" data-participant-1="API" data-participant-2="BQueue"><polygon fill="#181818" points="1119.9295,534.6582,1129.9295,538.6582,1119.9295,542.6582,1123.9295,538.6582" style="stroke:#181818;stroke-width:1;"/><line style="stroke:#181818;stroke-width:1;" x1="664.1134" x2="1125.9295" y1="538.6582" y2="538.6582"/><text fill="#000000" font-family="sans-serif" font-size="13" lengthAdjust="spacing" textLength="186.0822" x="671.1134" y="532.8492">add(BatchJob, {cid, schemaId})</text></g><g class="message" data-participant-1="BQueue" data-participant-2="API"><polygon fill="#181818" points="675.1134,566.3642,665.1134,570.3642,675.1134,574.3642,671.1134,570.3642" style="stroke:#181818;stroke-width:1;"/><line style="stroke:#181818;stroke-width:1;stroke-dasharray:2,2;" x1="669.1134" x2="1135.9295" y1="570.3642" y2="570.3642"/><text fill="#000000" font-family="sans-serif" font-size="13" lengthAdjust="spacing" textLength="69.3161" x="681.1134" y="564.5552">job queued</text></g><g class="message" data-participant-1="API" data-participant-2="Controller"><polygon fill="#181818" points="309.9591,598.0702,299.9591,602.0702,309.9591,606.0702,305.9591,602.0702" style="stroke:#181818;stroke-width:1;"/><line style="stroke:#181818;stroke-width:1;stroke-dasharray:2,2;" x1="303.9591" x2="658.1134" y1="602.0702" y2="602.0702"/><text fill="#000000" font-family="sans-serif" font-size="13" lengthAdjust="spacing" textLength="81.094" x="315.9591" y="596.2612">{referenceId}</text></g><g class="message" data-participant-1="Controller" data-participant-2="Client"><polygon fill="#181818" points="41.8369,654.4822,31.8369,658.4822,41.8369,662.4822,37.8369,658.4822" style="stroke:#181818;stroke-width:1;"/><line style="stroke:#181818;stroke-width:1;stroke-dasharray:2,2;" x1="35.8369" x2="292.9591" y1="658.4822" y2="658.4822"/><text fill="#000000" font-family="sans-serif" font-size="13" lengthAdjust="spacing" textLength="209.9502" x="47.8369" y="634.9672">BatchAnnouncementResponseDto</text><text fill="#000000" font-family="sans-serif" font-size="13" lengthAdjust="spacing" textLength="210.6912" x="47.8369" y="652.6732">{files: [{cid, referenceId} | {error}]}</text></g><path d="M1065,671.4822 L1065,698.4822 L1364,698.4822 L1364,681.4822 L1354,671.4822 L1065,671.4822" fill="#FEFFDD" style="stroke:#181818;stroke-width:0.5;"/><path d="M1354,671.4822 L1354,681.4822 L1364,681.4822 L1354,671.4822" fill="#FEFFDD" style="stroke:#181818;stroke-width:0.5;"/><text fill="#000000" font-family="sans-serif" font-size="13" lengthAdjust="spacing" textLength="144.1051" x="1138.3599" y="690.3792">Background Processing</text><g class="message" data-participant-1="BQueue" data-participant-2="BatchSvc"><polygon fill="#181818" points="1277.342,723.8943,1287.342,727.8943,1277.342,731.8943,1281.342,727.8943" style="stroke:#181818;stroke-width:1;"/><line style="stroke:#181818;stroke-width:1;" x1="1136.9295" x2="1283.342" y1="727.8943" y2="727.8943"/><text fill="#000000" font-family="sans-serif" font-size="13" lengthAdjust="spacing" textLength="109.1741" x="1143.9295" y="722.0853">process(BatchJob)</text></g><g class="message" data-participant-1="BatchSvc" data-participant-2="Announcer"><polygon fill="#181818" points="1647.1582,755.6003,1657.1582,759.6003,1647.1582,763.6003,1651.1582,759.6003" style="stroke:#181818;stroke-width:1;"/><line style="stroke:#181818;stroke-width:1;" x1="1299.342" x2="1653.1582" y1="759.6003" y2="759.6003"/><text fill="#000000" font-family="sans-serif" font-size="13" lengthAdjust="spacing" textLength="245.1543" x="1306.342" y="753.7913">announceExistingBatch({cid, schemaId})</text></g><g class="message" data-participant-1="Announcer" data-participant-2="IPFS"><polygon fill="#181818" points="891.0066,787.3063,881.0066,791.3063,891.0066,795.3063,887.0066,791.3063" style="stroke:#181818;stroke-width:1;"/><line style="stroke:#181818;stroke-width:1;" x1="885.0066" x2="1658.1582" y1="791.3063" y2="791.3063"/><text fill="#000000" font-family="sans-serif" font-size="13" lengthAdjust="spacing" textLength="157.0271" x="897.0066" y="785.4973">existsInLocalGateway(cid)</text></g><g class="message" data-participant-1="IPFS" data-participant-2="Announcer"><polygon fill="#181818" points="1647.1582,819.0123,1657.1582,823.0123,1647.1582,827.0123,1651.1582,823.0123" style="stroke:#181818;stroke-width:1;"/><line style="stroke:#181818;stroke-width:1;stroke-dasharray:2,2;" x1="880.0066" x2="1653.1582" y1="823.0123" y2="823.0123"/><text fill="#000000" font-family="sans-serif" font-size="13" lengthAdjust="spacing" textLength="75.2571" x="887.0066" y="817.2033">exists status</text></g><g class="message" data-participant-1="Announcer" data-participant-2="IPFS"><polygon fill="#181818" points="891.0066,850.7183,881.0066,854.7183,891.0066,858.7183,887.0066,854.7183" style="stroke:#181818;stroke-width:1;"/><line style="stroke:#181818;stroke-width:1;" x1="885.0066" x2="1658.1582" y1="854.7183" y2="854.7183"/><text fill="#000000" font-family="sans-serif" font-size="13" lengthAdjust="spacing" textLength="166.9592" x="897.0066" y="848.9093">getInfoFromLocalNode(cid)</text></g><g class="message" data-participant-1="IPFS" data-participant-2="Announcer"><polygon fill="#181818" points="1647.1582,882.4243,1657.1582,886.4243,1647.1582,890.4243,1651.1582,886.4243" style="stroke:#181818;stroke-width:1;"/><line style="stroke:#181818;stroke-width:1;stroke-dasharray:2,2;" x1="880.0066" x2="1653.1582" y1="886.4243" y2="886.4243"/><text fill="#000000" font-family="sans-serif" font-size="13" lengthAdjust="spacing" textLength="57.356" x="887.0066" y="880.6153">{cid, size}</text></g><g class="message" data-participant-1="Announcer" data-participant-2="BatchSvc"><polygon fill="#181818" points="1310.342,914.1304,1300.342,918.1304,1310.342,922.1304,1306.342,918.1304" style="stroke:#181818;stroke-width:1;"/><line style="stroke:#181818;stroke-width:1;stroke-dasharray:2,2;" x1="1304.342" x2="1663.1582" y1="918.1304" y2="918.1304"/><text fill="#000000" font-family="sans-serif" font-size="13" lengthAdjust="spacing" textLength="335.8163" x="1316.342" y="912.3214">IPublisherJob{id, schemaId, data: {cid, payloadLength}}</text></g><g class="message" data-participant-1="BatchSvc" data-participant-2="PQueue"><polygon fill="#181818" points="1772.2308,945.8364,1782.2308,949.8364,1772.2308,953.8364,1776.2308,949.8364" style="stroke:#181818;stroke-width:1;"/><line style="stroke:#181818;stroke-width:1;" x1="1299.342" x2="1778.2308" y1="949.8364" y2="949.8364"/><text fill="#000000" font-family="sans-serif" font-size="13" lengthAdjust="spacing" textLength="108.0561" x="1306.342" y="944.0274">add(PublisherJob)</text></g><g class="message" data-participant-1="PQueue" data-participant-2="BatchSvc"><polygon fill="#181818" points="1310.342,977.5424,1300.342,981.5424,1310.342,985.5424,1306.342,981.5424" style="stroke:#181818;stroke-width:1;"/><line style="stroke:#181818;stroke-width:1;stroke-dasharray:2,2;" x1="1304.342" x2="1788.2308" y1="981.5424" y2="981.5424"/><text fill="#000000" font-family="sans-serif" font-size="13" lengthAdjust="spacing" textLength="69.3161" x="1316.342" y="975.7334">job queued</text></g><g class="message" data-participant-1="BatchSvc" data-participant-2="BQueue"><polygon fill="#181818" points="1147.9295,1009.2484,1137.9295,1013.2484,1147.9295,1017.2484,1143.9295,1013.2484" style="stroke:#181818;stroke-width:1;"/><line style="stroke:#181818;stroke-width:1;stroke-dasharray:2,2;" x1="1141.9295" x2="1293.342" y1="1013.2484" y2="1013.2484"/><text fill="#000000" font-family="sans-serif" font-size="13" lengthAdjust="spacing" textLength="64.9611" x="1153.9295" y="1007.4394">completed</text></g><path d="M1732,1026.2484 L1732,1053.2484 L2005,1053.2484 L2005,1036.2484 L1995,1026.2484 L1732,1026.2484" fill="#FEFFDD" style="stroke:#181818;stroke-width:0.5;"/><path d="M1995,1026.2484 L1995,1036.2484 L2005,1036.2484 L1995,1026.2484" fill="#FEFFDD" style="stroke:#181818;stroke-width:0.5;"/><text fill="#000000" font-family="sans-serif" font-size="13" lengthAdjust="spacing" textLength="133.4321" x="1797.5603" y="1045.1454">Blockchain Publishing</text><g class="message" data-participant-1="PQueue" data-participant-2="PublishSvc"><polygon fill="#181818" points="1932.666,1078.6604,1942.666,1082.6604,1932.666,1086.6604,1936.666,1082.6604" style="stroke:#181818;stroke-width:1;"/><line style="stroke:#181818;stroke-width:1;" x1="1789.2308" x2="1938.666" y1="1082.6604" y2="1082.6604"/><text fill="#000000" font-family="sans-serif" font-size="13" lengthAdjust="spacing" textLength="136.4351" x="1796.2308" y="1076.8514">process(IPublisherJob)</text></g><g class="message" data-participant-1="PublishSvc" data-participant-2="MsgPub"><polygon fill="#181818" points="2171.9622,1110.3665,2181.9622,1114.3665,2171.9622,1118.3665,2175.9622,1114.3665" style="stroke:#181818;stroke-width:1;"/><line style="stroke:#181818;stroke-width:1;" x1="1954.666" x2="2177.9622" y1="1114.3665" y2="1114.3665"/><text fill="#000000" font-family="sans-serif" font-size="13" lengthAdjust="spacing" textLength="100.7761" x="1961.666" y="1108.5575">publish(jobData)</text></g><g class="message" data-participant-1="MsgPub" data-participant-2="MsgPub"><line style="stroke:#181818;stroke-width:1;" x1="2193.9622" x2="2235.9622" y1="1146.0725" y2="1146.0725"/><line style="stroke:#181818;stroke-width:1;" x1="2235.9622" x2="2235.9622" y1="1146.0725" y2="1159.0725"/><line style="stroke:#181818;stroke-width:1;" x1="2194.9622" x2="2235.9622" y1="1159.0725" y2="1159.0725"/><polygon fill="#181818" points="2204.9622,1155.0725,2194.9622,1159.0725,2204.9622,1163.0725,2200.9622,1159.0725" style="stroke:#181818;stroke-width:1;"/><text fill="#000000" font-family="sans-serif" font-size="13" lengthAdjust="spacing" textLength="177.9182" x="2200.9622" y="1140.2635">Add to message batch queue</text></g><g class="message" data-participant-1="MsgPub" data-participant-2="MsgPub"><line style="stroke:#181818;stroke-width:1;" x1="2193.9622" x2="2235.9622" y1="1190.7785" y2="1190.7785"/><line style="stroke:#181818;stroke-width:1;" x1="2235.9622" x2="2235.9622" y1="1190.7785" y2="1203.7785"/><line style="stroke:#181818;stroke-width:1;" x1="2194.9622" x2="2235.9622" y1="1203.7785" y2="1203.7785"/><polygon fill="#181818" points="2204.9622,1199.7785,2194.9622,1203.7785,2204.9622,1207.7785,2200.9622,1203.7785" style="stroke:#181818;stroke-width:1;"/><text fill="#000000" font-family="sans-serif" font-size="13" lengthAdjust="spacing" textLength="247.5722" x="2200.9622" y="1184.9695">Wait for batch window or max batch size</text></g><g class="message" data-participant-1="MsgPub" data-participant-2="Blockchain"><polygon fill="#181818" points="2548.0625,1231.4845,2558.0625,1235.4845,2548.0625,1239.4845,2552.0625,1235.4845" style="stroke:#181818;stroke-width:1;"/><line style="stroke:#181818;stroke-width:1;" x1="2193.9622" x2="2554.0625" y1="1235.4845" y2="1235.4845"/><text fill="#000000" font-family="sans-serif" font-size="13" lengthAdjust="spacing" textLength="347.1003" x="2200.9622" y="1229.6755">generateAddIpfsMessage(schemaId, cid, payloadLength)</text></g><g class="message" data-participant-1="Blockchain" data-participant-2="MsgPub"><polygon fill="#181818" points="2204.9622,1263.1905,2194.9622,1267.1905,2204.9622,1271.1905,2200.9622,1267.1905" style="stroke:#181818;stroke-width:1;"/><line style="stroke:#181818;stroke-width:1;stroke-dasharray:2,2;" x1="2198.9622" x2="2564.0625" y1="1267.1905" y2="1267.1905"/><text fill="#000000" font-family="sans-serif" font-size="13" lengthAdjust="spacing" textLength="92.7161" x="2210.9622" y="1261.3815">transaction call</text></g><g class="message" data-participant-1="MsgPub" data-participant-2="Blockchain"><polygon fill="#181818" points="2548.0625,1294.8965,2558.0625,1298.8965,2548.0625,1302.8965,2552.0625,1298.8965" style="stroke:#181818;stroke-width:1;"/><line style="stroke:#181818;stroke-width:1;" x1="2193.9622" x2="2554.0625" y1="1298.8965" y2="1298.8965"/><text fill="#000000" font-family="sans-serif" font-size="13" lengthAdjust="spacing" textLength="221.7412" x="2200.9622" y="1293.0875">createType('Vec&lt;Call&gt;', transactions)</text></g><g class="message" data-participant-1="Blockchain" data-participant-2="MsgPub"><polygon fill="#181818" points="2204.9622,1326.6026,2194.9622,1330.6026,2204.9622,1334.6026,2200.9622,1330.6026" style="stroke:#181818;stroke-width:1;"/><line style="stroke:#181818;stroke-width:1;stroke-dasharray:2,2;" x1="2198.9622" x2="2564.0625" y1="1330.6026" y2="1330.6026"/><text fill="#000000" font-family="sans-serif" font-size="13" lengthAdjust="spacing" textLength="41.613" x="2210.9622" y="1324.7936">callVec</text></g><g class="message" data-participant-1="MsgPub" data-participant-2="Blockchain"><polygon fill="#181818" points="2548.0625,1358.3086,2558.0625,1362.3086,2548.0625,1366.3086,2552.0625,1362.3086" style="stroke:#181818;stroke-width:1;"/><line style="stroke:#181818;stroke-width:1;" x1="2193.9622" x2="2554.0625" y1="1362.3086" y2="1362.3086"/><text fill="#000000" font-family="sans-serif" font-size="13" lengthAdjust="spacing" textLength="200.9412" x="2200.9622" y="1356.4996">payWithCapacityBatchAll(callVec)</text></g><g class="message" data-participant-1="Blockchain" data-participant-2="Chain"><polygon fill="#181818" points="2759.9027,1390.0146,2769.9027,1394.0146,2759.9027,1398.0146,2763.9027,1394.0146" style="stroke:#181818;stroke-width:1;"/><line style="stroke:#181818;stroke-width:1;" x1="2570.0625" x2="2765.9027" y1="1394.0146" y2="1394.0146"/><text fill="#000000" font-family="sans-serif" font-size="13" lengthAdjust="spacing" textLength="153.4782" x="2577.0625" y="1388.2056">Submit batch transaction</text></g><g class="message" data-participant-1="Chain" data-participant-2="Blockchain"><polygon fill="#181818" points="2581.0625,1421.7206,2571.0625,1425.7206,2581.0625,1429.7206,2577.0625,1425.7206" style="stroke:#181818;stroke-width:1;"/><line style="stroke:#181818;stroke-width:1;stroke-dasharray:2,2;" x1="2575.0625" x2="2775.9027" y1="1425.7206" y2="1425.7206"/><text fill="#000000" font-family="sans-serif" font-size="13" lengthAdjust="spacing" textLength="177.8402" x="2587.0625" y="1419.9116">transaction hash &amp; block info</text></g><g class="message" data-participant-1="Blockchain" data-participant-2="MsgPub"><polygon fill="#181818" points="2204.9622,1453.4266,2194.9622,1457.4266,2204.9622,1461.4266,2200.9622,1457.4266" style="stroke:#181818;stroke-width:1;"/><line style="stroke:#181818;stroke-width:1;stroke-dasharray:2,2;" x1="2198.9622" x2="2564.0625" y1="1457.4266" y2="1457.4266"/><text fill="#000000" font-family="sans-serif" font-size="13" lengthAdjust="spacing" textLength="205.2962" x="2210.9622" y="1451.6176">[tx, txHash, currentBlockNumber]</text></g><g class="message" data-participant-1="MsgPub" data-participant-2="PublishSvc"><polygon fill="#181818" points="1965.666,1485.1326,1955.666,1489.1326,1965.666,1493.1326,1961.666,1489.1326" style="stroke:#181818;stroke-width:1;"/><line style="stroke:#181818;stroke-width:1;stroke-dasharray:2,2;" x1="1959.666" x2="2187.9622" y1="1489.1326" y2="1489.1326"/><text fill="#000000" font-family="sans-serif" font-size="13" lengthAdjust="spacing" textLength="205.2962" x="1971.666" y="1483.3236">[tx, txHash, currentBlockNumber]</text></g><g class="message" data-participant-1="PublishSvc" data-participant-2="Cache"><polygon fill="#181818" points="1070.4587,1516.8387,1060.4587,1520.8387,1070.4587,1524.8387,1066.4587,1520.8387" style="stroke:#181818;stroke-width:1;"/><line style="stroke:#181818;stroke-width:1;" x1="1064.4587" x2="1943.666" y1="1520.8387" y2="1520.8387"/><text fill="#000000" font-family="sans-serif" font-size="13" lengthAdjust="spacing" textLength="273.3513" x="1076.4587" y="1515.0297">hset(TXN_WATCH_LIST_KEY, {txHash: status})</text></g><g class="message" data-participant-1="Cache" data-participant-2="PublishSvc"><polygon fill="#181818" points="1932.666,1548.5447,1942.666,1552.5447,1932.666,1556.5447,1936.666,1552.5447" style="stroke:#181818;stroke-width:1;"/><line style="stroke:#181818;stroke-width:1;stroke-dasharray:2,2;" x1="1054.4587" x2="1938.666" y1="1552.5447" y2="1552.5447"/><text fill="#000000" font-family="sans-serif" font-size="13" lengthAdjust="spacing" textLength="18.2" x="1061.4587" y="1546.7357">OK</text></g><g class="message" data-participant-1="PublishSvc" data-participant-2="PQueue"><polygon fill="#181818" points="1800.2308,1580.2507,1790.2308,1584.2507,1800.2308,1588.2507,1796.2308,1584.2507" style="stroke:#181818;stroke-width:1;"/><line style="stroke:#181818;stroke-width:1;stroke-dasharray:2,2;" x1="1794.2308" x2="1948.666" y1="1584.2507" y2="1584.2507"/><text fill="#000000" font-family="sans-serif" font-size="13" lengthAdjust="spacing" textLength="64.9611" x="1806.2308" y="1578.4417">completed</text></g><path d="M2781,1597.2507 L2781,1677.2507 L3026,1677.2507 L3026,1607.2507 L3016,1597.2507 L2781,1597.2507" fill="#FEFFDD" style="stroke:#181818;stroke-width:0.5;"/><path d="M3016,1597.2507 L3016,1607.2507 L3026,1607.2507 L3016,1597.2507" fill="#FEFFDD" style="stroke:#181818;stroke-width:0.5;"/><text fill="#000000" font-family="sans-serif" font-size="13" lengthAdjust="spacing" textLength="147.0691" x="2787" y="1616.1477">Files are now published:</text><text fill="#000000" font-family="sans-serif" font-size="13" lengthAdjust="spacing" textLength="143.5981" x="2787" y="1633.8537">- Content stored in IPFS</text><text fill="#000000" font-family="sans-serif" font-size="13" lengthAdjust="spacing" textLength="224.6272" x="2787" y="1651.5597">- CID announced on Frequency chain</text><text fill="#000000" font-family="sans-serif" font-size="13" lengthAdjust="spacing" textLength="212.8882" x="2787" y="1669.2658">- Transaction monitored for finality</text><!--SRC=[bLTRSzD657xthpZJXw9C7Q01EbJJoJHnI768GOrDQ0SOPYsjxItIhjXTEN7J_FUUlKXQoKu0lrZQFVkTRyzT02MHcgMi95p3A6UKwm5q5dyO2QvnsVn9aUTKNZxv0OY2Tg5_ugXaKohNBALMy2WPzoN6vKA58kFaTDgNkQ0PKquJILUqltrCTBhwiwALGpYsZpk5ZZWN5KzfWRS8bThDwJgzzv1qLwZV-h99DS-P2dWaEtbuCSQN8G6_keF2X2f5bjGBU18JjSI5BRQvI3-dAy9uvsxDQb_-LD8l5UNf1aPcsndO2gAaYm3OFmoy6qFoPZg3zPD7gOk4H_E-LJ_mgAXopOoYHmiXY_sCQ08BbbC5Fu52znLadAazeuEacgs9fjq0Qb-sj1EfA3JuOA6lc5x1SQNcOdFluKkIiymeSrm8presK9Xx64gv42MS2WaK8ysAugBvTO4na6EeoboGRAeb9GNDZfIYEZ8dtChGdkQuDOI25NIsAUcU1sikRXB2h-6ZGJRn7mF3h4ZGZnOfSeeIejHi9Qij49yovcSUMnH4i2H02xV3gRuIydD7kBxDJSgo8Qo8MWr1iN_fhPVAQ5THbwvDo1ZmwlGw8iO44wg9SGpUsZzj4QwpsDhLFBSithpQLkl4Gxqzrnhgju1Ekw5I2hc3kIiyb6VRFbPLccAEBQhSE_HkXrF-nQIqhGeN9dUKZfpPwaYw_GOFk_eK0ycoo4ATYVaGleRJL3NpSo-jrVuHSx3Kiksh-uFtcK_I1PLO22Wg_ehjGgiO65ibOjYghXTKbO8hUgB51tvZKow6z-wIeJhuhtRQHwCwz7fR4t232rmIQrJhxZDiQhPHddvUIbITGIA5SIPMLtEeDjDX85mwYSRoUs4TQlg0EUoVhVVheezUyuylhfdIgCUAxOg2rdvDny3LvgNDKcgGr9YVYvJaV-29AxA94C-0j2dQCd3oe3JHbRe3Sqdrc2_4gHI5XNqjCdeVfkTlqxwBs37Uk6b3QBcRyCf3Munhe99iJ2QTKxxKgzkUOpls2AsS18aHAkfOi-cgIPi3BS5E8WGwaoO9MeL1AgQYA7CiORrJOJYq0PZu06nxTXmqMMWR_21WUTWHhuDmVFSrsu70e3Hl1ibrVqHngn5U-iINsUQydn1moJs5vuwop7I4maqMO7kuizfEyNU4QS1MxWMl6C_4bQcs1RdsQoPmkhfQWvXWv5GYATHhfZq_qKHjw6p7J3ShmmaciFH-G59BmfKv8JXWlESzHxO8Tx9CiTLgswMZ1vSq_Ms4A8SFXY6o-cvQXWg2VJyRjCOx76n6f2GfqnjNN_Cyye3VHkJGZNCnJAjvWKvqpWekr9d1FC2ekKJ89xIlcH7WHvYRRM1OPdg5-twJlDVNQDJhbtRGI2k9dK1RqTTLCQVouxVOgfTEtmVPfaOthVmeip9ZtEolrv_U7Sr6Bp-TZwUpJwzU_8qTscc8VUNj5lbwf6d7cP2WdMfsJJGXWw02tb6FkaN1LYJ9bYiDOb5x-jGDjvBYzbLT8MWMV-3xu3_VaB-GD4FFsLPWTyOdJMFB05tSVXfOsnkPMH01XU3CWPYwi60SPskzCQH-npcXAlB18Cdn6-Fjv1omP2fpvkU71uyFdZry6as9XhEAmy5pUFmqVlnhVF0CafCPcEszGJGPpq29IgOKyAjFIpQlZCwzmHbP4xYekCPX6arQKdvsygfUW1TypQJWPlOOd5rEMe5VdkuVO-oRJo8itfUJmGbT4Fo4m1EfoB1Cn_1sThh_V71E-BB2mcJclC48RQ7b1lUc_mC0]--></g></svg>