<svg fill="none" height="668" viewBox="0 0 1200 668" width="1200" xmlns="http://www.w3.org/2000/svg"><rect fill="#a06b87" height="137" rx="8.5" width="358" x="302" y="37.5"/><rect height="137" rx="8.5" stroke="#18465e" stroke-width="3" width="358" x="302" y="37.5"/><path d="m346.395 125.966h18.896c-.123.387-.323.833-.648 1.276-.698.953-2.066 2.022-4.85 2.369-.057.007-.112.018-.165.034-1.27.226-2.244 1.328-2.244 2.668 0 1.505 1.229 2.71 2.726 2.71h26.461c1.497 0 2.726-1.205 2.726-2.71 0-1.259-.859-2.307-2.015-2.617-.092-.043-.193-.072-.299-.085-2.784-.347-4.152-1.416-4.85-2.369-.325-.443-.525-.889-.648-1.276h18.896c2.63 0 4.794-2.034 4.955-4.619.008-.051.013-.103.013-.156v-7.356c0-.017-.001-.035-.002-.052v-31.322c0-3.021-2.476-5.461-5.502-5.461h-52.913c-3.026 0-5.503 2.44-5.503 5.461v32.157c0 .017.001.031.001.042l.001.022v5.94l-.001.016c0 .015-.001.041-.001.071v.328c0 .03.001.056.001.072l.001.016v.066c0 .037.002.075.006.111.139 2.607 2.313 4.664 4.958 4.664z" fill="#fff" stroke="#18465e" stroke-linejoin="round" stroke-width="2"/><path clip-rule="evenodd" d="m404.347 82.461v32.113l.002-.002v6.683h-.006c-.081 2.098-1.824 3.775-3.962 3.775h-20.088c.035.882.531 4.885 6.567 5.637h-.289c.953 0 1.726.765 1.726 1.71 0 .944-.773 1.71-1.726 1.71h-26.461c-.953 0-1.726-.766-1.726-1.71 0-.945.773-1.71 1.726-1.71h-.194c6.036-.752 6.531-4.755 6.567-5.637h-20.088c-2.138 0-3.881-1.677-3.962-3.775h-.002v-.084l-.001-.022c-.001-.016-.001-.032-.001-.048v-.328c0-.015 0-.031.001-.046l.001-.024v-5.293c0-.009-.001-.018-.001-.027 0-.01-.001-.019-.001-.028v-32.894c0-2.46 2.021-4.461 4.503-4.461h52.913c2.483 0 4.502 2.001 4.502 4.461zm-3.822 37.907c.435 0 1.468-1.024 1.468-1.455v-37.126c0-.43-1.034-1.454-1.469-1.454h-54.272c-.434 0-1.468 1.024-1.468 1.454v37.126c0 .431 1.034 1.455 1.468 1.455zm-25.124 2.966c.355 0 .665-.203.823-.501.072-.136.113-.291.113-.456s-.041-.321-.113-.457c-.158-.298-.468-.501-.823-.501h-3.487c-.259 0-.493.107-.663.281-.05.051-.094.11-.132.172-.089.147-.142.319-.142.505 0 .529.42.957.937.957z" fill="#a06b87" fill-rule="evenodd" opacity=".2"/><path d="m379.739 94.424c.002-.071.003-.14.003-.207 0-3.257-2.437-5.897-5.897-5.897-3.461 0-6.266 2.64-6.266 5.897 0 .147.006.304.017.469.002.359.041.722.133 1.081.019.108.039.217.06.329-.018-.001-.035-.002-.053-.002-.48 0-.972.375-.445 2.24.41 1.454.792 1.862 1.081 1.885.163 1.05.528 2.274 1.313 3.295-.066.423-.198 1.017-.45 1.428 0 0-.005.004-.014.009-.178.114-2.047 1.303-4.987 2.021-.166.04-.32.535-.463.995-.118.379-.229.735-.333.796 2.329 3.434 5.549 4.219 10.039 4.219s7.71-.785 10.039-4.219c-.104-.061-.215-.417-.333-.796-.143-.46-.297-.955-.463-.995-3.09-.754-4.916-1.904-4.916-1.904-.321-.423-.474-1.141-.544-1.61.698-.934 1.052-2.029 1.225-3.005.063.043.136.072.216.072.292 0 .685-.387 1.109-1.886.438-1.551.171-2.071-.207-2.202.155-.745.191-1.414.136-2.013z" fill="#18465e"/><path d="m346.11401 81.686005h54.5485v37.594195h-54.5485z" fill="#a06b87" opacity=".5"/><path d="m421.179 105.664c0-1.248.27-2.358.81-3.33.54-.984 1.29-1.746 2.25-2.286.972-.552 2.07-.828 3.294-.828 1.5 0 2.784.396 3.852 1.188s1.782 1.872 2.142 3.24h-3.384c-.252-.528-.612-.93-1.08-1.206-.456-.276-.978-.414-1.566-.414-.948 0-1.716.33-2.304.99s-.882 1.542-.882 2.646.294 1.986.882 2.646 1.356.99 2.304.99c.588 0 1.11-.138 1.566-.414.468-.276.828-.678 1.08-1.206h3.384c-.36 1.368-1.074 2.448-2.142 3.24-1.068.78-2.352 1.17-3.852 1.17-1.224 0-2.322-.27-3.294-.81-.96-.552-1.71-1.314-2.25-2.286s-.81-2.082-.81-3.33zm24.151-3.708v10.044h-3.078v-1.368c-.312.444-.738.804-1.278 1.08-.528.264-1.116.396-1.764.396-.768 0-1.446-.168-2.034-.504-.588-.348-1.044-.846-1.368-1.494s-.486-1.41-.486-2.286v-5.868h3.06v5.454c0 .672.174 1.194.522 1.566s.816.558 1.404.558c.6 0 1.074-.186 1.422-.558s.522-.894.522-1.566v-5.454zm6.297 10.188c-.876 0-1.656-.15-2.34-.45s-1.224-.708-1.62-1.224c-.396-.528-.618-1.116-.666-1.764h3.042c.036.348.198.63.486.846s.642.324 1.062.324c.384 0 .678-.072.882-.216.216-.156.324-.354.324-.594 0-.288-.15-.498-.45-.63-.3-.144-.786-.3-1.458-.468-.72-.168-1.32-.342-1.8-.522-.48-.192-.894-.486-1.242-.882-.348-.408-.522-.954-.522-1.638 0-.576.156-1.098.468-1.566.324-.48.792-.858 1.404-1.134.624-.276 1.362-.414 2.214-.414 1.26 0 2.25.312 2.97.936.732.624 1.152 1.452 1.26 2.484h-2.844c-.048-.348-.204-.624-.468-.828-.252-.204-.588-.306-1.008-.306-.36 0-.636.072-.828.216-.192.132-.288.318-.288.558 0 .288.15.504.45.648.312.144.792.288 1.44.432.744.192 1.35.384 1.818.576.468.18.876.48 1.224.9.36.408.546.96.558 1.656 0 .588-.168 1.116-.504 1.584-.324.456-.798.816-1.422 1.08-.612.264-1.326.396-2.142.396zm11.549-2.754v2.61h-1.566c-1.116 0-1.986-.27-2.61-.81-.624-.552-.936-1.446-.936-2.682v-3.996h-1.224v-2.556h1.224v-2.448h3.078v2.448h2.016v2.556h-2.016v4.032c0 .3.072.516.216.648s.384.198.72.198zm6.286 2.754c-.984 0-1.872-.21-2.664-.63-.78-.42-1.398-1.02-1.854-1.8-.444-.78-.666-1.692-.666-2.736 0-1.032.228-1.938.684-2.718.456-.792 1.08-1.398 1.872-1.818s1.68-.63 2.664-.63 1.872.21 2.664.63 1.416 1.026 1.872 1.818c.456.78.684 1.686.684 2.718s-.234 1.944-.702 2.736c-.456.78-1.086 1.38-1.89 1.8-.792.42-1.68.63-2.664.63zm0-2.664c.588 0 1.086-.216 1.494-.648.42-.432.63-1.05.63-1.854s-.204-1.422-.612-1.854c-.396-.432-.888-.648-1.476-.648-.6 0-1.098.216-1.494.648-.396.42-.594 1.038-.594 1.854 0 .804.192 1.422.576 1.854.396.432.888.648 1.476.648zm19.705-7.632c1.248 0 2.238.378 2.97 1.134.744.756 1.116 1.806 1.116 3.15v5.868h-3.06v-5.454c0-.648-.174-1.146-.522-1.494-.336-.36-.804-.54-1.404-.54s-1.074.18-1.422.54c-.336.348-.504.846-.504 1.494v5.454h-3.06v-5.454c0-.648-.174-1.146-.522-1.494-.336-.36-.804-.54-1.404-.54s-1.074.18-1.422.54c-.336.348-.504.846-.504 1.494v5.454h-3.078v-10.044h3.078v1.26c.312-.42.72-.75 1.224-.99.504-.252 1.074-.378 1.71-.378.756 0 1.428.162 2.016.486.6.324 1.068.786 1.404 1.386.348-.552.822-1.002 1.422-1.35s1.254-.522 1.962-.522zm18.279-2.484v2.466h-5.148v2.664h3.852v2.394h-3.852v5.112h-3.078v-12.636zm4.696 4.266c.36-.552.81-.984 1.35-1.296.54-.324 1.14-.486 1.8-.486v3.258h-.846c-.768 0-1.344.168-1.728.504-.384.324-.576.9-.576 1.728v4.662h-3.078v-10.044h3.078zm9.193 8.514c-.984 0-1.872-.21-2.664-.63-.78-.42-1.398-1.02-1.854-1.8-.444-.78-.666-1.692-.666-2.736 0-1.032.228-1.938.684-2.718.456-.792 1.08-1.398 1.872-1.818s1.68-.63 2.664-.63 1.872.21 2.664.63 1.416 1.026 1.872 1.818c.456.78.684 1.686.684 2.718s-.234 1.944-.702 2.736c-.456.78-1.086 1.38-1.89 1.8-.792.42-1.68.63-2.664.63zm0-2.664c.588 0 1.086-.216 1.494-.648.42-.432.63-1.05.63-1.854s-.204-1.422-.612-1.854c-.396-.432-.888-.648-1.476-.648-.6 0-1.098.216-1.494.648-.396.42-.594 1.038-.594 1.854 0 .804.192 1.422.576 1.854.396.432.888.648 1.476.648zm13.009-7.632c1.176 0 2.112.384 2.808 1.152.708.756 1.062 1.8 1.062 3.132v5.868h-3.06v-5.454c0-.672-.174-1.194-.522-1.566s-.816-.558-1.404-.558-1.056.186-1.404.558-.522.894-.522 1.566v5.454h-3.078v-10.044h3.078v1.332c.312-.444.732-.792 1.26-1.044.528-.264 1.122-.396 1.782-.396zm11.607 7.542v2.61h-1.566c-1.116 0-1.986-.27-2.61-.81-.624-.552-.936-1.446-.936-2.682v-3.996h-1.224v-2.556h1.224v-2.448h3.078v2.448h2.016v2.556h-2.016v4.032c0 .3.072.516.216.648s.384.198.72.198zm11.183-2.574c0 .288-.018.588-.054.9h-6.966c.048.624.246 1.104.594 1.44.36.324.798.486 1.314.486.768 0 1.302-.324 1.602-.972h3.276c-.168.66-.474 1.254-.918 1.782-.432.528-.978.942-1.638 1.242s-1.398.45-2.214.45c-.984 0-1.86-.21-2.628-.63s-1.368-1.02-1.8-1.8-.648-1.692-.648-2.736.21-1.956.63-2.736c.432-.78 1.032-1.38 1.8-1.8s1.65-.63 2.646-.63c.972 0 1.836.204 2.592.612s1.344.99 1.764 1.746c.432.756.648 1.638.648 2.646zm-3.15-.81c0-.528-.18-.948-.54-1.26s-.81-.468-1.35-.468c-.516 0-.954.15-1.314.45-.348.3-.564.726-.648 1.278zm4.162.954c0-1.032.192-1.938.576-2.718.396-.78.93-1.38 1.602-1.8s1.422-.63 2.25-.63c.66 0 1.26.138 1.8.414.552.276.984.648 1.296 1.116v-4.662h3.078v13.32h-3.078v-1.44c-.288.48-.702.864-1.242 1.152-.528.288-1.146.432-1.854.432-.828 0-1.578-.21-2.25-.63-.672-.432-1.206-1.038-1.602-1.818-.384-.792-.576-1.704-.576-2.736zm7.524.018c0-.768-.216-1.374-.648-1.818-.42-.444-.936-.666-1.548-.666s-1.134.222-1.566.666c-.42.432-.63 1.032-.63 1.8s.21 1.38.63 1.836c.432.444.954.666 1.566.666s1.128-.222 1.548-.666c.432-.444.648-1.05.648-1.818zm16.985 2.79h-4.716l-.756 2.232h-3.222l4.572-12.636h3.564l4.572 12.636h-3.258zm-.792-2.376-1.566-4.626-1.548 4.626zm9.275-4.014c.3-.468.714-.846 1.242-1.134s1.146-.432 1.854-.432c.828 0 1.578.21 2.25.63s1.2 1.02 1.584 1.8c.396.78.594 1.686.594 2.718s-.198 1.944-.594 2.736c-.384.78-.912 1.386-1.584 1.818-.672.42-1.422.63-2.25.63-.696 0-1.314-.144-1.854-.432-.528-.288-.942-.66-1.242-1.116v6.192h-3.078v-14.832h3.078zm4.392 3.582c0-.768-.216-1.368-.648-1.8-.42-.444-.942-.666-1.566-.666-.612 0-1.134.222-1.566.666-.42.444-.63 1.05-.63 1.818s.21 1.374.63 1.818c.432.444.954.666 1.566.666s1.134-.222 1.566-.666c.432-.456.648-1.068.648-1.836zm7.825-3.582c.3-.468.714-.846 1.242-1.134s1.146-.432 1.854-.432c.828 0 1.578.21 2.25.63s1.2 1.02 1.584 1.8c.396.78.594 1.686.594 2.718s-.198 1.944-.594 2.736c-.384.78-.912 1.386-1.584 1.818-.672.42-1.422.63-2.25.63-.696 0-1.314-.144-1.854-.432-.528-.288-.942-.66-1.242-1.116v6.192h-3.078v-14.832h3.078zm4.392 3.582c0-.768-.216-1.368-.648-1.8-.42-.444-.942-.666-1.566-.666-.612 0-1.134.222-1.566.666-.42.444-.63 1.05-.63 1.818s.21 1.374.63 1.818c.432.444.954.666 1.566.666s1.134-.222 1.566-.666c.432-.456.648-1.068.648-1.836zm8.833 5.184c-.876 0-1.656-.15-2.34-.45s-1.224-.708-1.62-1.224c-.396-.528-.618-1.116-.666-1.764h3.042c.036.348.198.63.486.846s.642.324 1.062.324c.384 0 .678-.072.882-.216.216-.156.324-.354.324-.594 0-.288-.15-.498-.45-.63-.3-.144-.786-.3-1.458-.468-.72-.168-1.32-.342-1.8-.522-.48-.192-.894-.486-1.242-.882-.348-.408-.522-.954-.522-1.638 0-.576.156-1.098.468-1.566.324-.48.792-.858 1.404-1.134.624-.276 1.362-.414 2.214-.414 1.26 0 2.25.312 2.97.936.732.624 1.152 1.452 1.26 2.484h-2.844c-.048-.348-.204-.624-.468-.828-.252-.204-.588-.306-1.008-.306-.36 0-.636.072-.828.216-.192.132-.288.318-.288.558 0 .288.15.504.45.648.312.144.792.288 1.44.432.744.192 1.35.384 1.818.576.468.18.876.48 1.224.9.36.408.546.96.558 1.656 0 .588-.168 1.116-.504 1.584-.324.456-.798.816-1.422 1.08-.612.264-1.326.396-2.142.396z" fill="#fff"/><rect fill="#55b1ab" height="137" rx="8.5" width="223" x="675" y="37.5"/><rect height="137" rx="8.5" stroke="#18465e" stroke-width="3" width="223" x="675" y="37.5"/><rect fill="#fff" height="48" rx="8" width="60" x="695" y="82"/><path d="m753.954 125.409v.001c0 1.987-1.605 3.59-3.642 3.59h-50.67c-2.037 0-3.642-1.603-3.642-3.59v-31.41h57.999z" stroke="#18465e" stroke-width="2"/><path d="m753.954 86.595v-.005c0-1.987-1.605-3.59-3.642-3.59h-50.67c-2.037 0-3.642 1.603-3.642 3.59v7.41h57.994z" fill="#55b1ab" stroke="#18465e" stroke-width="2"/><g fill="#18465e"><ellipse cx="703.13599" cy="88.5" rx="1.52542" ry="1.5"/><ellipse cx="709.237" cy="88.5" rx="1.52542" ry="1.5"/><ellipse cx="715.33899" cy="88.5" rx="1.52542" ry="1.5"/></g><path d="m753.954 125.409v.001c0 1.987-1.605 3.59-3.642 3.59h-50.67c-2.037 0-3.642-1.603-3.642-3.59v-31.41h57.999z" fill="#55b1ab" opacity=".5" stroke="#18465e" stroke-width="2"/><path d="m718 124v-24h15.385v4.103h-10.77v7.692l8.206-3.59v4.616l-8.206 3.589v7.59z" fill="#18465e"/><path d="m776.62 99.626c-.924 0-1.752-.15-2.484-.45s-1.32-.744-1.764-1.332c-.432-.588-.66-1.296-.684-2.124h3.276c.048.468.21.828.486 1.08.276.24.636.36 1.08.36.456 0 .816-.102 1.08-.306.264-.216.396-.51.396-.882 0-.312-.108-.57-.324-.774-.204-.204-.462-.372-.774-.504-.3-.132-.732-.282-1.296-.45-.816-.252-1.482-.504-1.998-.756s-.96-.624-1.332-1.116-.558-1.134-.558-1.926c0-1.176.426-2.094 1.278-2.754.852-.672 1.962-1.008 3.33-1.008 1.392 0 2.514.336 3.366 1.008.852.66 1.308 1.584 1.368 2.772h-3.33c-.024-.408-.174-.726-.45-.954-.276-.24-.63-.36-1.062-.36-.372 0-.672.102-.9.306-.228.192-.342.474-.342.846 0 .408.192.726.576.954s.984.474 1.8.738c.816.276 1.476.54 1.98.792.516.252.96.618 1.332 1.098s.558 1.098.558 1.854c0 .72-.186 1.374-.558 1.962-.36.588-.888 1.056-1.584 1.404s-1.518.522-2.466.522zm8.05-11.214c-.54 0-.984-.156-1.332-.468-.336-.324-.504-.72-.504-1.188 0-.48.168-.876.504-1.188.348-.324.792-.486 1.332-.486.528 0 .96.162 1.296.486.348.312.522.708.522 1.188 0 .468-.174.864-.522 1.188-.336.312-.768.468-1.296.468zm1.53 1.044v10.044h-3.078v-10.044zm6.046-.144c.708 0 1.326.144 1.854.432.54.288.954.666 1.242 1.134v-1.422h3.078v10.026c0 .924-.186 1.758-.558 2.502-.36.756-.918 1.356-1.674 1.8-.744.444-1.674.666-2.79.666-1.488 0-2.694-.354-3.618-1.062-.924-.696-1.452-1.644-1.584-2.844h3.042c.096.384.324.684.684.9.36.228.804.342 1.332.342.636 0 1.14-.186 1.512-.558.384-.36.576-.942.576-1.746v-1.422c-.3.468-.714.852-1.242 1.152-.528.288-1.146.432-1.854.432-.828 0-1.578-.21-2.25-.63-.672-.432-1.206-1.038-1.602-1.818-.384-.792-.576-1.704-.576-2.736s.192-1.938.576-2.718c.396-.78.93-1.38 1.602-1.8s1.422-.63 2.25-.63zm3.096 5.166c0-.768-.216-1.374-.648-1.818-.42-.444-.936-.666-1.548-.666s-1.134.222-1.566.666c-.42.432-.63 1.032-.63 1.8s.21 1.38.63 1.836c.432.444.954.666 1.566.666s1.128-.222 1.548-.666c.432-.444.648-1.05.648-1.818zm11.425-5.13c1.176 0 2.112.384 2.813 1.152.7.756 1.06 1.8 1.06 3.132v5.868h-3.063v-5.454c0-.672-.174-1.194-.522-1.566s-.816-.558-1.404-.558-1.056.186-1.404.558-.522.894-.522 1.566v5.454h-3.078v-10.044h3.078v1.332c.312-.444.732-.792 1.26-1.044.528-.264 1.122-.396 1.782-.396zm11.373-.936c-.54 0-.99-.156-1.33-.468-.34-.324-.51-.72-.51-1.188 0-.48.17-.876.51-1.188.34-.324.79-.486 1.33-.486.53 0 .96.162 1.29.486.35.312.53.708.53 1.188 0 .468-.18.864-.53 1.188-.33.312-.76.468-1.29.468zm1.53 1.044v10.044h-3.08v-10.044zm8.35-.108c1.18 0 2.11.384 2.81 1.152.71.756 1.06 1.8 1.06 3.132v5.868h-3.06v-5.454c0-.672-.17-1.194-.52-1.566s-.82-.558-1.41-.558c-.58 0-1.05.186-1.4.558s-.52.894-.52 1.566v5.454h-3.08v-10.044h3.08v1.332c.31-.444.73-.792 1.26-1.044.53-.264 1.12-.396 1.78-.396zm24.24.108-2.72 10.044h-3.4l-1.58-6.516-1.64 6.516h-3.39l-2.73-10.044h3.08l1.42 7.182 1.69-7.182h3.26l1.71 7.146 1.4-7.146zm2.72-1.044c-.54 0-.98-.156-1.33-.468-.34-.324-.5-.72-.5-1.188 0-.48.16-.876.5-1.188.35-.324.79-.486 1.33-.486.53 0 .96.162 1.3.486.35.312.52.708.52 1.188 0 .468-.17.864-.52 1.188-.34.312-.77.468-1.3.468zm1.53 1.044v10.044h-3.08v-10.044zm7.83 7.434v2.61h-1.57c-1.11 0-1.98-.27-2.61-.81-.62-.552-.93-1.446-.93-2.682v-3.996h-1.23v-2.556h1.23v-2.448h3.08v2.448h2.01v2.556h-2.01v4.032c0 .3.07.516.21.648.15.132.39.198.72.198zm7.89-7.542c1.15 0 2.08.384 2.77 1.152.7.756 1.05 1.8 1.05 3.132v5.868h-3.06v-5.454c0-.672-.18-1.194-.53-1.566-.34-.372-.81-.558-1.4-.558s-1.06.186-1.4.558c-.35.372-.53.894-.53 1.566v5.454h-3.07v-13.32h3.07v4.626c.32-.444.74-.798 1.28-1.062s1.15-.396 1.82-.396zm-92.519 22.516v2.466h-5.148v2.664h3.852v2.394h-3.852v5.112h-3.078v-12.636zm8.062 12.636-2.628-4.77h-.738v4.77h-3.078v-12.636h5.166c.996 0 1.842.174 2.538.522.708.348 1.236.828 1.584 1.44.348.6.522 1.272.522 2.016 0 .84-.24 1.59-.72 2.25-.468.66-1.164 1.128-2.088 1.404l2.916 5.004zm-3.366-6.948h1.908c.564 0 .984-.138 1.26-.414.288-.276.432-.666.432-1.17 0-.48-.144-.858-.432-1.134-.276-.276-.696-.414-1.26-.414h-1.908zm11.742-3.222v2.556h4.122v2.376h-4.122v2.772h4.662v2.466h-7.74v-12.636h7.74v2.466zm15.661 12.33-1.62-2.178c-.48.096-.949.144-1.405.144-1.188 0-2.28-.276-3.276-.828-.984-.552-1.77-1.32-2.358-2.304-.576-.996-.864-2.112-.864-3.348s.288-2.346.864-3.33c.588-.984 1.374-1.752 2.358-2.304.996-.552 2.088-.828 3.276-.828 1.185 0 2.275.276 3.255.828 1 .552 1.78 1.32 2.34 2.304.58.984.87 2.094.87 3.33 0 1.08-.22 2.07-.67 2.97-.43.888-1.04 1.626-1.82 2.214l2.78 3.33zm-6.373-8.514c0 1.116.3 2.01.9 2.682.612.66 1.428.99 2.448.99 1.005 0 1.815-.336 2.415-1.008.61-.672.92-1.56.92-2.664 0-1.116-.31-2.004-.92-2.664-.6-.672-1.41-1.008-2.415-1.008-1.02 0-1.836.33-2.448.99-.6.66-.9 1.554-.9 2.682zm14.583-6.282v7.56c0 .756.18 1.338.56 1.746.37.408.91.612 1.63.612s1.28-.204 1.66-.612.58-.99.58-1.746v-7.56h3.07v7.542c0 1.128-.24 2.082-.72 2.862s-1.12 1.368-1.94 1.764c-.8.396-1.7.594-2.7.594s-1.89-.192-2.68-.576c-.78-.396-1.4-.984-1.86-1.764-.45-.792-.68-1.752-.68-2.88v-7.542zm12.74 2.466v2.556h4.13v2.376h-4.13v2.772h4.67v2.466h-7.74v-12.636h7.74v2.466zm17.97 10.17h-3.08l-5.15-7.794v7.794h-3.08v-12.636h3.08l5.15 7.83v-7.83h3.08zm1.71-6.336c0-1.248.27-2.358.81-3.33.54-.984 1.29-1.746 2.25-2.286.97-.552 2.07-.828 3.29-.828 1.5 0 2.79.396 3.85 1.188 1.07.792 1.79 1.872 2.15 3.24h-3.39c-.25-.528-.61-.93-1.08-1.206-.45-.276-.98-.414-1.56-.414-.95 0-1.72.33-2.31.99s-.88 1.542-.88 2.646.29 1.986.88 2.646 1.36.99 2.31.99c.58 0 1.11-.138 1.56-.414.47-.276.83-.678 1.08-1.206h3.39c-.36 1.368-1.08 2.448-2.15 3.24-1.06.78-2.35 1.17-3.85 1.17-1.22 0-2.32-.27-3.29-.81-.96-.552-1.71-1.314-2.25-2.286s-.81-2.082-.81-3.33zm25.07-6.3-4.38 8.46v4.176h-3.08v-4.176l-4.37-8.46h3.49l2.45 5.292 2.43-5.292z" fill="#18465e"/><rect fill="#a06b87" height="137" rx="8.5" width="596" x="302" y="189.5"/><rect height="137" rx="8.5" stroke="#18465e" stroke-width="3" width="596" x="302" y="189.5"/><rect fill="#fff" height="48" rx="5" width="60" x="441.5" y="234"/><path d="m500.454 277.409v.001c0 1.987-1.605 3.59-3.642 3.59h-50.67c-2.037 0-3.642-1.603-3.642-3.59v-31.41h57.999z" fill="#fff" stroke="#18465e" stroke-width="2"/><path d="m500.454 238.595v-.005c0-1.987-1.605-3.59-3.642-3.59h-50.67c-2.037 0-3.642 1.603-3.642 3.59v7.41h57.994z" fill="#a06b87" stroke="#18465e" stroke-width="2"/><g fill="#18465e" transform="translate(-190.5 -16)"><ellipse cx="640.13599" cy="256.5" rx="1.52542" ry="1.5"/><ellipse cx="646.237" cy="256.5" rx="1.52542" ry="1.5"/><ellipse cx="652.33899" cy="256.5" rx="1.52542" ry="1.5"/><path d="m675.122 278.494-5.8 4.779c-.55.439-.6 1.22-.15 1.707.25.293.6.439.95.439.3 0 .55-.097.8-.292l6.899-5.706c.3-.244.45-.586.45-.927s-.15-.683-.45-.927l-6.899-5.706c-.5-.439-1.3-.39-1.75.147-.45.487-.4 1.268.15 1.707z"/><path d="m645.729 278.494c0 .341.15.683.45.927l6.9 5.706c.25.195.5.292.799.292.35 0 .7-.146.95-.439.45-.487.4-1.268-.15-1.707l-5.799-4.779 5.799-4.779c.55-.439.6-1.171.15-1.707-.45-.537-1.2-.586-1.749-.147l-6.9 5.706c-.3.244-.45.586-.45.927z"/><path d="m663.75 269.768-5.85 16.525c-.25.634.05 1.317.7 1.609.15.049.3.098.45.098.5 0 .95-.293 1.15-.78l5.9-16.525c.25-.634-.05-1.366-.7-1.609-.65-.244-1.4.048-1.65.682z"/></g><path d="m500.454 277.409v.001c0 1.987-1.605 3.59-3.642 3.59h-50.67c-2.037 0-3.642-1.603-3.642-3.59v-31.41h57.999z" fill="#a06b87" opacity=".5" stroke="#18465e" stroke-width="2"/><path d="m517.42 258.164c0-1.248.27-2.358.81-3.33.54-.984 1.29-1.746 2.25-2.286.972-.552 2.07-.828 3.294-.828 1.5 0 2.784.396 3.852 1.188s1.782 1.872 2.142 3.24h-3.384c-.252-.528-.612-.93-1.08-1.206-.456-.276-.978-.414-1.566-.414-.948 0-1.716.33-2.304.99s-.882 1.542-.882 2.646.294 1.986.882 2.646 1.356.99 2.304.99c.588 0 1.11-.138 1.566-.414.468-.276.828-.678 1.08-1.206h3.384c-.36 1.368-1.074 2.448-2.142 3.24-1.068.78-2.352 1.17-3.852 1.17-1.224 0-2.322-.27-3.294-.81-.96-.552-1.71-1.314-2.25-2.286s-.81-2.082-.81-3.33zm24.151-3.708v10.044h-3.078v-1.368c-.312.444-.738.804-1.278 1.08-.528.264-1.116.396-1.764.396-.768 0-1.446-.168-2.034-.504-.588-.348-1.044-.846-1.368-1.494s-.486-1.41-.486-2.286v-5.868h3.06v5.454c0 .672.174 1.194.522 1.566s.816.558 1.404.558c.6 0 1.074-.186 1.422-.558s.522-.894.522-1.566v-5.454zm6.297 10.188c-.876 0-1.656-.15-2.34-.45s-1.224-.708-1.62-1.224c-.396-.528-.618-1.116-.666-1.764h3.042c.036.348.198.63.486.846s.642.324 1.062.324c.384 0 .678-.072.882-.216.216-.156.324-.354.324-.594 0-.288-.15-.498-.45-.63-.3-.144-.786-.3-1.458-.468-.72-.168-1.32-.342-1.8-.522-.48-.192-.894-.486-1.242-.882-.348-.408-.522-.954-.522-1.638 0-.576.156-1.098.468-1.566.324-.48.792-.858 1.404-1.134.624-.276 1.362-.414 2.214-.414 1.26 0 2.25.312 2.97.936.732.624 1.152 1.452 1.26 2.484h-2.844c-.048-.348-.204-.624-.468-.828-.252-.204-.588-.306-1.008-.306-.36 0-.636.072-.828.216-.192.132-.288.318-.288.558 0 .288.15.504.45.648.312.144.792.288 1.44.432.744.192 1.35.384 1.818.576.468.18.876.48 1.224.9.36.408.546.96.558 1.656 0 .588-.168 1.116-.504 1.584-.324.456-.798.816-1.422 1.08-.612.264-1.326.396-2.142.396zm11.549-2.754v2.61h-1.566c-1.116 0-1.986-.27-2.61-.81-.624-.552-.936-1.446-.936-2.682v-3.996h-1.224v-2.556h1.224v-2.448h3.078v2.448h2.016v2.556h-2.016v4.032c0 .3.072.516.216.648s.384.198.72.198zm6.287 2.754c-.984 0-1.872-.21-2.664-.63-.78-.42-1.398-1.02-1.854-1.8-.444-.78-.666-1.692-.666-2.736 0-1.032.228-1.938.684-2.718.456-.792 1.08-1.398 1.872-1.818s1.68-.63 2.664-.63 1.872.21 2.664.63 1.416 1.026 1.872 1.818c.456.78.684 1.686.684 2.718s-.234 1.944-.702 2.736c-.456.78-1.086 1.38-1.89 1.8-.792.42-1.68.63-2.664.63zm0-2.664c.588 0 1.086-.216 1.494-.648.42-.432.63-1.05.63-1.854s-.204-1.422-.612-1.854c-.396-.432-.888-.648-1.476-.648-.6 0-1.098.216-1.494.648-.396.42-.594 1.038-.594 1.854 0 .804.192 1.422.576 1.854.396.432.888.648 1.476.648zm19.705-7.632c1.248 0 2.238.378 2.97 1.134.744.756 1.116 1.806 1.116 3.15v5.868h-3.06v-5.454c0-.648-.174-1.146-.522-1.494-.336-.36-.804-.54-1.404-.54s-1.074.18-1.422.54c-.336.348-.504.846-.504 1.494v5.454h-3.06v-5.454c0-.648-.174-1.146-.522-1.494-.336-.36-.804-.54-1.404-.54s-1.074.18-1.422.54c-.336.348-.504.846-.504 1.494v5.454h-3.078v-10.044h3.078v1.26c.312-.42.72-.75 1.224-.99.504-.252 1.074-.378 1.71-.378.756 0 1.428.162 2.016.486.6.324 1.068.786 1.404 1.386.348-.552.822-1.002 1.422-1.35s1.254-.522 1.962-.522zm17.703 3.672c.732.156 1.32.522 1.764 1.098.444.564.666 1.212.666 1.944 0 1.056-.372 1.896-1.116 2.52-.732.612-1.758.918-3.078.918h-5.886v-12.636h5.688c1.284 0 2.286.294 3.006.882.732.588 1.098 1.386 1.098 2.394 0 .744-.198 1.362-.594 1.854-.384.492-.9.834-1.548 1.026zm-4.572-1.044h2.016c.504 0 .888-.108 1.152-.324.276-.228.414-.558.414-.99s-.138-.762-.414-.99c-.264-.228-.648-.342-1.152-.342h-2.016zm2.268 5.04c.516 0 .912-.114 1.188-.342.288-.24.432-.582.432-1.026s-.15-.792-.45-1.044c-.288-.252-.69-.378-1.206-.378h-2.232v2.79zm5.907-2.556c0-1.032.192-1.938.576-2.718.396-.78.93-1.38 1.602-1.8s1.422-.63 2.25-.63c.708 0 1.326.144 1.854.432.54.288.954.666 1.242 1.134v-1.422h3.078v10.044h-3.078v-1.422c-.3.468-.72.846-1.26 1.134-.528.288-1.146.432-1.854.432-.816 0-1.56-.21-2.232-.63-.672-.432-1.206-1.038-1.602-1.818-.384-.792-.576-1.704-.576-2.736zm7.524.018c0-.768-.216-1.374-.648-1.818-.42-.444-.936-.666-1.548-.666s-1.134.222-1.566.666c-.42.432-.63 1.032-.63 1.8s.21 1.38.63 1.836c.432.444.954.666 1.566.666s1.128-.222 1.548-.666c.432-.444.648-1.05.648-1.818zm4.693 0c0-1.044.21-1.956.63-2.736.432-.78 1.026-1.38 1.782-1.8.768-.42 1.644-.63 2.628-.63 1.26 0 2.31.33 3.15.99.852.66 1.41 1.59 1.674 2.79h-3.276c-.276-.768-.81-1.152-1.602-1.152-.564 0-1.014.222-1.35.666-.336.432-.504 1.056-.504 1.872s.168 1.446.504 1.89c.336.432.786.648 1.35.648.792 0 1.326-.384 1.602-1.152h3.276c-.264 1.176-.822 2.1-1.674 2.772s-1.902 1.008-3.15 1.008c-.984 0-1.86-.21-2.628-.63-.756-.42-1.35-1.02-1.782-1.8-.42-.78-.63-1.692-.63-2.736zm17.648 5.022-3.06-4.212v4.212h-3.078v-13.32h3.078v7.362l3.042-4.086h3.798l-4.176 5.04 4.212 5.004zm14.457-5.184c0 .288-.018.588-.054.9h-6.966c.048.624.246 1.104.594 1.44.36.324.798.486 1.314.486.768 0 1.302-.324 1.602-.972h3.276c-.168.66-.474 1.254-.918 1.782-.432.528-.978.942-1.638 1.242s-1.398.45-2.214.45c-.984 0-1.86-.21-2.628-.63s-1.368-1.02-1.8-1.8-.648-1.692-.648-2.736.21-1.956.63-2.736c.432-.78 1.032-1.38 1.8-1.8s1.65-.63 2.646-.63c.972 0 1.836.204 2.592.612s1.344.99 1.764 1.746c.432.756.648 1.638.648 2.646zm-3.15-.81c0-.528-.18-.948-.54-1.26s-.81-.468-1.35-.468c-.516 0-.954.15-1.314.45-.348.3-.564.726-.648 1.278zm10.894-4.158c1.176 0 2.112.384 2.808 1.152.708.756 1.062 1.8 1.062 3.132v5.868h-3.06v-5.454c0-.672-.174-1.194-.522-1.566s-.816-.558-1.404-.558-1.056.186-1.404.558-.522.894-.522 1.566v5.454h-3.078v-10.044h3.078v1.332c.312-.444.732-.792 1.26-1.044.528-.264 1.122-.396 1.782-.396zm5.397 5.112c0-1.032.192-1.938.576-2.718.396-.78.93-1.38 1.602-1.8s1.422-.63 2.25-.63c.66 0 1.26.138 1.8.414.552.276.984.648 1.296 1.116v-4.662h3.078v13.32h-3.078v-1.44c-.288.48-.702.864-1.242 1.152-.528.288-1.146.432-1.854.432-.828 0-1.578-.21-2.25-.63-.672-.432-1.206-1.038-1.602-1.818-.384-.792-.576-1.704-.576-2.736zm7.524.018c0-.768-.216-1.374-.648-1.818-.42-.444-.936-.666-1.548-.666s-1.134.222-1.566.666c-.42.432-.63 1.032-.63 1.8s.21 1.38.63 1.836c.432.444.954.666 1.566.666s1.128-.222 1.548-.666c.432-.444.648-1.05.648-1.818zm13.691 5.148c-.924 0-1.752-.15-2.484-.45s-1.32-.744-1.764-1.332c-.432-.588-.66-1.296-.684-2.124h3.276c.048.468.21.828.486 1.08.276.24.636.36 1.08.36.456 0 .816-.102 1.08-.306.264-.216.396-.51.396-.882 0-.312-.108-.57-.324-.774-.204-.204-.462-.372-.774-.504-.3-.132-.732-.282-1.296-.45-.816-.252-1.482-.504-1.998-.756s-.96-.624-1.332-1.116-.558-1.134-.558-1.926c0-1.176.426-2.094 1.278-2.754.852-.672 1.962-1.008 3.33-1.008 1.392 0 2.514.336 3.366 1.008.852.66 1.308 1.584 1.368 2.772h-3.33c-.024-.408-.174-.726-.45-.954-.276-.24-.63-.36-1.062-.36-.372 0-.672.102-.9.306-.228.192-.342.474-.342.846 0 .408.192.726.576.954s.984.474 1.8.738c.816.276 1.476.54 1.98.792.516.252.96.618 1.332 1.098s.558 1.098.558 1.854c0 .72-.186 1.374-.558 1.962-.36.588-.888 1.056-1.584 1.404s-1.518.522-2.466.522zm15.97-5.31c0 .288-.018.588-.054.9h-6.966c.048.624.246 1.104.594 1.44.36.324.798.486 1.314.486.768 0 1.302-.324 1.602-.972h3.276c-.168.66-.474 1.254-.918 1.782-.432.528-.978.942-1.638 1.242s-1.398.45-2.214.45c-.984 0-1.86-.21-2.628-.63s-1.368-1.02-1.8-1.8-.648-1.692-.648-2.736.21-1.956.63-2.736c.432-.78 1.032-1.38 1.8-1.8s1.65-.63 2.646-.63c.972 0 1.836.204 2.592.612s1.344.99 1.764 1.746c.432.756.648 1.638.648 2.646zm-3.15-.81c0-.528-.18-.948-.54-1.26s-.81-.468-1.35-.468c-.516 0-.954.15-1.314.45-.348.3-.564.726-.648 1.278zm7.852-2.376c.36-.552.81-.984 1.35-1.296.54-.324 1.14-.486 1.8-.486v3.258h-.846c-.768 0-1.344.168-1.728.504-.384.324-.576.9-.576 1.728v4.662h-3.078v-10.044h3.078zm9.139 5.49 2.178-7.164h3.276l-3.564 10.044h-3.798l-3.564-10.044h3.294zm8.298-8.208c-.54 0-.984-.156-1.332-.468-.336-.324-.504-.72-.504-1.188 0-.48.168-.876.504-1.188.348-.324.792-.486 1.332-.486.528 0 .96.162 1.296.486.348.312.522.708.522 1.188 0 .468-.174.864-.522 1.188-.336.312-.768.468-1.296.468zm1.53 1.044v10.044h-3.078v-10.044zm1.618 5.022c0-1.044.21-1.956.63-2.736.432-.78 1.026-1.38 1.782-1.8.768-.42 1.644-.63 2.628-.63 1.26 0 2.31.33 3.15.99.852.66 1.41 1.59 1.674 2.79h-3.276c-.276-.768-.81-1.152-1.602-1.152-.564 0-1.014.222-1.35.666-.336.432-.504 1.056-.504 1.872s.168 1.446.504 1.89c.336.432.786.648 1.35.648.792 0 1.326-.384 1.602-1.152h3.276c-.264 1.176-.822 2.1-1.674 2.772s-1.902 1.008-3.15 1.008c-.984 0-1.86-.21-2.628-.63-.756-.42-1.35-1.02-1.782-1.8-.42-.78-.63-1.692-.63-2.736zm20.979-.162c0 .288-.018.588-.054.9h-6.966c.048.624.246 1.104.594 1.44.36.324.798.486 1.314.486.768 0 1.302-.324 1.602-.972h3.276c-.168.66-.474 1.254-.918 1.782-.432.528-.978.942-1.638 1.242s-1.398.45-2.214.45c-.984 0-1.86-.21-2.628-.63s-1.368-1.02-1.8-1.8-.648-1.692-.648-2.736.21-1.956.63-2.736c.432-.78 1.032-1.38 1.8-1.8s1.65-.63 2.646-.63c.972 0 1.836.204 2.592.612s1.344.99 1.764 1.746c.432.756.648 1.638.648 2.646zm-3.15-.81c0-.528-.18-.948-.54-1.26s-.81-.468-1.35-.468c-.516 0-.954.15-1.314.45-.348.3-.564.726-.648 1.278zm8.86 6.138c-.876 0-1.656-.15-2.34-.45s-1.224-.708-1.62-1.224c-.396-.528-.618-1.116-.666-1.764h3.042c.036.348.198.63.486.846s.642.324 1.062.324c.384 0 .678-.072.882-.216.216-.156.324-.354.324-.594 0-.288-.15-.498-.45-.63-.3-.144-.786-.3-1.458-.468-.72-.168-1.32-.342-1.8-.522-.48-.192-.894-.486-1.242-.882-.348-.408-.522-.954-.522-1.638 0-.576.156-1.098.468-1.566.324-.48.792-.858 1.404-1.134.624-.276 1.362-.414 2.214-.414 1.26 0 2.25.312 2.97.936.732.624 1.152 1.452 1.26 2.484h-2.844c-.048-.348-.204-.624-.468-.828-.252-.204-.588-.306-1.008-.306-.36 0-.636.072-.828.216-.192.132-.288.318-.288.558 0 .288.15.504.45.648.312.144.792.288 1.44.432.744.192 1.35.384 1.818.576.468.18.876.48 1.224.9.36.408.546.96.558 1.656 0 .588-.168 1.116-.504 1.584-.324.456-.798.816-1.422 1.08-.612.264-1.326.396-2.142.396z" fill="#fff"/><rect fill="#5e69ff" height="137" rx="8.5" width="596" x="302" y="341.5"/><rect height="137" rx="8.5" stroke="#18465e" stroke-width="3" width="596" x="302" y="341.5"/><rect fill="#fff" height="48" rx="5" width="60" x="479.5" y="386"/><path d="m538.454 429.409v.001c0 1.987-1.605 3.59-3.642 3.59h-50.67c-2.037 0-3.642-1.603-3.642-3.59v-31.41h57.999z" fill="#fff" stroke="#18465e" stroke-width="2"/><path d="m538.454 390.595v-.005c0-1.987-1.605-3.59-3.642-3.59h-50.67c-2.037 0-3.642 1.603-3.642 3.59v7.41h57.994z" fill="#5e69ff" stroke="#18465e" stroke-width="2"/><g fill="#18465e" transform="translate(250 -16)"><ellipse cx="237.63599" cy="408.5" rx="1.52542" ry="1.5"/><ellipse cx="243.737" cy="408.5" rx="1.52542" ry="1.5"/><ellipse cx="249.83899" cy="408.5" rx="1.52542" ry="1.5"/><path d="m272.622 430.494-5.8 4.779c-.55.439-.6 1.22-.15 1.707.25.293.6.439.95.439.3 0 .55-.097.8-.292l6.899-5.706c.3-.244.45-.586.45-.927s-.15-.683-.45-.927l-6.899-5.706c-.5-.439-1.3-.39-1.75.147-.45.487-.4 1.268.15 1.707z"/><path d="m243.229 430.494c0 .341.15.683.45.927l6.9 5.706c.25.195.5.292.799.292.35 0 .7-.146.95-.439.45-.487.4-1.268-.15-1.707l-5.799-4.779 5.799-4.779c.55-.439.6-1.171.15-1.707-.45-.537-1.2-.586-1.749-.147l-6.9 5.706c-.3.244-.45.586-.45.927z"/><path d="m261.25 421.768-5.85 16.525c-.25.634.05 1.317.7 1.609.15.049.3.098.45.098.5 0 .95-.293 1.15-.78l5.9-16.525c.25-.634-.05-1.366-.7-1.609-.65-.244-1.4.048-1.65.682z"/></g><path d="m538.454 429.409v.001c0 1.987-1.605 3.59-3.642 3.59h-50.67c-2.037 0-3.642-1.603-3.642-3.59v-31.41h57.999z" fill="#5e69ff" opacity=".5" stroke="#18465e" stroke-width="2"/><path d="m564.106 407.86c-.228-.42-.558-.738-.99-.954-.42-.228-.918-.342-1.494-.342-.996 0-1.794.33-2.394.99-.6.648-.9 1.518-.9 2.61 0 1.164.312 2.076.936 2.736.636.648 1.506.972 2.61.972.756 0 1.392-.192 1.908-.576.528-.384.912-.936 1.152-1.656h-3.906v-2.268h6.696v2.862c-.228.768-.618 1.482-1.17 2.142-.54.66-1.23 1.194-2.07 1.602s-1.788.612-2.844.612c-1.248 0-2.364-.27-3.348-.81-.972-.552-1.734-1.314-2.286-2.286-.54-.972-.81-2.082-.81-3.33s.27-2.358.81-3.33c.552-.984 1.314-1.746 2.286-2.286.972-.552 2.082-.828 3.33-.828 1.512 0 2.784.366 3.816 1.098 1.044.732 1.734 1.746 2.07 3.042zm4.711 3.6c0-1.032.192-1.938.576-2.718.396-.78.93-1.38 1.602-1.8s1.422-.63 2.25-.63c.708 0 1.326.144 1.854.432.54.288.954.666 1.242 1.134v-1.422h3.078v10.044h-3.078v-1.422c-.3.468-.72.846-1.26 1.134-.528.288-1.146.432-1.854.432-.816 0-1.56-.21-2.232-.63-.672-.432-1.206-1.038-1.602-1.818-.384-.792-.576-1.704-.576-2.736zm7.524.018c0-.768-.216-1.374-.648-1.818-.42-.444-.936-.666-1.548-.666s-1.134.222-1.566.666c-.42.432-.63 1.032-.63 1.8s.21 1.38.63 1.836c.432.444.954.666 1.566.666s1.128-.222 1.548-.666c.432-.444.648-1.05.648-1.818zm10.902 2.412v2.61h-1.566c-1.116 0-1.986-.27-2.61-.81-.624-.552-.936-1.446-.936-2.682v-3.996h-1.224v-2.556h1.224v-2.448h3.078v2.448h2.016v2.556h-2.016v4.032c0 .3.072.516.216.648s.384.198.72.198zm11.183-2.574c0 .288-.018.588-.054.9h-6.966c.048.624.246 1.104.594 1.44.36.324.798.486 1.314.486.768 0 1.302-.324 1.602-.972h3.276c-.168.66-.474 1.254-.918 1.782-.432.528-.978.942-1.638 1.242s-1.398.45-2.214.45c-.984 0-1.86-.21-2.628-.63s-1.368-1.02-1.8-1.8-.648-1.692-.648-2.736.21-1.956.63-2.736c.432-.78 1.032-1.38 1.8-1.8s1.65-.63 2.646-.63c.972 0 1.836.204 2.592.612s1.344.99 1.764 1.746c.432.756.648 1.638.648 2.646zm-3.15-.81c0-.528-.18-.948-.54-1.26s-.81-.468-1.35-.468c-.516 0-.954.15-1.314.45-.348.3-.564.726-.648 1.278zm19.192-4.05-2.718 10.044h-3.402l-1.584-6.516-1.638 6.516h-3.384l-2.736-10.044h3.078l1.422 7.182 1.692-7.182h3.258l1.71 7.146 1.404-7.146zm.561 5.004c0-1.032.192-1.938.576-2.718.396-.78.93-1.38 1.602-1.8s1.422-.63 2.25-.63c.708 0 1.326.144 1.854.432.54.288.954.666 1.242 1.134v-1.422h3.078v10.044h-3.078v-1.422c-.3.468-.72.846-1.26 1.134-.528.288-1.146.432-1.854.432-.816 0-1.56-.21-2.232-.63-.672-.432-1.206-1.038-1.602-1.818-.384-.792-.576-1.704-.576-2.736zm7.524.018c0-.768-.216-1.374-.648-1.818-.42-.444-.936-.666-1.548-.666s-1.134.222-1.566.666c-.42.432-.63 1.032-.63 1.8s.21 1.38.63 1.836c.432.444.954.666 1.566.666s1.128-.222 1.548-.666c.432-.444.648-1.05.648-1.818zm15.565-5.022-6.3 14.814h-3.312l2.304-5.112-4.086-9.702h3.438l2.322 6.282 2.304-6.282zm9.5 10.17c-.924 0-1.752-.15-2.484-.45s-1.32-.744-1.764-1.332c-.432-.588-.66-1.296-.684-2.124h3.276c.048.468.21.828.486 1.08.276.24.636.36 1.08.36.456 0 .816-.102 1.08-.306.264-.216.396-.51.396-.882 0-.312-.108-.57-.324-.774-.204-.204-.462-.372-.774-.504-.3-.132-.732-.282-1.296-.45-.816-.252-1.482-.504-1.998-.756s-.96-.624-1.332-1.116-.558-1.134-.558-1.926c0-1.176.426-2.094 1.278-2.754.852-.672 1.962-1.008 3.33-1.008 1.392 0 2.514.336 3.366 1.008.852.66 1.308 1.584 1.368 2.772h-3.33c-.024-.408-.174-.726-.45-.954-.276-.24-.63-.36-1.062-.36-.372 0-.672.102-.9.306-.228.192-.342.474-.342.846 0 .408.192.726.576.954s.984.474 1.8.738c.816.276 1.476.54 1.98.792.516.252.96.618 1.332 1.098s.558 1.098.558 1.854c0 .72-.186 1.374-.558 1.962-.36.588-.888 1.056-1.584 1.404s-1.518.522-2.466.522zm15.97-5.31c0 .288-.018.588-.054.9h-6.966c.048.624.246 1.104.594 1.44.36.324.798.486 1.314.486.768 0 1.302-.324 1.602-.972h3.276c-.168.66-.474 1.254-.918 1.782-.432.528-.978.942-1.638 1.242s-1.398.45-2.214.45c-.984 0-1.86-.21-2.628-.63s-1.368-1.02-1.8-1.8-.648-1.692-.648-2.736.21-1.956.63-2.736c.432-.78 1.032-1.38 1.8-1.8s1.65-.63 2.646-.63c.972 0 1.836.204 2.592.612s1.344.99 1.764 1.746c.432.756.648 1.638.648 2.646zm-3.15-.81c0-.528-.18-.948-.54-1.26s-.81-.468-1.35-.468c-.516 0-.954.15-1.314.45-.348.3-.564.726-.648 1.278zm7.852-2.376c.36-.552.81-.984 1.35-1.296.54-.324 1.14-.486 1.8-.486v3.258h-.846c-.768 0-1.344.168-1.728.504-.384.324-.576.9-.576 1.728v4.662h-3.078v-10.044h3.078zm9.139 5.49 2.178-7.164h3.276l-3.564 10.044h-3.798l-3.564-10.044h3.294zm8.298-8.208c-.54 0-.984-.156-1.332-.468-.336-.324-.504-.72-.504-1.188 0-.48.168-.876.504-1.188.348-.324.792-.486 1.332-.486.528 0 .96.162 1.296.486.348.312.522.708.522 1.188 0 .468-.174.864-.522 1.188-.336.312-.768.468-1.296.468zm1.53 1.044v10.044h-3.078v-10.044zm1.618 5.022c0-1.044.21-1.956.63-2.736.432-.78 1.026-1.38 1.782-1.8.768-.42 1.644-.63 2.628-.63 1.26 0 2.31.33 3.15.99.852.66 1.41 1.59 1.674 2.79h-3.276c-.276-.768-.81-1.152-1.602-1.152-.564 0-1.014.222-1.35.666-.336.432-.504 1.056-.504 1.872s.168 1.446.504 1.89c.336.432.786.648 1.35.648.792 0 1.326-.384 1.602-1.152h3.276c-.264 1.176-.822 2.1-1.674 2.772s-1.902 1.008-3.15 1.008c-.984 0-1.86-.21-2.628-.63-.756-.42-1.35-1.02-1.782-1.8-.42-.78-.63-1.692-.63-2.736zm20.979-.162c0 .288-.018.588-.054.9h-6.966c.048.624.246 1.104.594 1.44.36.324.798.486 1.314.486.768 0 1.302-.324 1.602-.972h3.276c-.168.66-.474 1.254-.918 1.782-.432.528-.978.942-1.638 1.242s-1.398.45-2.214.45c-.984 0-1.86-.21-2.628-.63s-1.368-1.02-1.8-1.8-.648-1.692-.648-2.736.21-1.956.63-2.736c.432-.78 1.032-1.38 1.8-1.8s1.65-.63 2.646-.63c.972 0 1.836.204 2.592.612s1.344.99 1.764 1.746c.432.756.648 1.638.648 2.646zm-3.15-.81c0-.528-.18-.948-.54-1.26s-.81-.468-1.35-.468c-.516 0-.954.15-1.314.45-.348.3-.564.726-.648 1.278zm8.859 6.138c-.876 0-1.656-.15-2.34-.45s-1.224-.708-1.62-1.224c-.396-.528-.618-1.116-.666-1.764h3.042c.036.348.198.63.486.846s.642.324 1.062.324c.384 0 .678-.072.882-.216.216-.156.324-.354.324-.594 0-.288-.15-.498-.45-.63-.3-.144-.786-.3-1.458-.468-.72-.168-1.32-.342-1.8-.522-.48-.192-.894-.486-1.242-.882-.348-.408-.522-.954-.522-1.638 0-.576.156-1.098.468-1.566.324-.48.792-.858 1.404-1.134.624-.276 1.362-.414 2.214-.414 1.26 0 2.25.312 2.97.936.732.624 1.152 1.452 1.26 2.484h-2.844c-.048-.348-.204-.624-.468-.828-.252-.204-.588-.306-1.008-.306-.36 0-.636.072-.828.216-.192.132-.288.318-.288.558 0 .288.15.504.45.648.312.144.792.288 1.44.432.744.192 1.35.384 1.818.576.468.18.876.48 1.224.9.36.408.546.96.558 1.656 0 .588-.168 1.116-.504 1.584-.324.456-.798.816-1.422 1.08-.612.264-1.326.396-2.142.396z" fill="#fff"/><rect fill="#55b1ab" height="137" rx="8.5" width="358" x="302" y="493.5"/><rect height="137" rx="8.5" stroke="#18465e" stroke-width="3" width="358" x="302" y="493.5"/><rect fill="#fff" height="48" rx="8" width="60" x="389.5" y="538"/><path d="m448.454 581.409v.001c0 1.987-1.605 3.59-3.642 3.59h-50.67c-2.037 0-3.642-1.603-3.642-3.59v-31.41h57.999z" stroke="#18465e" stroke-width="2"/><path d="m448.454 542.595v-.005c0-1.987-1.605-3.59-3.642-3.59h-50.67c-2.037 0-3.642 1.603-3.642 3.59v7.41h57.994z" fill="#55b1ab" stroke="#18465e" stroke-width="2"/><g fill="#18465e"><ellipse cx="397.63599" cy="544.5" rx="1.52542" ry="1.5"/><ellipse cx="403.737" cy="544.5" rx="1.52542" ry="1.5"/><ellipse cx="409.83899" cy="544.5" rx="1.52542" ry="1.5"/></g><path d="m448.454 581.409v.001c0 1.987-1.605 3.59-3.642 3.59h-50.67c-2.037 0-3.642-1.603-3.642-3.59v-31.41h57.999z" fill="#55b1ab" opacity=".5" stroke="#18465e" stroke-width="2"/><path d="m412.5 580v-24h15.385v4.103h-10.77v7.692l8.206-3.59v4.616l-8.206 3.589v7.59z" fill="#18465e"/><path d="m474.211 555.864v2.466h-5.148v2.664h3.852v2.394h-3.852v5.112h-3.078v-12.636zm8.062 12.636-2.628-4.77h-.738v4.77h-3.078v-12.636h5.166c.996 0 1.842.174 2.538.522.708.348 1.236.828 1.584 1.44.348.6.522 1.272.522 2.016 0 .84-.24 1.59-.72 2.25-.468.66-1.164 1.128-2.088 1.404l2.916 5.004zm-3.366-6.948h1.908c.564 0 .984-.138 1.26-.414.288-.276.432-.666.432-1.17 0-.48-.144-.858-.432-1.134-.276-.276-.696-.414-1.26-.414h-1.908zm11.742-3.222v2.556h4.122v2.376h-4.122v2.772h4.662v2.466h-7.74v-12.636h7.74v2.466zm15.66 12.33-1.62-2.178c-.48.096-.948.144-1.404.144-1.188 0-2.28-.276-3.276-.828-.984-.552-1.77-1.32-2.358-2.304-.576-.996-.864-2.112-.864-3.348s.288-2.346.864-3.33c.588-.984 1.374-1.752 2.358-2.304.996-.552 2.088-.828 3.276-.828s2.274.276 3.258.828c.996.552 1.776 1.32 2.34 2.304.576.984.864 2.094.864 3.33 0 1.08-.222 2.07-.666 2.97-.432.888-1.038 1.626-1.818 2.214l2.772 3.33zm-6.372-8.514c0 1.116.3 2.01.9 2.682.612.66 1.428.99 2.448.99 1.008 0 1.812-.336 2.412-1.008.612-.672.918-1.56.918-2.664 0-1.116-.306-2.004-.918-2.664-.6-.672-1.404-1.008-2.412-1.008-1.02 0-1.836.33-2.448.99-.6.66-.9 1.554-.9 2.682zm14.582-6.282v7.56c0 .756.186 1.338.558 1.746s.918.612 1.638.612 1.272-.204 1.656-.612.576-.99.576-1.746v-7.56h3.078v7.542c0 1.128-.24 2.082-.72 2.862s-1.128 1.368-1.944 1.764c-.804.396-1.704.594-2.7.594s-1.89-.192-2.682-.576c-.78-.396-1.398-.984-1.854-1.764-.456-.792-.684-1.752-.684-2.88v-7.542zm12.745 2.466v2.556h4.122v2.376h-4.122v2.772h4.662v2.466h-7.74v-12.636h7.74v2.466zm17.965 10.17h-3.078l-5.148-7.794v7.794h-3.078v-12.636h3.078l5.148 7.83v-7.83h3.078zm1.709-6.336c0-1.248.27-2.358.81-3.33.54-.984 1.29-1.746 2.25-2.286.972-.552 2.07-.828 3.294-.828 1.5 0 2.784.396 3.852 1.188s1.782 1.872 2.142 3.24h-3.384c-.252-.528-.612-.93-1.08-1.206-.456-.276-.978-.414-1.566-.414-.948 0-1.716.33-2.304.99s-.882 1.542-.882 2.646.294 1.986.882 2.646 1.356.99 2.304.99c.588 0 1.11-.138 1.566-.414.468-.276.828-.678 1.08-1.206h3.384c-.36 1.368-1.074 2.448-2.142 3.24-1.068.78-2.352 1.17-3.852 1.17-1.224 0-2.322-.27-3.294-.81-.96-.552-1.71-1.314-2.25-2.286s-.81-2.082-.81-3.33zm25.069-6.3-4.374 8.46v4.176h-3.078v-4.176l-4.374-8.46h3.492l2.448 5.292 2.43-5.292z" fill="#18465e"/><rect fill="#ffd647" height="137" rx="8.5" width="223" x="675" y="493.5"/><rect height="137" rx="8.5" stroke="#18465e" stroke-width="3" width="223" x="675" y="493.5"/><rect fill="#fff" height="48" rx="5" width="60" x="730" y="538"/><path d="m788.954 581.409v.001c0 1.987-1.605 3.59-3.642 3.59h-50.67c-2.037 0-3.642-1.603-3.642-3.59v-31.41h57.999z" fill="#edf8ee" stroke="#18465e" stroke-width="2"/><path d="m788.954 542.595v-.005c0-1.987-1.605-3.59-3.642-3.59h-50.67c-2.037 0-3.642 1.603-3.642 3.59v7.41h57.994z" stroke="#18465e" stroke-width="2"/><ellipse cx="738.13599" cy="544.5" fill="#18465e" rx="1.52542" ry="1.5"/><ellipse cx="744.237" cy="544.5" fill="#18465e" rx="1.52542" ry="1.5"/><ellipse cx="750.33899" cy="544.5" fill="#18465e" rx="1.52542" ry="1.5"/><path d="m788.954 581.409v.001c0 1.987-1.605 3.59-3.642 3.59h-50.67c-2.037 0-3.642-1.603-3.642-3.59v-31.41h57.999z" fill="#65c3cb" fill-opacity=".4" opacity=".5" stroke="#18465e" stroke-width="2"/><path d="m748 574.177 12.134 6.726 12.134-6.726v-13.451l-12.134-6.726-12.134 6.726z" fill="#469ea2"/><path d="m758.892 555.609-8.812 4.881c.015.152.015.306 0 .458l8.797 4.881c.362-.257.8-.395 1.25-.395s.888.138 1.249.395l8.798-4.881c-.015-.152-.015-.306 0-.458l-8.783-4.881c-.362.257-.8.395-1.25.395-.449 0-.887-.138-1.249-.395zm12.134 6.684-8.812 4.937c.048.428-.046.86-.269 1.233-.224.374-.564.67-.973.847l.014 9.707c.143.061.278.135.405.222l8.797-4.881c-.048-.428.047-.86.27-1.234.223-.373.563-.67.972-.846v-9.763c-.141-.063-.276-.138-.404-.222zm-21.784.055c-.126.088-.262.162-.404.222v9.763c.414.171.759.466.983.841s.315.81.259 1.239l8.797 4.882c.127-.088.262-.162.405-.222v-9.763c-.414-.171-.759-.466-.983-.841s-.315-.81-.259-1.239z" fill="#6acad1"/><path d="m760.134 555.456 10.848 6.019v12.023l-10.848 6.018-10.848-6.018v-12.037zm0-1.428-12.134 6.726v13.451l12.134 6.726 12.134-6.726v-13.451z" fill="#469ea2"/><path d="m760.221 569.74h-.174c-.298 0-.593-.055-.868-.165-.276-.109-.526-.269-.737-.471-.211-.203-.378-.443-.491-.708-.114-.264-.172-.547-.172-.834v-.166c-.001-.431.132-.852.381-1.211.249-.358.604-.638 1.019-.802.275-.109.57-.165.868-.164h.174c.298-.001.593.055.869.164.275.109.525.27.736.472s.378.443.492.707c.113.265.171.548.171.834v.166c.001.431-.132.853-.381 1.211-.249.359-.603.638-1.018.802-.276.11-.571.165-.869.165zm0 8.944h-.174c-.403-.001-.798.101-1.146.296s-.636.476-.833.814l2.066 1.137 2.066-1.137c-.197-.338-.485-.618-.833-.814-.348-.195-.743-.297-1.146-.296zm12.062-6.726h-.087c-.449-.001-.888.127-1.261.366-.374.239-.665.579-.836.978-.114.264-.172.548-.171.834v.166c-.002.37.098.733.289 1.054l2.066-1.151zm-2.066-12.342c-.19.322-.289.685-.289 1.054v.167c-.001.286.057.569.171.834.114.264.281.504.491.707.211.202.462.362.737.472.276.109.571.165.869.164h.087v-2.26zm-10.083-5.588-2.066 1.137c.196.339.483.622.831.82.348.197.744.302 1.148.303h.174c.403.001.799-.101 1.146-.296.348-.195.636-.476.833-.813zm-10.068 5.575-2.066 1.151v2.26h.087c.298.001.593-.055.868-.164.276-.11.526-.27.737-.472s.378-.443.492-.707c.113-.265.171-.548.171-.834v-.167c-.005-.373-.105-.739-.289-1.067zm-1.979 12.355h-.087v2.247l2.066 1.151c.19-.321.289-.685.289-1.054v-.166c.001-.431-.132-.853-.381-1.211-.249-.359-.604-.638-1.019-.802-.275-.109-.57-.165-.868-.165z" fill="#469ea2"/><path d="m760.134 581v-13.465l-12.134-6.726v13.465z" fill="#083b54" fill-opacity=".15"/><path d="m772.282 574.149v-13.451l-12.134 6.725v13.466z" fill="#083b54" fill-opacity=".05"/><path d="m809.465 555.864v12.636h-3.078v-12.636zm11.865 4.068c0 .732-.17 1.404-.51 2.016-.33.6-.85 1.086-1.55 1.458-.69.372-1.56.558-2.59.558h-1.91v4.536h-3.07v-12.636h4.98c1.01 0 1.86.174 2.56.522.69.348 1.22.828 1.56 1.44.35.612.53 1.314.53 2.106zm-4.88 1.584c.59 0 1.02-.138 1.31-.414s.43-.666.43-1.17-.14-.894-.43-1.17-.72-.414-1.31-.414h-1.68v3.168zm14.7-5.652v2.466h-5.14v2.664h3.85v2.394h-3.85v5.112h-3.08v-12.636zm6.19 12.762c-.92 0-1.75-.15-2.48-.45s-1.32-.744-1.76-1.332-.66-1.296-.69-2.124h3.28c.05.468.21.828.48 1.08.28.24.64.36 1.08.36.46 0 .82-.102 1.08-.306.27-.216.4-.51.4-.882 0-.312-.11-.57-.32-.774s-.47-.372-.78-.504c-.3-.132-.73-.282-1.29-.45-.82-.252-1.49-.504-2-.756-.52-.252-.96-.624-1.33-1.116-.38-.492-.56-1.134-.56-1.926 0-1.176.42-2.094 1.28-2.754.85-.672 1.96-1.008 3.33-1.008 1.39 0 2.51.336 3.36 1.008.85.66 1.31 1.584 1.37 2.772h-3.33c-.02-.408-.17-.726-.45-.954-.28-.24-.63-.36-1.06-.36-.37 0-.67.102-.9.306-.23.192-.34.474-.34.846 0 .408.19.726.57.954.39.228.99.474 1.8.738.82.276 1.48.54 1.98.792.52.252.96.618 1.33 1.098.38.48.56 1.098.56 1.854 0 .72-.18 1.374-.56 1.962-.36.588-.88 1.056-1.58 1.404s-1.52.522-2.47.522z" fill="#18465e"/></svg>