<svg xmlns="http://www.w3.org/2000/svg" id="svg55" fill="none" version="1.1" viewBox="0 0 1200 596">
  <rect id="rect1" width="358" height="137" x="302" y="1.5" fill="#9a4a94" rx="8.5" ry="8.5"/>
  <rect id="rect2" width="358" height="137" x="302" y="1.5" stroke="#bc86b7" stroke-width="3" rx="8.5" ry="8.5"/>
  <path id="path2" fill="#fff" stroke="#242527" stroke-linejoin="round" stroke-width="2" d="M399.845 41c3.026 0 5.503 2.441 5.503 5.461v31.36l.001.014v7.355c0 .053-.006.105-.014.156-.161 2.586-2.324 4.62-4.954 4.62h-18.893c.123.387.32.833.645 1.276.698.953 2.066 2.022 4.85 2.368l.097.017c.074.017.145.042.212.074a2.711 2.711 0 0 1 2.005 2.611 2.718 2.718 0 0 1-2.726 2.71H360.11a2.718 2.718 0 0 1-2.726-2.71c0-1.336.969-2.434 2.234-2.664a1.11 1.11 0 0 1 .175-.038l.506-.073c2.446-.406 3.689-1.402 4.343-2.295.325-.443.522-.889.645-1.276h-18.892c-2.641 0-4.81-2.051-4.956-4.652a1.006 1.006 0 0 1-.008-.124v-.068l-.001-.014-.001-.071v-.328l.001-.071.001-.014v-5.941l-.001-.023V46.461c0-3.021 2.476-5.461 5.502-5.461z"/>
  <path id="path3" fill="#9a4a94" fill-rule="evenodd" d="M404.347 46.461v32.113l.002-.002v6.683h-.006c-.081 2.098-1.824 3.775-3.962 3.775h-20.088c.035.882.531 4.885 6.567 5.637h-.289c.953 0 1.726.765 1.726 1.71 0 .944-.773 1.71-1.726 1.71H360.11a1.718 1.718 0 0 1-1.726-1.71c0-.945.773-1.71 1.726-1.71h-.194c6.036-.752 6.531-4.755 6.567-5.637h-20.088c-2.138 0-3.881-1.677-3.962-3.775h-.002v-.084l-.001-.022-.001-.048v-.328l.001-.046.001-.024V79.41l-.001-.027-.001-.028V46.461c0-2.46 2.021-4.461 4.503-4.461h52.913c2.483 0 4.502 2.001 4.502 4.461zm-3.822 37.907c.435 0 1.468-1.024 1.468-1.455V45.787c0-.43-1.034-1.454-1.469-1.454h-54.272c-.435 0-1.468 1.024-1.468 1.454v37.126c0 .431 1.033 1.455 1.468 1.455zM375.4 87.334a.934.934 0 0 0 .824-.501.971.971 0 0 0 0-.913.934.934 0 0 0-.824-.501h-3.486a.923.923 0 0 0-.795.453.962.962 0 0 0-.142.505c0 .529.419.957.937.957z" clip-rule="evenodd" opacity=".2"/>
  <path id="path4" fill="#242527" d="m379.739 58.424.003-.207c0-3.257-2.437-5.897-5.897-5.897-3.461 0-6.266 2.64-6.266 5.897 0 .148.006.304.017.469.001.359.041.722.133 1.081.018.108.038.218.06.329l-.054-.001c-.479 0-.971.374-.445 2.239.411 1.454.793 1.862 1.082 1.885.162 1.051.527 2.275 1.313 3.295-.067.424-.199 1.017-.45 1.429l-.014.008c-.179.114-2.047 1.303-4.987 2.021-.166.041-.32.535-.463.995-.119.379-.23.735-.334.796 2.33 3.434 5.549 4.219 10.04 4.219 4.49 0 7.71-.785 10.039-4.219-.104-.061-.215-.417-.333-.796-.144-.46-.298-.954-.463-.995-3.09-.754-4.916-1.903-4.916-1.903-.321-.424-.474-1.141-.544-1.611.697-.933 1.051-2.029 1.225-3.005a.383.383 0 0 0 .216.072c.292 0 .685-.387 1.108-1.886.438-1.551.172-2.07-.206-2.202a6.807 6.807 0 0 0 .136-2.013z"/>
  <path id="rect4" fill="#9a4a94" d="M346.114 45.686h54.548V83.28h-54.548z" opacity=".5"/>
  <path id="path5" fill="#fff" d="M421.179 69.664c0-1.248.27-2.358.81-3.33a5.73 5.73 0 0 1 2.25-2.286c.972-.552 2.07-.828 3.294-.828 1.5 0 2.784.396 3.852 1.188 1.068.792 1.782 1.872 2.142 3.24h-3.384a2.716 2.716 0 0 0-1.08-1.206c-.456-.276-.978-.414-1.566-.414-.948 0-1.716.33-2.304.99-.588.66-.882 1.542-.882 2.646 0 1.104.294 1.986.882 2.646.588.66 1.356.99 2.304.99.588 0 1.11-.138 1.566-.414a2.716 2.716 0 0 0 1.08-1.206h3.384c-.36 1.368-1.074 2.448-2.142 3.24-1.068.78-2.352 1.17-3.852 1.17-1.224 0-2.322-.27-3.294-.81a5.885 5.885 0 0 1-2.25-2.286c-.54-.972-.81-2.082-.81-3.33zm24.151-3.708V76h-3.078v-1.368c-.312.444-.738.804-1.278 1.08a3.889 3.889 0 0 1-1.764.396c-.768 0-1.446-.168-2.034-.504a3.516 3.516 0 0 1-1.368-1.494c-.324-.648-.486-1.41-.486-2.286v-5.868h3.06v5.454c0 .672.174 1.194.522 1.566.348.372.816.558 1.404.558.6 0 1.074-.186 1.422-.558.348-.372.522-.894.522-1.566v-5.454zm6.297 10.188c-.876 0-1.656-.15-2.34-.45-.684-.3-1.224-.708-1.62-1.224a3.29 3.29 0 0 1-.666-1.764h3.042c.036.348.198.63.486.846.288.216.642.324 1.062.324.384 0 .678-.072.882-.216.216-.156.324-.354.324-.594 0-.288-.15-.498-.45-.63-.3-.144-.786-.3-1.458-.468-.72-.168-1.32-.342-1.8-.522a3.232 3.232 0 0 1-1.242-.882c-.348-.408-.522-.954-.522-1.638 0-.576.156-1.098.468-1.566.324-.48.792-.858 1.404-1.134.624-.276 1.362-.414 2.214-.414 1.26 0 2.25.312 2.97.936.732.624 1.152 1.452 1.26 2.484h-2.844a1.213 1.213 0 0 0-.468-.828c-.252-.204-.588-.306-1.008-.306-.36 0-.636.072-.828.216a.638.638 0 0 0-.288.558c0 .288.15.504.45.648.312.144.792.288 1.44.432.744.192 1.35.384 1.818.576.468.18.876.48 1.224.9.36.408.546.96.558 1.656a2.65 2.65 0 0 1-.504 1.584c-.324.456-.798.816-1.422 1.08-.612.264-1.326.396-2.142.396zm11.549-2.754V76h-1.566c-1.116 0-1.986-.27-2.61-.81-.624-.552-.936-1.446-.936-2.682v-3.996h-1.224v-2.556h1.224v-2.448h3.078v2.448h2.016v2.556h-2.016v4.032c0 .3.072.516.216.648.144.132.384.198.72.198zm6.286 2.754c-.984 0-1.872-.21-2.664-.63a4.69 4.69 0 0 1-1.854-1.8c-.444-.78-.666-1.692-.666-2.736 0-1.032.228-1.938.684-2.718a4.625 4.625 0 0 1 1.872-1.818c.792-.42 1.68-.63 2.664-.63.984 0 1.872.21 2.664.63a4.625 4.625 0 0 1 1.872 1.818c.456.78.684 1.686.684 2.718s-.234 1.944-.702 2.736a4.629 4.629 0 0 1-1.89 1.8c-.792.42-1.68.63-2.664.63zm0-2.664c.588 0 1.086-.216 1.494-.648.42-.432.63-1.05.63-1.854s-.204-1.422-.612-1.854a1.92 1.92 0 0 0-1.476-.648c-.6 0-1.098.216-1.494.648-.396.42-.594 1.038-.594 1.854 0 .804.192 1.422.576 1.854a1.92 1.92 0 0 0 1.476.648zm19.705-7.632c1.248 0 2.238.378 2.97 1.134.744.756 1.116 1.806 1.116 3.15V76h-3.06v-5.454c0-.648-.174-1.146-.522-1.494-.336-.36-.804-.54-1.404-.54-.6 0-1.074.18-1.422.54-.336.348-.504.846-.504 1.494V76h-3.06v-5.454c0-.648-.174-1.146-.522-1.494-.336-.36-.804-.54-1.404-.54-.6 0-1.074.18-1.422.54-.336.348-.504.846-.504 1.494V76h-3.078V65.956h3.078v1.26c.312-.42.72-.75 1.224-.99.504-.252 1.074-.378 1.71-.378.756 0 1.428.162 2.016.486.6.324 1.068.786 1.404 1.386a4.046 4.046 0 0 1 1.422-1.35 3.842 3.842 0 0 1 1.962-.522zm18.279-2.484v2.466h-5.148v2.664h3.852v2.394h-3.852V76h-3.078V63.364Zm4.696 4.266c.36-.552.81-.984 1.35-1.296a3.432 3.432 0 0 1 1.8-.486v3.258h-.846c-.768 0-1.344.168-1.728.504-.384.324-.576.9-.576 1.728V76h-3.078V65.956h3.078zm9.193 8.514c-.984 0-1.872-.21-2.664-.63a4.69 4.69 0 0 1-1.854-1.8c-.444-.78-.666-1.692-.666-2.736 0-1.032.228-1.938.684-2.718a4.625 4.625 0 0 1 1.872-1.818c.792-.42 1.68-.63 2.664-.63.984 0 1.872.21 2.664.63a4.625 4.625 0 0 1 1.872 1.818c.456.78.684 1.686.684 2.718s-.234 1.944-.702 2.736a4.629 4.629 0 0 1-1.89 1.8c-.792.42-1.68.63-2.664.63zm0-2.664c.588 0 1.086-.216 1.494-.648.42-.432.63-1.05.63-1.854s-.204-1.422-.612-1.854a1.92 1.92 0 0 0-1.476-.648c-.6 0-1.098.216-1.494.648-.396.42-.594 1.038-.594 1.854 0 .804.192 1.422.576 1.854a1.92 1.92 0 0 0 1.476.648zm13.009-7.632c1.176 0 2.112.384 2.808 1.152.708.756 1.062 1.8 1.062 3.132V76h-3.06v-5.454c0-.672-.174-1.194-.522-1.566-.348-.372-.816-.558-1.404-.558s-1.056.186-1.404.558c-.348.372-.522.894-.522 1.566V76h-3.078V65.956h3.078v1.332a3.177 3.177 0 0 1 1.26-1.044c.528-.264 1.122-.396 1.782-.396zm11.607 7.542V76h-1.566c-1.116 0-1.986-.27-2.61-.81-.624-.552-.936-1.446-.936-2.682v-3.996h-1.224v-2.556h1.224v-2.448h3.078v2.448h2.016v2.556h-2.016v4.032c0 .3.072.516.216.648.144.132.384.198.72.198zm11.183-2.574c0 .288-.018.588-.054.9h-6.966c.048.624.246 1.104.594 1.44.36.324.798.486 1.314.486.768 0 1.302-.324 1.602-.972h3.276a4.437 4.437 0 0 1-.918 1.782 4.468 4.468 0 0 1-1.638 1.242c-.66.3-1.398.45-2.214.45-.984 0-1.86-.21-2.628-.63a4.481 4.481 0 0 1-1.8-1.8c-.432-.78-.648-1.692-.648-2.736 0-1.044.21-1.956.63-2.736a4.481 4.481 0 0 1 1.8-1.8c.768-.42 1.65-.63 2.646-.63.972 0 1.836.204 2.592.612.756.408 1.344.99 1.764 1.746.432.756.648 1.638.648 2.646zm-3.15-.81c0-.528-.18-.948-.54-1.26-.36-.312-.81-.468-1.35-.468-.516 0-.954.15-1.314.45-.348.3-.564.726-.648 1.278zm4.162.954c0-1.032.192-1.938.576-2.718.396-.78.93-1.38 1.602-1.8a4.159 4.159 0 0 1 2.25-.63c.66 0 1.26.138 1.8.414.552.276.984.648 1.296 1.116V62.68h3.078V76h-3.078v-1.44c-.288.48-.702.864-1.242 1.152-.528.288-1.146.432-1.854.432-.828 0-1.578-.21-2.25-.63-.672-.432-1.206-1.038-1.602-1.818-.384-.792-.576-1.704-.576-2.736zm7.524.018c0-.768-.216-1.374-.648-1.818a2.048 2.048 0 0 0-1.548-.666c-.612 0-1.134.222-1.566.666-.42.432-.63 1.032-.63 1.8s.21 1.38.63 1.836c.432.444.954.666 1.566.666.612 0 1.128-.222 1.548-.666.432-.444.648-1.05.648-1.818zm16.985 2.79h-4.716L577.183 76h-3.222l4.572-12.636h3.564L586.669 76h-3.258zm-.792-2.376-1.566-4.626-1.548 4.626zm9.275-4.014c.3-.468.714-.846 1.242-1.134.528-.288 1.146-.432 1.854-.432.828 0 1.578.21 2.25.63.672.42 1.2 1.02 1.584 1.8.396.78.594 1.686.594 2.718s-.198 1.944-.594 2.736c-.384.78-.912 1.386-1.584 1.818-.672.42-1.422.63-2.25.63-.696 0-1.314-.144-1.854-.432a3.4 3.4 0 0 1-1.242-1.116v6.192h-3.078V65.956h3.078zm4.392 3.582c0-.768-.216-1.368-.648-1.8a2.068 2.068 0 0 0-1.566-.666c-.612 0-1.134.222-1.566.666-.42.444-.63 1.05-.63 1.818s.21 1.374.63 1.818c.432.444.954.666 1.566.666.612 0 1.134-.222 1.566-.666.432-.456.648-1.068.648-1.836zm7.825-3.582c.3-.468.714-.846 1.242-1.134.528-.288 1.146-.432 1.854-.432.828 0 1.578.21 2.25.63.672.42 1.2 1.02 1.584 1.8.396.78.594 1.686.594 2.718s-.198 1.944-.594 2.736c-.384.78-.912 1.386-1.584 1.818-.672.42-1.422.63-2.25.63-.696 0-1.314-.144-1.854-.432a3.4 3.4 0 0 1-1.242-1.116v6.192h-3.078V65.956h3.078zm4.392 3.582c0-.768-.216-1.368-.648-1.8a2.068 2.068 0 0 0-1.566-.666c-.612 0-1.134.222-1.566.666-.42.444-.63 1.05-.63 1.818s.21 1.374.63 1.818c.432.444.954.666 1.566.666.612 0 1.134-.222 1.566-.666.432-.456.648-1.068.648-1.836zm8.833 5.184c-.876 0-1.656-.15-2.34-.45-.684-.3-1.224-.708-1.62-1.224a3.29 3.29 0 0 1-.666-1.764h3.042c.036.348.198.63.486.846.288.216.642.324 1.062.324.384 0 .678-.072.882-.216.216-.156.324-.354.324-.594 0-.288-.15-.498-.45-.63-.3-.144-.786-.3-1.458-.468-.72-.168-1.32-.342-1.8-.522a3.232 3.232 0 0 1-1.242-.882c-.348-.408-.522-.954-.522-1.638 0-.576.156-1.098.468-1.566.324-.48.792-.858 1.404-1.134.624-.276 1.362-.414 2.214-.414 1.26 0 2.25.312 2.97.936.732.624 1.152 1.452 1.26 2.484h-2.844a1.213 1.213 0 0 0-.468-.828c-.252-.204-.588-.306-1.008-.306-.36 0-.636.072-.828.216a.638.638 0 0 0-.288.558c0 .288.15.504.45.648.312.144.792.288 1.44.432.744.192 1.35.384 1.818.576.468.18.876.48 1.224.9.36.408.546.96.558 1.656a2.65 2.65 0 0 1-.504 1.584c-.324.456-.798.816-1.422 1.08-.612.264-1.326.396-2.142.396z"/>
  <rect id="rect5" width="223" height="137" x="675" y="1.5" fill="url(#paint0_linear_1621_2625)" rx="8.5" ry="8.5"/>
  <rect id="rect6" width="223" height="137" x="675" y="1.5" stroke="url(#paint1_linear_1621_2625)" stroke-width="3" rx="8.5" ry="8.5"/>
  <rect id="rect7" width="69" height="63.48" x="690.5" y="38.26" fill="#fcf3e4" rx="6.9" ry="6.9"/>
  <path id="path7" fill="#790e70" d="M753.575 38.26h-57.147c-3.272 0-5.928 2.687-5.928 5.999v51.482c0 3.315 2.656 5.999 5.928 5.999h57.144c3.276 0 5.928-2.687 5.928-5.999V44.259c0-3.315-2.656-5.999-5.928-5.999zm-2.077 12.362-38.3 19.38h24.353a3.145 3.145 0 0 1 3.053 2.444 3.187 3.187 0 0 1-1.648 3.569L701.318 95.06a3.11 3.11 0 0 1-3.053-.137 3.189 3.189 0 0 1-1.488-2.702V47.783c0-1.753 1.404-3.175 3.136-3.175h50.184a3.146 3.146 0 0 1 3.053 2.444 3.19 3.19 0 0 1-1.648 3.57z"/>
  <path id="path8" fill="#fff" d="M781.12 63.626c-.924 0-1.752-.15-2.484-.45-.732-.3-1.32-.744-1.764-1.332-.432-.588-.66-1.296-.684-2.124h3.276c.048.468.21.828.486 1.08.276.24.636.36 1.08.36.456 0 .816-.102 1.08-.306.264-.216.396-.51.396-.882 0-.312-.108-.57-.324-.774a2.403 2.403 0 0 0-.774-.504c-.3-.132-.732-.282-1.296-.45-.816-.252-1.482-.504-1.998-.756a3.692 3.692 0 0 1-1.332-1.116c-.372-.492-.558-1.134-.558-1.926 0-1.176.426-2.094 1.278-2.754.852-.672 1.962-1.008 3.33-1.008 1.392 0 2.514.336 3.366 1.008.852.66 1.308 1.584 1.368 2.772h-3.33c-.024-.408-.174-.726-.45-.954-.276-.24-.63-.36-1.062-.36-.372 0-.672.102-.9.306-.228.192-.342.474-.342.846 0 .408.192.726.576.954.384.228.984.474 1.8.738.816.276 1.476.54 1.98.792.516.252.96.618 1.332 1.098.372.48.558 1.098.558 1.854 0 .72-.186 1.374-.558 1.962-.36.588-.888 1.056-1.584 1.404-.696.348-1.518.522-2.466.522zm8.05-11.214c-.54 0-.984-.156-1.332-.468a1.587 1.587 0 0 1-.504-1.188c0-.48.168-.876.504-1.188.348-.324.792-.486 1.332-.486.528 0 .96.162 1.296.486.348.312.522.708.522 1.188 0 .468-.174.864-.522 1.188-.336.312-.768.468-1.296.468zm1.53 1.044V63.5h-3.078V53.456Zm6.046-.144c.708 0 1.326.144 1.854.432.54.288.954.666 1.242 1.134v-1.422h3.078v10.026c0 .924-.186 1.758-.558 2.502-.36.756-.918 1.356-1.674 1.8-.744.444-1.674.666-2.79.666-1.488 0-2.694-.354-3.618-1.062-.924-.696-1.452-1.644-1.584-2.844h3.042c.096.384.324.684.684.9.36.228.804.342 1.332.342.636 0 1.14-.186 1.512-.558.384-.36.576-.942.576-1.746V62.06c-.3.468-.714.852-1.242 1.152-.528.288-1.146.432-1.854.432-.828 0-1.578-.21-2.25-.63-.672-.432-1.206-1.038-1.602-1.818-.384-.792-.576-1.704-.576-2.736 0-1.032.192-1.938.576-2.718.396-.78.93-1.38 1.602-1.8a4.159 4.159 0 0 1 2.25-.63zm3.096 5.166c0-.768-.216-1.374-.648-1.818a2.048 2.048 0 0 0-1.548-.666c-.612 0-1.134.222-1.566.666-.42.432-.63 1.032-.63 1.8s.21 1.38.63 1.836c.432.444.954.666 1.566.666.612 0 1.128-.222 1.548-.666.432-.444.648-1.05.648-1.818zm11.428-5.13c1.17 0 2.11.384 2.81 1.152.7.756 1.06 1.8 1.06 3.132V63.5h-3.06v-5.454c0-.672-.18-1.194-.52-1.566-.35-.372-.82-.558-1.41-.558s-1.055.186-1.403.558c-.348.372-.522.894-.522 1.566V63.5h-3.078V53.456h3.078v1.332a3.177 3.177 0 0 1 1.26-1.044c.525-.264 1.125-.396 1.785-.396zm11.37-.936c-.54 0-.99-.156-1.33-.468-.34-.324-.51-.72-.51-1.188 0-.48.17-.876.51-1.188.34-.324.79-.486 1.33-.486.53 0 .96.162 1.29.486.35.312.53.708.53 1.188 0 .468-.18.864-.53 1.188-.33.312-.76.468-1.29.468zm1.53 1.044V63.5h-3.08V53.456Zm8.35-.108c1.18 0 2.11.384 2.81 1.152.71.756 1.06 1.8 1.06 3.132V63.5h-3.06v-5.454c0-.672-.17-1.194-.52-1.566-.35-.372-.82-.558-1.41-.558-.58 0-1.05.186-1.4.558-.35.372-.52.894-.52 1.566V63.5h-3.08V53.456h3.08v1.332a3.15 3.15 0 0 1 1.26-1.044c.53-.264 1.12-.396 1.78-.396zm24.24.108L854.04 63.5h-3.4l-1.58-6.516-1.64 6.516h-3.39l-2.73-10.044h3.08l1.42 7.182 1.69-7.182h3.26l1.71 7.146 1.4-7.146zm2.72-1.044c-.54 0-.98-.156-1.33-.468-.34-.324-.5-.72-.5-1.188 0-.48.16-.876.5-1.188.35-.324.79-.486 1.33-.486.53 0 .96.162 1.3.486.35.312.52.708.52 1.188 0 .468-.17.864-.52 1.188-.34.312-.77.468-1.3.468zm1.53 1.044V63.5h-3.08V53.456Zm7.83 7.434v2.61h-1.57c-1.11 0-1.98-.27-2.61-.81-.62-.552-.93-1.446-.93-2.682v-3.996h-1.23v-2.556h1.23v-2.448h3.08v2.448h2.01v2.556h-2.01v4.032c0 .3.07.516.21.648.15.132.39.198.72.198zm7.89-7.542c1.15 0 2.08.384 2.77 1.152.7.756 1.05 1.8 1.05 3.132V63.5h-3.06v-5.454c0-.672-.18-1.194-.53-1.566-.34-.372-.81-.558-1.4-.558-.59 0-1.06.186-1.4.558-.35.372-.53.894-.53 1.566V63.5h-3.07V50.18h3.07v4.626c.32-.444.74-.798 1.28-1.062s1.15-.396 1.82-.396zm-92.519 22.516v2.466h-5.148v2.664h3.852v2.394h-3.852V88.5h-3.078V75.864Zm8.062 12.636-2.628-4.77h-.738v4.77h-3.078V75.864h5.166c.996 0 1.842.174 2.538.522.708.348 1.236.828 1.584 1.44.348.6.522 1.272.522 2.016 0 .84-.24 1.59-.72 2.25-.468.66-1.164 1.128-2.088 1.404l2.916 5.004zm-3.366-6.948h1.908c.564 0 .984-.138 1.26-.414.288-.276.432-.666.432-1.17 0-.48-.144-.858-.432-1.134-.276-.276-.696-.414-1.26-.414h-1.908zm11.742-3.222v2.556h4.122v2.376h-4.122v2.772h4.662V88.5h-7.74V75.864h7.74v2.466zm15.661 12.33-1.62-2.178c-.48.096-.95.144-1.4.144-1.19 0-2.28-.276-3.28-.828a6.29 6.29 0 0 1-2.359-2.304c-.576-.996-.864-2.112-.864-3.348 0-1.236.288-2.346.864-3.33a6.29 6.29 0 0 1 2.359-2.304c1-.552 2.09-.828 3.28-.828 1.18 0 2.27.276 3.25.828 1 .552 1.78 1.32 2.34 2.304.58.984.87 2.094.87 3.33 0 1.08-.22 2.07-.67 2.97a6.027 6.027 0 0 1-1.82 2.214l2.78 3.33zm-6.37-8.514c0 1.116.3 2.01.9 2.682.61.66 1.43.99 2.45.99 1 0 1.81-.336 2.41-1.008.61-.672.92-1.56.92-2.664 0-1.116-.31-2.004-.92-2.664-.6-.672-1.41-1.008-2.41-1.008-1.02 0-1.84.33-2.45.99-.6.66-.9 1.554-.9 2.682zm14.58-6.282v7.56c0 .756.18 1.338.56 1.746.37.408.91.612 1.63.612.72 0 1.28-.204 1.66-.612.38-.408.58-.99.58-1.746v-7.56h3.07v7.542c0 1.128-.24 2.082-.72 2.862a4.565 4.565 0 0 1-1.94 1.764c-.8.396-1.7.594-2.7.594-1 0-1.89-.192-2.68-.576a4.484 4.484 0 0 1-1.86-1.764c-.45-.792-.68-1.752-.68-2.88v-7.542zm12.74 2.466v2.556h4.13v2.376h-4.13v2.772h4.67V88.5h-7.74V75.864h7.74v2.466zm17.97 10.17h-3.08L847 80.706V88.5h-3.08V75.864H847l5.15 7.83v-7.83h3.08zm1.71-6.336c0-1.248.27-2.358.81-3.33a5.73 5.73 0 0 1 2.25-2.286c.97-.552 2.07-.828 3.29-.828 1.5 0 2.79.396 3.85 1.188 1.07.792 1.79 1.872 2.15 3.24h-3.39c-.25-.528-.61-.93-1.08-1.206-.45-.276-.98-.414-1.56-.414-.95 0-1.72.33-2.31.99-.59.66-.88 1.542-.88 2.646 0 1.104.29 1.986.88 2.646.59.66 1.36.99 2.31.99.58 0 1.11-.138 1.56-.414.47-.276.83-.678 1.08-1.206h3.39c-.36 1.368-1.08 2.448-2.15 3.24-1.06.78-2.35 1.17-3.85 1.17-1.22 0-2.32-.27-3.29-.81a5.885 5.885 0 0 1-2.25-2.286c-.54-.972-.81-2.082-.81-3.33zm25.07-6.3-4.38 8.46V88.5h-3.08v-4.176l-4.37-8.46h3.49l2.45 5.292 2.43-5.292z"/>
  <rect id="rect8" width="596" height="137" x="302" y="153.5" fill="#ff9a02" rx="8.5" ry="8.5"/>
  <rect id="rect9" width="596" height="137" x="302" y="153.5" stroke="url(#paint2_linear_1621_2625)" stroke-width="3" rx="8.5" ry="8.5"/>
  <rect id="rect10" width="60" height="48" x="441.5" y="198" fill="#fff" rx="5" ry="5"/>
  <path id="path10" fill="#fff" stroke="#242527" stroke-width="2" d="m500.499 210-.045 31.409v.001c0 1.987-1.605 3.59-3.642 3.59h-50.67c-2.037 0-3.642-1.603-3.642-3.59V210Z"/>
  <path id="path11" fill="#f99a2a" stroke="#242527" stroke-width="2" d="m500.494 210-.04-7.405v-.005c0-1.987-1.605-3.59-3.642-3.59h-50.67c-2.037 0-3.642 1.603-3.642 3.59V210Z"/>
  <ellipse id="ellipse11" cx="449.636" cy="204.5" fill="#242527" rx="1.525" ry="1.5"/>
  <ellipse id="ellipse12" cx="455.737" cy="204.5" fill="#242527" rx="1.525" ry="1.5"/>
  <ellipse id="ellipse13" cx="461.839" cy="204.5" fill="#242527" rx="1.525" ry="1.5"/>
  <path id="path13" fill="#242527" d="m484.621 226.494-5.799 4.779c-.55.439-.6 1.22-.15 1.707a1.243 1.243 0 0 0 1.75.147l6.899-5.706c.3-.244.45-.586.45-.927 0-.341-.15-.683-.45-.927l-6.899-5.706c-.5-.439-1.3-.39-1.75.147-.45.487-.4 1.268.15 1.707z"/>
  <path id="path14" fill="#242527" d="M455.229 226.494c0 .341.15.683.45.927l6.899 5.706a1.243 1.243 0 0 0 1.75-.147c.45-.487.4-1.268-.15-1.707l-5.799-4.779 5.799-4.779c.55-.439.6-1.171.15-1.707-.45-.537-1.2-.586-1.75-.147l-6.899 5.706c-.3.244-.45.586-.45.927z"/>
  <path id="path15" fill="#242527" d="m473.25 217.768-5.85 16.525c-.25.634.05 1.317.7 1.609.15.049.3.098.45.098.5 0 .95-.293 1.15-.78l5.9-16.525c.25-.634-.05-1.366-.7-1.609-.65-.244-1.4.048-1.65.682z"/>
  <path id="path16" fill="#f99a2a" stroke="#242527" stroke-width="2" d="m500.499 210-.045 31.409v.001c0 1.987-1.605 3.59-3.642 3.59h-50.67c-2.037 0-3.642-1.603-3.642-3.59V210Z" opacity=".5"/>
  <path id="path17" fill="#242527" d="M517.42 222.164c0-1.248.27-2.358.81-3.33a5.73 5.73 0 0 1 2.25-2.286c.972-.552 2.07-.828 3.294-.828 1.5 0 2.784.396 3.852 1.188 1.068.792 1.782 1.872 2.142 3.24h-3.384a2.716 2.716 0 0 0-1.08-1.206c-.456-.276-.978-.414-1.566-.414-.948 0-1.716.33-2.304.99-.588.66-.882 1.542-.882 2.646 0 1.104.294 1.986.882 2.646.588.66 1.356.99 2.304.99.588 0 1.11-.138 1.566-.414a2.716 2.716 0 0 0 1.08-1.206h3.384c-.36 1.368-1.074 2.448-2.142 3.24-1.068.78-2.352 1.17-3.852 1.17-1.224 0-2.322-.27-3.294-.81a5.885 5.885 0 0 1-2.25-2.286c-.54-.972-.81-2.082-.81-3.33zm24.151-3.708V228.5h-3.078v-1.368c-.312.444-.738.804-1.278 1.08a3.889 3.889 0 0 1-1.764.396c-.768 0-1.446-.168-2.034-.504a3.516 3.516 0 0 1-1.368-1.494c-.324-.648-.486-1.41-.486-2.286v-5.868h3.06v5.454c0 .672.174 1.194.522 1.566.348.372.816.558 1.404.558.6 0 1.074-.186 1.422-.558.348-.372.522-.894.522-1.566v-5.454zm6.297 10.188c-.876 0-1.656-.15-2.34-.45-.684-.3-1.224-.708-1.62-1.224a3.29 3.29 0 0 1-.666-1.764h3.042c.036.348.198.63.486.846.288.216.642.324 1.062.324.384 0 .678-.072.882-.216.216-.156.324-.354.324-.594 0-.288-.15-.498-.45-.63-.3-.144-.786-.3-1.458-.468-.72-.168-1.32-.342-1.8-.522a3.232 3.232 0 0 1-1.242-.882c-.348-.408-.522-.954-.522-1.638 0-.576.156-1.098.468-1.566.324-.48.792-.858 1.404-1.134.624-.276 1.362-.414 2.214-.414 1.26 0 2.25.312 2.97.936.732.624 1.152 1.452 1.26 2.484h-2.844a1.213 1.213 0 0 0-.468-.828c-.252-.204-.588-.306-1.008-.306-.36 0-.636.072-.828.216a.638.638 0 0 0-.288.558c0 .288.15.504.45.648.312.144.792.288 1.44.432.744.192 1.35.384 1.818.576.468.18.876.48 1.224.9.36.408.546.96.558 1.656a2.65 2.65 0 0 1-.504 1.584c-.324.456-.798.816-1.422 1.08-.612.264-1.326.396-2.142.396zm11.549-2.754v2.61h-1.566c-1.116 0-1.986-.27-2.61-.81-.624-.552-.936-1.446-.936-2.682v-3.996h-1.224v-2.556h1.224v-2.448h3.078v2.448h2.016v2.556h-2.016v4.032c0 .3.072.516.216.648.144.132.384.198.72.198zm6.287 2.754c-.984 0-1.872-.21-2.664-.63a4.69 4.69 0 0 1-1.854-1.8c-.444-.78-.666-1.692-.666-2.736 0-1.032.228-1.938.684-2.718a4.625 4.625 0 0 1 1.872-1.818c.792-.42 1.68-.63 2.664-.63.984 0 1.872.21 2.664.63a4.625 4.625 0 0 1 1.872 1.818c.456.78.684 1.686.684 2.718s-.234 1.944-.702 2.736a4.629 4.629 0 0 1-1.89 1.8c-.792.42-1.68.63-2.664.63zm0-2.664c.588 0 1.086-.216 1.494-.648.42-.432.63-1.05.63-1.854s-.204-1.422-.612-1.854a1.92 1.92 0 0 0-1.476-.648c-.6 0-1.098.216-1.494.648-.396.42-.594 1.038-.594 1.854 0 .804.192 1.422.576 1.854a1.92 1.92 0 0 0 1.476.648zm19.705-7.632c1.248 0 2.238.378 2.97 1.134.744.756 1.116 1.806 1.116 3.15v5.868h-3.06v-5.454c0-.648-.174-1.146-.522-1.494-.336-.36-.804-.54-1.404-.54-.6 0-1.074.18-1.422.54-.336.348-.504.846-.504 1.494v5.454h-3.06v-5.454c0-.648-.174-1.146-.522-1.494-.336-.36-.804-.54-1.404-.54-.6 0-1.074.18-1.422.54-.336.348-.504.846-.504 1.494v5.454h-3.078v-10.044h3.078v1.26c.312-.42.72-.75 1.224-.99.504-.252 1.074-.378 1.71-.378.756 0 1.428.162 2.016.486.6.324 1.068.786 1.404 1.386a4.046 4.046 0 0 1 1.422-1.35 3.842 3.842 0 0 1 1.962-.522zm17.703 3.672c.732.156 1.32.522 1.764 1.098.444.564.666 1.212.666 1.944 0 1.056-.372 1.896-1.116 2.52-.732.612-1.758.918-3.078.918h-5.886v-12.636h5.688c1.284 0 2.286.294 3.006.882.732.588 1.098 1.386 1.098 2.394 0 .744-.198 1.362-.594 1.854-.384.492-.9.834-1.548 1.026zm-4.572-1.044h2.016c.504 0 .888-.108 1.152-.324.276-.228.414-.558.414-.99 0-.432-.138-.762-.414-.99-.264-.228-.648-.342-1.152-.342h-2.016zm2.268 5.04c.516 0 .912-.114 1.188-.342.288-.24.432-.582.432-1.026 0-.444-.15-.792-.45-1.044-.288-.252-.69-.378-1.206-.378h-2.232v2.79zm5.907-2.556c0-1.032.192-1.938.576-2.718.396-.78.93-1.38 1.602-1.8a4.159 4.159 0 0 1 2.25-.63c.708 0 1.326.144 1.854.432.54.288.954.666 1.242 1.134v-1.422h3.078V228.5h-3.078v-1.422c-.3.468-.72.846-1.26 1.134-.528.288-1.146.432-1.854.432-.816 0-1.56-.21-2.232-.63-.672-.432-1.206-1.038-1.602-1.818-.384-.792-.576-1.704-.576-2.736zm7.524.018c0-.768-.216-1.374-.648-1.818a2.048 2.048 0 0 0-1.548-.666c-.612 0-1.134.222-1.566.666-.42.432-.63 1.032-.63 1.8s.21 1.38.63 1.836c.432.444.954.666 1.566.666.612 0 1.128-.222 1.548-.666.432-.444.648-1.05.648-1.818zm4.693 0c0-1.044.21-1.956.63-2.736a4.513 4.513 0 0 1 1.782-1.8c.768-.42 1.644-.63 2.628-.63 1.26 0 2.31.33 3.15.99.852.66 1.41 1.59 1.674 2.79h-3.276c-.276-.768-.81-1.152-1.602-1.152-.564 0-1.014.222-1.35.666-.336.432-.504 1.056-.504 1.872 0 .816.168 1.446.504 1.89.336.432.786.648 1.35.648.792 0 1.326-.384 1.602-1.152h3.276c-.264 1.176-.822 2.1-1.674 2.772-.852.672-1.902 1.008-3.15 1.008-.984 0-1.86-.21-2.628-.63a4.513 4.513 0 0 1-1.782-1.8c-.42-.78-.63-1.692-.63-2.736zm17.648 5.022-3.06-4.212v4.212h-3.078v-13.32h3.078v7.362l3.042-4.086h3.798l-4.176 5.04 4.212 5.004zm14.457-5.184c0 .288-.018.588-.054.9h-6.966c.048.624.246 1.104.594 1.44.36.324.798.486 1.314.486.768 0 1.302-.324 1.602-.972h3.276a4.437 4.437 0 0 1-.918 1.782 4.468 4.468 0 0 1-1.638 1.242c-.66.3-1.398.45-2.214.45-.984 0-1.86-.21-2.628-.63a4.481 4.481 0 0 1-1.8-1.8c-.432-.78-.648-1.692-.648-2.736 0-1.044.21-1.956.63-2.736a4.481 4.481 0 0 1 1.8-1.8c.768-.42 1.65-.63 2.646-.63.972 0 1.836.204 2.592.612.756.408 1.344.99 1.764 1.746.432.756.648 1.638.648 2.646zm-3.15-.81c0-.528-.18-.948-.54-1.26-.36-.312-.81-.468-1.35-.468-.516 0-.954.15-1.314.45-.348.3-.564.726-.648 1.278zm10.894-4.158c1.176 0 2.112.384 2.808 1.152.708.756 1.062 1.8 1.062 3.132v5.868h-3.06v-5.454c0-.672-.174-1.194-.522-1.566-.348-.372-.816-.558-1.404-.558s-1.056.186-1.404.558c-.348.372-.522.894-.522 1.566v5.454h-3.078v-10.044h3.078v1.332a3.177 3.177 0 0 1 1.26-1.044c.528-.264 1.122-.396 1.782-.396zm5.397 5.112c0-1.032.192-1.938.576-2.718.396-.78.93-1.38 1.602-1.8a4.159 4.159 0 0 1 2.25-.63c.66 0 1.26.138 1.8.414.552.276.984.648 1.296 1.116v-4.662h3.078v13.32h-3.078v-1.44c-.288.48-.702.864-1.242 1.152-.528.288-1.146.432-1.854.432-.828 0-1.578-.21-2.25-.63-.672-.432-1.206-1.038-1.602-1.818-.384-.792-.576-1.704-.576-2.736zm7.524.018c0-.768-.216-1.374-.648-1.818a2.048 2.048 0 0 0-1.548-.666c-.612 0-1.134.222-1.566.666-.42.432-.63 1.032-.63 1.8s.21 1.38.63 1.836c.432.444.954.666 1.566.666.612 0 1.128-.222 1.548-.666.432-.444.648-1.05.648-1.818zm13.691 5.148c-.924 0-1.752-.15-2.484-.45-.732-.3-1.32-.744-1.764-1.332-.432-.588-.66-1.296-.684-2.124h3.276c.048.468.21.828.486 1.08.276.24.636.36 1.08.36.456 0 .816-.102 1.08-.306.264-.216.396-.51.396-.882 0-.312-.108-.57-.324-.774a2.403 2.403 0 0 0-.774-.504c-.3-.132-.732-.282-1.296-.45-.816-.252-1.482-.504-1.998-.756a3.692 3.692 0 0 1-1.332-1.116c-.372-.492-.558-1.134-.558-1.926 0-1.176.426-2.094 1.278-2.754.852-.672 1.962-1.008 3.33-1.008 1.392 0 2.514.336 3.366 1.008.852.66 1.308 1.584 1.368 2.772h-3.33c-.024-.408-.174-.726-.45-.954-.276-.24-.63-.36-1.062-.36-.372 0-.672.102-.9.306-.228.192-.342.474-.342.846 0 .408.192.726.576.954.384.228.984.474 1.8.738.816.276 1.476.54 1.98.792.516.252.96.618 1.332 1.098.372.48.558 1.098.558 1.854 0 .72-.186 1.374-.558 1.962-.36.588-.888 1.056-1.584 1.404-.696.348-1.518.522-2.466.522zm15.97-5.31c0 .288-.018.588-.054.9h-6.966c.048.624.246 1.104.594 1.44.36.324.798.486 1.314.486.768 0 1.302-.324 1.602-.972h3.276a4.437 4.437 0 0 1-.918 1.782 4.468 4.468 0 0 1-1.638 1.242c-.66.3-1.398.45-2.214.45-.984 0-1.86-.21-2.628-.63a4.481 4.481 0 0 1-1.8-1.8c-.432-.78-.648-1.692-.648-2.736 0-1.044.21-1.956.63-2.736a4.481 4.481 0 0 1 1.8-1.8c.768-.42 1.65-.63 2.646-.63.972 0 1.836.204 2.592.612.756.408 1.344.99 1.764 1.746.432.756.648 1.638.648 2.646zm-3.15-.81c0-.528-.18-.948-.54-1.26-.36-.312-.81-.468-1.35-.468-.516 0-.954.15-1.314.45-.348.3-.564.726-.648 1.278zm7.852-2.376c.36-.552.81-.984 1.35-1.296a3.432 3.432 0 0 1 1.8-.486v3.258h-.846c-.768 0-1.344.168-1.728.504-.384.324-.576.9-.576 1.728v4.662h-3.078v-10.044h3.078zm9.139 5.49 2.178-7.164h3.276l-3.564 10.044h-3.798l-3.564-10.044h3.294zm8.298-8.208c-.54 0-.984-.156-1.332-.468a1.587 1.587 0 0 1-.504-1.188c0-.48.168-.876.504-1.188.348-.324.792-.486 1.332-.486.528 0 .96.162 1.296.486.348.312.522.708.522 1.188 0 .468-.174.864-.522 1.188-.336.312-.768.468-1.296.468zm1.53 1.044V228.5h-3.078v-10.044zm1.618 5.022c0-1.044.21-1.956.63-2.736a4.513 4.513 0 0 1 1.782-1.8c.768-.42 1.644-.63 2.628-.63 1.26 0 2.31.33 3.15.99.852.66 1.41 1.59 1.674 2.79h-3.276c-.276-.768-.81-1.152-1.602-1.152-.564 0-1.014.222-1.35.666-.336.432-.504 1.056-.504 1.872 0 .816.168 1.446.504 1.89.336.432.786.648 1.35.648.792 0 1.326-.384 1.602-1.152h3.276c-.264 1.176-.822 2.1-1.674 2.772-.852.672-1.902 1.008-3.15 1.008-.984 0-1.86-.21-2.628-.63a4.513 4.513 0 0 1-1.782-1.8c-.42-.78-.63-1.692-.63-2.736zm20.979-.162c0 .288-.018.588-.054.9h-6.966c.048.624.246 1.104.594 1.44.36.324.798.486 1.314.486.768 0 1.302-.324 1.602-.972h3.276a4.437 4.437 0 0 1-.918 1.782 4.468 4.468 0 0 1-1.638 1.242c-.66.3-1.398.45-2.214.45-.984 0-1.86-.21-2.628-.63a4.481 4.481 0 0 1-1.8-1.8c-.432-.78-.648-1.692-.648-2.736 0-1.044.21-1.956.63-2.736a4.481 4.481 0 0 1 1.8-1.8c.768-.42 1.65-.63 2.646-.63.972 0 1.836.204 2.592.612.756.408 1.344.99 1.764 1.746.432.756.648 1.638.648 2.646zm-3.15-.81c0-.528-.18-.948-.54-1.26-.36-.312-.81-.468-1.35-.468-.516 0-.954.15-1.314.45-.348.3-.564.726-.648 1.278zm8.86 6.138c-.876 0-1.656-.15-2.34-.45-.684-.3-1.224-.708-1.62-1.224a3.29 3.29 0 0 1-.666-1.764h3.042c.036.348.198.63.486.846.288.216.642.324 1.062.324.384 0 .678-.072.882-.216.216-.156.324-.354.324-.594 0-.288-.15-.498-.45-.63-.3-.144-.786-.3-1.458-.468-.72-.168-1.32-.342-1.8-.522a3.232 3.232 0 0 1-1.242-.882c-.348-.408-.522-.954-.522-1.638 0-.576.156-1.098.468-1.566.324-.48.792-.858 1.404-1.134.624-.276 1.362-.414 2.214-.414 1.26 0 2.25.312 2.97.936.732.624 1.152 1.452 1.26 2.484h-2.844a1.213 1.213 0 0 0-.468-.828c-.252-.204-.588-.306-1.008-.306-.36 0-.636.072-.828.216a.638.638 0 0 0-.288.558c0 .288.15.504.45.648.312.144.792.288 1.44.432.744.192 1.35.384 1.818.576.468.18.876.48 1.224.9.36.408.546.96.558 1.656a2.65 2.65 0 0 1-.504 1.584c-.324.456-.798.816-1.422 1.08-.612.264-1.326.396-2.142.396z"/>
  <rect id="rect17" width="596" height="137" x="302" y="305.5" fill="#ffd647" rx="8.5" ry="8.5"/>
  <rect id="rect18" width="596" height="137" x="302" y="305.5" stroke="#ffdf72" stroke-width="3" rx="8.5" ry="8.5"/>
  <rect id="rect19" width="60" height="48" x="479.5" y="350" fill="#fff" rx="5" ry="5"/>
  <path id="path19" fill="#fff" stroke="#242527" stroke-width="2" d="m538.499 362-.045 31.409v.001c0 1.987-1.605 3.59-3.642 3.59h-50.67c-2.037 0-3.642-1.603-3.642-3.59V362Z"/>
  <path id="path20" fill="#ffd647" stroke="#242527" stroke-width="2" d="m538.494 362-.04-7.405v-.005c0-1.987-1.605-3.59-3.642-3.59h-50.67c-2.037 0-3.642 1.603-3.642 3.59V362Z"/>
  <ellipse id="ellipse20" cx="487.636" cy="356.5" fill="#242527" rx="1.525" ry="1.5"/>
  <ellipse id="ellipse21" cx="493.737" cy="356.5" fill="#242527" rx="1.525" ry="1.5"/>
  <ellipse id="ellipse22" cx="499.839" cy="356.5" fill="#242527" rx="1.525" ry="1.5"/>
  <path id="path22" fill="#242527" d="m522.621 378.494-5.799 4.779c-.55.439-.6 1.22-.15 1.707a1.243 1.243 0 0 0 1.75.147l6.899-5.706c.3-.244.45-.586.45-.927 0-.341-.15-.683-.45-.927l-6.899-5.706c-.5-.439-1.3-.39-1.75.147-.45.487-.4 1.268.15 1.707z"/>
  <path id="path23" fill="#242527" d="M493.229 378.494c0 .341.15.683.45.927l6.899 5.706a1.243 1.243 0 0 0 1.75-.147c.45-.487.4-1.268-.15-1.707l-5.799-4.779 5.799-4.779c.55-.439.6-1.171.15-1.707-.45-.537-1.2-.586-1.75-.147l-6.899 5.706c-.3.244-.45.586-.45.927z"/>
  <path id="path24" fill="#242527" d="m511.25 369.768-5.85 16.525c-.25.634.05 1.317.7 1.609.15.049.3.098.45.098.5 0 .95-.293 1.15-.78l5.9-16.525c.25-.634-.05-1.366-.7-1.609-.65-.244-1.4.048-1.65.682z"/>
  <path id="path25" fill="#ffd647" stroke="#242527" stroke-width="2" d="m538.499 362-.045 31.409v.001c0 1.987-1.605 3.59-3.642 3.59h-50.67c-2.037 0-3.642-1.603-3.642-3.59V362Z" opacity=".5"/>
  <path id="path26" fill="#242527" d="M564.106 371.86a2.238 2.238 0 0 0-.99-.954c-.42-.228-.918-.342-1.494-.342-.996 0-1.794.33-2.394.99-.6.648-.9 1.518-.9 2.61 0 1.164.312 2.076.936 2.736.636.648 1.506.972 2.61.972.756 0 1.392-.192 1.908-.576.528-.384.912-.936 1.152-1.656h-3.906v-2.268h6.696v2.862a5.969 5.969 0 0 1-1.17 2.142c-.54.66-1.23 1.194-2.07 1.602-.84.408-1.788.612-2.844.612-1.248 0-2.364-.27-3.348-.81a5.977 5.977 0 0 1-2.286-2.286c-.54-.972-.81-2.082-.81-3.33 0-1.248.27-2.358.81-3.33a5.817 5.817 0 0 1 2.286-2.286c.972-.552 2.082-.828 3.33-.828 1.512 0 2.784.366 3.816 1.098 1.044.732 1.734 1.746 2.07 3.042zm4.711 3.6c0-1.032.192-1.938.576-2.718.396-.78.93-1.38 1.602-1.8a4.159 4.159 0 0 1 2.25-.63c.708 0 1.326.144 1.854.432.54.288.954.666 1.242 1.134v-1.422h3.078V380.5h-3.078v-1.422c-.3.468-.72.846-1.26 1.134-.528.288-1.146.432-1.854.432-.816 0-1.56-.21-2.232-.63-.672-.432-1.206-1.038-1.602-1.818-.384-.792-.576-1.704-.576-2.736zm7.524.018c0-.768-.216-1.374-.648-1.818a2.048 2.048 0 0 0-1.548-.666c-.612 0-1.134.222-1.566.666-.42.432-.63 1.032-.63 1.8s.21 1.38.63 1.836c.432.444.954.666 1.566.666.612 0 1.128-.222 1.548-.666.432-.444.648-1.05.648-1.818zm10.902 2.412v2.61h-1.566c-1.116 0-1.986-.27-2.61-.81-.624-.552-.936-1.446-.936-2.682v-3.996h-1.224v-2.556h1.224v-2.448h3.078v2.448h2.016v2.556h-2.016v4.032c0 .3.072.516.216.648.144.132.384.198.72.198zm11.183-2.574c0 .288-.018.588-.054.9h-6.966c.048.624.246 1.104.594 1.44.36.324.798.486 1.314.486.768 0 1.302-.324 1.602-.972h3.276a4.437 4.437 0 0 1-.918 1.782 4.468 4.468 0 0 1-1.638 1.242c-.66.3-1.398.45-2.214.45-.984 0-1.86-.21-2.628-.63a4.481 4.481 0 0 1-1.8-1.8c-.432-.78-.648-1.692-.648-2.736 0-1.044.21-1.956.63-2.736a4.481 4.481 0 0 1 1.8-1.8c.768-.42 1.65-.63 2.646-.63.972 0 1.836.204 2.592.612.756.408 1.344.99 1.764 1.746.432.756.648 1.638.648 2.646zm-3.15-.81c0-.528-.18-.948-.54-1.26-.36-.312-.81-.468-1.35-.468-.516 0-.954.15-1.314.45-.348.3-.564.726-.648 1.278zm19.192-4.05L611.75 380.5h-3.402l-1.584-6.516-1.638 6.516h-3.384l-2.736-10.044h3.078l1.422 7.182 1.692-7.182h3.258l1.71 7.146 1.404-7.146zm.561 5.004c0-1.032.192-1.938.576-2.718.396-.78.93-1.38 1.602-1.8a4.159 4.159 0 0 1 2.25-.63c.708 0 1.326.144 1.854.432.54.288.954.666 1.242 1.134v-1.422h3.078V380.5h-3.078v-1.422c-.3.468-.72.846-1.26 1.134-.528.288-1.146.432-1.854.432-.816 0-1.56-.21-2.232-.63-.672-.432-1.206-1.038-1.602-1.818-.384-.792-.576-1.704-.576-2.736zm7.524.018c0-.768-.216-1.374-.648-1.818a2.048 2.048 0 0 0-1.548-.666c-.612 0-1.134.222-1.566.666-.42.432-.63 1.032-.63 1.8s.21 1.38.63 1.836c.432.444.954.666 1.566.666.612 0 1.128-.222 1.548-.666.432-.444.648-1.05.648-1.818zm15.565-5.022-6.3 14.814h-3.312l2.304-5.112-4.086-9.702h3.438l2.322 6.282 2.304-6.282zm9.5 10.17c-.924 0-1.752-.15-2.484-.45-.732-.3-1.32-.744-1.764-1.332-.432-.588-.66-1.296-.684-2.124h3.276c.048.468.21.828.486 1.08.276.24.636.36 1.08.36.456 0 .816-.102 1.08-.306.264-.216.396-.51.396-.882 0-.312-.108-.57-.324-.774a2.403 2.403 0 0 0-.774-.504c-.3-.132-.732-.282-1.296-.45-.816-.252-1.482-.504-1.998-.756a3.692 3.692 0 0 1-1.332-1.116c-.372-.492-.558-1.134-.558-1.926 0-1.176.426-2.094 1.278-2.754.852-.672 1.962-1.008 3.33-1.008 1.392 0 2.514.336 3.366 1.008.852.66 1.308 1.584 1.368 2.772h-3.33c-.024-.408-.174-.726-.45-.954-.276-.24-.63-.36-1.062-.36-.372 0-.672.102-.9.306-.228.192-.342.474-.342.846 0 .408.192.726.576.954.384.228.984.474 1.8.738.816.276 1.476.54 1.98.792.516.252.96.618 1.332 1.098.372.48.558 1.098.558 1.854 0 .72-.186 1.374-.558 1.962-.36.588-.888 1.056-1.584 1.404-.696.348-1.518.522-2.466.522zm15.97-5.31c0 .288-.018.588-.054.9h-6.966c.048.624.246 1.104.594 1.44.36.324.798.486 1.314.486.768 0 1.302-.324 1.602-.972h3.276a4.437 4.437 0 0 1-.918 1.782 4.468 4.468 0 0 1-1.638 1.242c-.66.3-1.398.45-2.214.45-.984 0-1.86-.21-2.628-.63a4.481 4.481 0 0 1-1.8-1.8c-.432-.78-.648-1.692-.648-2.736 0-1.044.21-1.956.63-2.736a4.481 4.481 0 0 1 1.8-1.8c.768-.42 1.65-.63 2.646-.63.972 0 1.836.204 2.592.612.756.408 1.344.99 1.764 1.746.432.756.648 1.638.648 2.646zm-3.15-.81c0-.528-.18-.948-.54-1.26-.36-.312-.81-.468-1.35-.468-.516 0-.954.15-1.314.45-.348.3-.564.726-.648 1.278zm7.852-2.376c.36-.552.81-.984 1.35-1.296a3.432 3.432 0 0 1 1.8-.486v3.258h-.846c-.768 0-1.344.168-1.728.504-.384.324-.576.9-.576 1.728v4.662h-3.078v-10.044h3.078zm9.139 5.49 2.178-7.164h3.276l-3.564 10.044h-3.798l-3.564-10.044h3.294zm8.298-8.208c-.54 0-.984-.156-1.332-.468a1.587 1.587 0 0 1-.504-1.188c0-.48.168-.876.504-1.188.348-.324.792-.486 1.332-.486.528 0 .96.162 1.296.486.348.312.522.708.522 1.188 0 .468-.174.864-.522 1.188-.336.312-.768.468-1.296.468zm1.53 1.044V380.5h-3.078v-10.044zm1.618 5.022c0-1.044.21-1.956.63-2.736a4.513 4.513 0 0 1 1.782-1.8c.768-.42 1.644-.63 2.628-.63 1.26 0 2.31.33 3.15.99.852.66 1.41 1.59 1.674 2.79h-3.276c-.276-.768-.81-1.152-1.602-1.152-.564 0-1.014.222-1.35.666-.336.432-.504 1.056-.504 1.872 0 .816.168 1.446.504 1.89.336.432.786.648 1.35.648.792 0 1.326-.384 1.602-1.152h3.276c-.264 1.176-.822 2.1-1.674 2.772-.852.672-1.902 1.008-3.15 1.008-.984 0-1.86-.21-2.628-.63a4.513 4.513 0 0 1-1.782-1.8c-.42-.78-.63-1.692-.63-2.736zm20.979-.162c0 .288-.018.588-.054.9h-6.966c.048.624.246 1.104.594 1.44.36.324.798.486 1.314.486.768 0 1.302-.324 1.602-.972h3.276a4.437 4.437 0 0 1-.918 1.782 4.468 4.468 0 0 1-1.638 1.242c-.66.3-1.398.45-2.214.45-.984 0-1.86-.21-2.628-.63a4.481 4.481 0 0 1-1.8-1.8c-.432-.78-.648-1.692-.648-2.736 0-1.044.21-1.956.63-2.736a4.481 4.481 0 0 1 1.8-1.8c.768-.42 1.65-.63 2.646-.63.972 0 1.836.204 2.592.612.756.408 1.344.99 1.764 1.746.432.756.648 1.638.648 2.646zm-3.15-.81c0-.528-.18-.948-.54-1.26-.36-.312-.81-.468-1.35-.468-.516 0-.954.15-1.314.45-.348.3-.564.726-.648 1.278zm8.859 6.138c-.876 0-1.656-.15-2.34-.45-.684-.3-1.224-.708-1.62-1.224a3.29 3.29 0 0 1-.666-1.764h3.042c.036.348.198.63.486.846.288.216.642.324 1.062.324.384 0 .678-.072.882-.216.216-.156.324-.354.324-.594 0-.288-.15-.498-.45-.63-.3-.144-.786-.3-1.458-.468-.72-.168-1.32-.342-1.8-.522a3.232 3.232 0 0 1-1.242-.882c-.348-.408-.522-.954-.522-1.638 0-.576.156-1.098.468-1.566.324-.48.792-.858 1.404-1.134.624-.276 1.362-.414 2.214-.414 1.26 0 2.25.312 2.97.936.732.624 1.152 1.452 1.26 2.484h-2.844a1.213 1.213 0 0 0-.468-.828c-.252-.204-.588-.306-1.008-.306-.36 0-.636.072-.828.216a.638.638 0 0 0-.288.558c0 .288.15.504.45.648.312.144.792.288 1.44.432.744.192 1.35.384 1.818.576.468.18.876.48 1.224.9.36.408.546.96.558 1.656a2.65 2.65 0 0 1-.504 1.584c-.324.456-.798.816-1.422 1.08-.612.264-1.326.396-2.142.396z"/>
  <rect id="rect26" width="358" height="137" x="302" y="457.5" fill="url(#paint3_linear_1621_2625)" rx="8.5" ry="8.5"/>
  <rect id="rect27" width="358" height="137" x="302" y="457.5" stroke="url(#paint4_linear_1621_2625)" stroke-width="3" rx="8.5" ry="8.5"/>
  <rect id="rect28" width="69" height="63.48" x="385" y="494.26" fill="#fcf3e4" rx="6.9" ry="6.9"/>
  <path id="path28" fill="#790e70" d="M448.075 494.26h-57.147c-3.272 0-5.928 2.687-5.928 5.999v51.482c0 3.315 2.656 5.999 5.928 5.999h57.144c3.276 0 5.928-2.688 5.928-5.999v-51.482c0-3.315-2.656-5.999-5.928-5.999zm-2.077 12.361-38.3 19.381h24.353a3.145 3.145 0 0 1 3.053 2.444 3.188 3.188 0 0 1-1.648 3.569l-37.638 19.045a3.101 3.101 0 0 1-3.053-.138 3.186 3.186 0 0 1-1.488-2.701v-44.439c0-1.753 1.404-3.174 3.136-3.174h50.184a3.145 3.145 0 0 1 3.053 2.444 3.187 3.187 0 0 1-1.648 3.569z"/>
  <path id="path29" fill="#fff" d="M478.711 519.864v2.466h-5.148v2.664h3.852v2.394h-3.852v5.112h-3.078v-12.636zm8.062 12.636-2.628-4.77h-.738v4.77h-3.078v-12.636h5.166c.996 0 1.842.174 2.538.522.708.348 1.236.828 1.584 1.44.348.6.522 1.272.522 2.016 0 .84-.24 1.59-.72 2.25-.468.66-1.164 1.128-2.088 1.404l2.916 5.004zm-3.366-6.948h1.908c.564 0 .984-.138 1.26-.414.288-.276.432-.666.432-1.17 0-.48-.144-.858-.432-1.134-.276-.276-.696-.414-1.26-.414h-1.908zm11.742-3.222v2.556h4.122v2.376h-4.122v2.772h4.662v2.466h-7.74v-12.636h7.74v2.466zm15.66 12.33-1.62-2.178a7.15 7.15 0 0 1-1.404.144 6.645 6.645 0 0 1-3.276-.828 6.295 6.295 0 0 1-2.358-2.304c-.576-.996-.864-2.112-.864-3.348 0-1.236.288-2.346.864-3.33a6.295 6.295 0 0 1 2.358-2.304 6.645 6.645 0 0 1 3.276-.828c1.188 0 2.274.276 3.258.828a5.999 5.999 0 0 1 2.34 2.304c.576.984.864 2.094.864 3.33 0 1.08-.222 2.07-.666 2.97a6.042 6.042 0 0 1-1.818 2.214l2.772 3.33zm-6.372-8.514c0 1.116.3 2.01.9 2.682.612.66 1.428.99 2.448.99 1.008 0 1.812-.336 2.412-1.008.612-.672.918-1.56.918-2.664 0-1.116-.306-2.004-.918-2.664-.6-.672-1.404-1.008-2.412-1.008-1.02 0-1.836.33-2.448.99-.6.66-.9 1.554-.9 2.682zm14.582-6.282v7.56c0 .756.186 1.338.558 1.746.372.408.918.612 1.638.612.72 0 1.272-.204 1.656-.612.384-.408.576-.99.576-1.746v-7.56h3.078v7.542c0 1.128-.24 2.082-.72 2.862a4.598 4.598 0 0 1-1.944 1.764c-.804.396-1.704.594-2.7.594-.996 0-1.89-.192-2.682-.576a4.446 4.446 0 0 1-1.854-1.764c-.456-.792-.684-1.752-.684-2.88v-7.542zm12.745 2.466v2.556h4.122v2.376h-4.122v2.772h4.662v2.466h-7.74v-12.636h7.74v2.466zm17.965 10.17h-3.078l-5.148-7.794v7.794h-3.078v-12.636h3.078l5.148 7.83v-7.83h3.078zm1.709-6.336c0-1.248.27-2.358.81-3.33a5.73 5.73 0 0 1 2.25-2.286c.972-.552 2.07-.828 3.294-.828 1.5 0 2.784.396 3.852 1.188 1.068.792 1.782 1.872 2.142 3.24h-3.384a2.716 2.716 0 0 0-1.08-1.206c-.456-.276-.978-.414-1.566-.414-.948 0-1.716.33-2.304.99-.588.66-.882 1.542-.882 2.646 0 1.104.294 1.986.882 2.646.588.66 1.356.99 2.304.99.588 0 1.11-.138 1.566-.414a2.716 2.716 0 0 0 1.08-1.206h3.384c-.36 1.368-1.074 2.448-2.142 3.24-1.068.78-2.352 1.17-3.852 1.17-1.224 0-2.322-.27-3.294-.81a5.885 5.885 0 0 1-2.25-2.286c-.54-.972-.81-2.082-.81-3.33zm25.069-6.3-4.374 8.46v4.176h-3.078v-4.176l-4.374-8.46h3.492l2.448 5.292 2.43-5.292z"/>
  <rect id="rect29" width="223" height="137" x="675" y="457.5" fill="#36b07d" rx="8.5" ry="8.5"/>
  <rect id="rect30" width="223" height="137" x="675" y="457.5" stroke="#9ad7be" stroke-width="3" rx="8.5" ry="8.5"/>
  <rect id="rect31" width="60" height="48" x="730" y="502" fill="#fff" rx="5" ry="5"/>
  <path id="path31" fill="#edf8ee" stroke="#242527" stroke-width="2" d="m788.999 514-.045 31.409v.001c0 1.987-1.605 3.59-3.642 3.59h-50.67c-2.037 0-3.642-1.603-3.642-3.59V514Z"/>
  <path id="path32" stroke="#242527" stroke-width="2" d="m788.994 514-.04-7.405v-.005c0-1.987-1.605-3.59-3.642-3.59h-50.67c-2.037 0-3.642 1.603-3.642 3.59V514Z"/>
  <ellipse id="ellipse32" cx="738.136" cy="508.5" fill="#242527" rx="1.525" ry="1.5"/>
  <ellipse id="ellipse33" cx="744.237" cy="508.5" fill="#242527" rx="1.525" ry="1.5"/>
  <ellipse id="ellipse34" cx="750.339" cy="508.5" fill="#242527" rx="1.525" ry="1.5"/>
  <path id="path34" fill="#65c3cb" fill-opacity=".4" stroke="#242527" stroke-width="2" d="m788.999 514-.045 31.409v.001c0 1.987-1.605 3.59-3.642 3.59h-50.67c-2.037 0-3.642-1.603-3.642-3.59V514Z" opacity=".5"/>
  <path id="path35" fill="#469ea2" d="m748 538.177 12.134 6.726 12.134-6.726v-13.451L760.134 518 748 524.726Z"/>
  <path id="path36" fill="#6acad1" d="m758.892 519.609-8.812 4.881c.015.152.015.306 0 .458l8.797 4.881a2.16 2.16 0 0 1 1.25-.395c.45 0 .888.138 1.249.395l8.798-4.881a2.336 2.336 0 0 1 0-.458l-8.783-4.881a2.16 2.16 0 0 1-1.25.395 2.16 2.16 0 0 1-1.249-.395zm12.134 6.684-8.812 4.937c.048.428-.046.86-.269 1.233-.224.374-.564.67-.973.847l.014 9.707c.143.061.278.135.405.222l8.797-4.881c-.048-.428.047-.86.27-1.234.223-.373.563-.67.972-.846v-9.763a2.876 2.876 0 0 1-.404-.222zm-21.784.055a2.203 2.203 0 0 1-.404.222v9.763c.414.171.759.466.983.841.224.375.315.81.259 1.239l8.797 4.882c.127-.088.262-.162.405-.222v-9.763a2.055 2.055 0 0 1-.983-.841 1.927 1.927 0 0 1-.259-1.239z"/>
  <path id="path37" fill="#469ea2" d="m760.134 519.456 10.848 6.019v12.023l-10.848 6.018-10.848-6.018v-12.037zm0-1.428L748 524.754v13.451l12.134 6.726 12.134-6.726v-13.451z"/>
  <path id="path38" fill="#469ea2" d="M760.221 533.74h-.174a2.337 2.337 0 0 1-1.605-.636 2.157 2.157 0 0 1-.491-.708 2.1 2.1 0 0 1-.172-.834v-.166a2.114 2.114 0 0 1 .381-1.211 2.245 2.245 0 0 1 1.019-.802c.275-.109.57-.165.868-.164h.174c.298-.001.593.055.869.164.275.109.525.27.736.472a2.124 2.124 0 0 1 .663 1.541v.166c.001.431-.132.853-.381 1.211a2.236 2.236 0 0 1-1.018.802c-.276.11-.571.165-.869.165zm0 8.944h-.174a2.333 2.333 0 0 0-1.146.296 2.215 2.215 0 0 0-.833.814l2.066 1.137 2.066-1.137a2.222 2.222 0 0 0-.833-.814 2.333 2.333 0 0 0-1.146-.296zm12.062-6.726h-.087a2.33 2.33 0 0 0-1.261.366 2.185 2.185 0 0 0-.836.978 2.086 2.086 0 0 0-.171.834v.166c-.002.37.098.733.289 1.054l2.066-1.151zm-2.066-12.342c-.19.322-.289.685-.289 1.054v.167a2.09 2.09 0 0 0 .171.834c.114.264.281.504.491.707a2.3 2.3 0 0 0 1.606.636h.087v-2.26zm-10.083-5.588-2.066 1.137c.196.339.483.622.831.82.348.197.744.302 1.148.303h.174a2.33 2.33 0 0 0 1.146-.296 2.22 2.22 0 0 0 .833-.813zm-10.068 5.575L748 524.754v2.26h.087c.298.001.593-.055.868-.164.276-.11.526-.27.737-.472a2.124 2.124 0 0 0 .663-1.541v-.167a2.242 2.242 0 0 0-.289-1.067zm-1.979 12.355H748v2.247l2.066 1.151c.19-.321.289-.685.289-1.054v-.166a2.112 2.112 0 0 0-.381-1.211 2.238 2.238 0 0 0-1.019-.802 2.357 2.357 0 0 0-.868-.165z"/>
  <path id="path39" fill="#083b54" fill-opacity=".15" d="M760.134 545v-13.465L748 524.809v13.465z"/>
  <path id="path40" fill="#083b54" fill-opacity=".05" d="M772.282 538.149v-13.451l-12.134 6.725v13.466z"/>
  <path id="path41" fill="#242527" d="M809.465 519.864V532.5h-3.078v-12.636zm11.865 4.068c0 .732-.17 1.404-.51 2.016-.33.6-.85 1.086-1.55 1.458-.69.372-1.56.558-2.59.558h-1.91v4.536h-3.07v-12.636h4.98c1.01 0 1.86.174 2.56.522.69.348 1.22.828 1.56 1.44.35.612.53 1.314.53 2.106zm-4.88 1.584c.59 0 1.02-.138 1.31-.414.29-.276.43-.666.43-1.17 0-.504-.14-.894-.43-1.17-.29-.276-.72-.414-1.31-.414h-1.68v3.168zm14.7-5.652v2.466h-5.14v2.664h3.85v2.394h-3.85v5.112h-3.08v-12.636zm6.19 12.762c-.92 0-1.75-.15-2.48-.45-.73-.3-1.32-.744-1.76-1.332-.44-.588-.66-1.296-.69-2.124h3.28c.05.468.21.828.48 1.08.28.24.64.36 1.08.36.46 0 .82-.102 1.08-.306.27-.216.4-.51.4-.882 0-.312-.11-.57-.32-.774a2.524 2.524 0 0 0-.78-.504c-.3-.132-.73-.282-1.29-.45-.82-.252-1.49-.504-2-.756a3.637 3.637 0 0 1-1.33-1.116c-.38-.492-.56-1.134-.56-1.926 0-1.176.42-2.094 1.28-2.754.85-.672 1.96-1.008 3.33-1.008 1.39 0 2.51.336 3.36 1.008.85.66 1.31 1.584 1.37 2.772h-3.33c-.02-.408-.17-.726-.45-.954-.28-.24-.63-.36-1.06-.36-.37 0-.67.102-.9.306-.23.192-.34.474-.34.846 0 .408.19.726.57.954.39.228.99.474 1.8.738.82.276 1.48.54 1.98.792.52.252.96.618 1.33 1.098.38.48.56 1.098.56 1.854 0 .72-.18 1.374-.56 1.962-.36.588-.88 1.056-1.58 1.404-.7.348-1.52.522-2.47.522z"/>
  <defs id="defs55">
    <linearGradient id="paint0_linear_1621_2625" x1="1090" x2="864" y1="217" y2="350" gradientTransform="translate(-190.5 -210)" gradientUnits="userSpaceOnUse">
      <stop id="stop41" stop-color="#311E48"/>
      <stop id="stop42" offset=".623" stop-color="#790E70"/>
      <stop id="stop43" offset="1" stop-color="#AA40A1"/>
    </linearGradient>
    <linearGradient id="paint1_linear_1621_2625" x1="977" x2="977" y1="210" y2="350" gradientTransform="translate(-190.5 -210)" gradientUnits="userSpaceOnUse">
      <stop id="stop44" stop-color="#311E48"/>
      <stop id="stop45" offset=".5" stop-color="#790E70"/>
      <stop id="stop46" offset="1" stop-color="#AA40A1"/>
    </linearGradient>
    <linearGradient id="paint2_linear_1621_2625" x1="790.5" x2="790.5" y1="362" y2="502" gradientTransform="translate(-190.5 -210)" gradientUnits="userSpaceOnUse">
      <stop id="stop47" stop-color="#FF5B2F"/>
      <stop id="stop48" offset=".5" stop-color="#FF9A02"/>
      <stop id="stop49" offset="1" stop-color="#FFCF2C"/>
    </linearGradient>
    <linearGradient id="paint3_linear_1621_2625" x1="852" x2="491" y1="673.5" y2="806" gradientTransform="translate(-190.5 -210)" gradientUnits="userSpaceOnUse">
      <stop id="stop50" stop-color="#311E48"/>
      <stop id="stop51" offset=".37" stop-color="#790E70"/>
      <stop id="stop52" offset="1" stop-color="#AA40A1"/>
    </linearGradient>
    <linearGradient id="paint4_linear_1621_2625" x1="671.5" x2="671.5" y1="666" y2="806" gradientTransform="translate(-190.5 -210)" gradientUnits="userSpaceOnUse">
      <stop id="stop53" stop-color="#311E48"/>
      <stop id="stop54" offset=".5" stop-color="#790E70"/>
      <stop id="stop55" offset="1" stop-color="#AA40A1"/>
    </linearGradient>
  </defs>
</svg>
