<svg width="254" height="48" viewBox="0 0 254 48" fill="none" xmlns="http://www.w3.org/2000/svg">
<rect x="0.5" y="0.5" width="253" height="47" rx="23.5" fill="white"/>
<rect x="0.5" y="0.5" width="253" height="47" rx="23.5" stroke="black"/>
<g clip-path="url(#clip0_1_39)">
<rect width="33" height="33" transform="translate(10 7.5)" fill="white"/>
<path d="M26.5 40.5C35.6127 40.5 43 33.1127 43 24C43 14.8873 35.6127 7.5 26.5 7.5C17.3873 7.5 10 14.8873 10 24C10 33.1127 17.3873 40.5 26.5 40.5Z" fill="black"/>
<path d="M20.8175 14.1802V35.7428H24.6028V29.027L32.2077 25.7678L32.1087 21.9165L24.6358 25.1097V17.7688H34.2815V14.1802H20.8175Z" fill="white"/>
</g>
<path d="M58.4232 30.112C57.6019 30.112 56.8659 29.9787 56.2152 29.712C55.5645 29.4453 55.0419 29.0507 54.6472 28.528C54.2632 28.0053 54.0605 27.376 54.0392 26.64H56.9512C56.9939 27.056 57.1379 27.376 57.3832 27.6C57.6285 27.8133 57.9485 27.92 58.3432 27.92C58.7485 27.92 59.0685 27.8293 59.3032 27.648C59.5379 27.456 59.6552 27.1947 59.6552 26.864C59.6552 26.5867 59.5592 26.3573 59.3672 26.176C59.1859 25.9947 58.9565 25.8453 58.6792 25.728C58.4125 25.6107 58.0285 25.4773 57.5272 25.328C56.8019 25.104 56.2099 24.88 55.7512 24.656C55.2925 24.432 54.8979 24.1013 54.5672 23.664C54.2365 23.2267 54.0712 22.656 54.0712 21.952C54.0712 20.9067 54.4499 20.0907 55.2072 19.504C55.9645 18.9067 56.9512 18.608 58.1672 18.608C59.4045 18.608 60.4019 18.9067 61.1592 19.504C61.9165 20.0907 62.3219 20.912 62.3752 21.968H59.4152C59.3939 21.6053 59.2605 21.3227 59.0152 21.12C58.7699 20.9067 58.4552 20.8 58.0712 20.8C57.7405 20.8 57.4739 20.8907 57.2712 21.072C57.0685 21.2427 56.9672 21.4933 56.9672 21.824C56.9672 22.1867 57.1379 22.4693 57.4792 22.672C57.8205 22.8747 58.3539 23.0933 59.0792 23.328C59.8045 23.5733 60.3912 23.808 60.8392 24.032C61.2979 24.256 61.6925 24.5813 62.0232 25.008C62.3539 25.4347 62.5192 25.984 62.5192 26.656C62.5192 27.296 62.3539 27.8773 62.0232 28.4C61.7032 28.9227 61.2339 29.3387 60.6152 29.648C59.9965 29.9573 59.2659 30.112 58.4232 30.112ZM65.5789 20.144C65.0989 20.144 64.7043 20.0053 64.3949 19.728C64.0963 19.44 63.9469 19.088 63.9469 18.672C63.9469 18.2453 64.0963 17.8933 64.3949 17.616C64.7043 17.328 65.0989 17.184 65.5789 17.184C66.0483 17.184 66.4323 17.328 66.7309 17.616C67.0403 17.8933 67.1949 18.2453 67.1949 18.672C67.1949 19.088 67.0403 19.44 66.7309 19.728C66.4323 20.0053 66.0483 20.144 65.5789 20.144ZM66.9389 21.072V30H64.2029V21.072H66.9389ZM72.3137 20.944C72.943 20.944 73.4924 21.072 73.9617 21.328C74.4417 21.584 74.8097 21.92 75.0657 22.336V21.072H77.8017V29.984C77.8017 30.8053 77.6364 31.5467 77.3057 32.208C76.9857 32.88 76.4897 33.4133 75.8177 33.808C75.1564 34.2027 74.3297 34.4 73.3377 34.4C72.015 34.4 70.943 34.0853 70.1217 33.456C69.3004 32.8373 68.831 31.9947 68.7137 30.928H71.4177C71.503 31.2693 71.7057 31.536 72.0257 31.728C72.3457 31.9307 72.7404 32.032 73.2097 32.032C73.775 32.032 74.223 31.8667 74.5537 31.536C74.895 31.216 75.0657 30.6987 75.0657 29.984V28.72C74.799 29.136 74.431 29.4773 73.9617 29.744C73.4924 30 72.943 30.128 72.3137 30.128C71.5777 30.128 70.911 29.9413 70.3137 29.568C69.7164 29.184 69.2417 28.6453 68.8897 27.952C68.5484 27.248 68.3777 26.4373 68.3777 25.52C68.3777 24.6027 68.5484 23.7973 68.8897 23.104C69.2417 22.4107 69.7164 21.8773 70.3137 21.504C70.911 21.1307 71.5777 20.944 72.3137 20.944ZM75.0657 25.536C75.0657 24.8533 74.8737 24.3147 74.4897 23.92C74.1164 23.5253 73.6577 23.328 73.1137 23.328C72.5697 23.328 72.1057 23.5253 71.7217 23.92C71.3484 24.304 71.1617 24.8373 71.1617 25.52C71.1617 26.2027 71.3484 26.7467 71.7217 27.152C72.1057 27.5467 72.5697 27.744 73.1137 27.744C73.6577 27.744 74.1164 27.5467 74.4897 27.152C74.8737 26.7573 75.0657 26.2187 75.0657 25.536ZM85.2211 20.976C86.2664 20.976 87.0984 21.3173 87.7171 22C88.3464 22.672 88.6611 23.6 88.6611 24.784V30H85.9411V25.152C85.9411 24.5547 85.7864 24.0907 85.4771 23.76C85.1677 23.4293 84.7517 23.264 84.2291 23.264C83.7064 23.264 83.2904 23.4293 82.9811 23.76C82.6717 24.0907 82.5171 24.5547 82.5171 25.152V30H79.7811V21.072H82.5171V22.256C82.7944 21.8613 83.1677 21.552 83.6371 21.328C84.1064 21.0933 84.6344 20.976 85.2211 20.976ZM95.3289 20.144C94.8489 20.144 94.4543 20.0053 94.1449 19.728C93.8463 19.44 93.6969 19.088 93.6969 18.672C93.6969 18.2453 93.8463 17.8933 94.1449 17.616C94.4543 17.328 94.8489 17.184 95.3289 17.184C95.7983 17.184 96.1823 17.328 96.4809 17.616C96.7903 17.8933 96.9449 18.2453 96.9449 18.672C96.9449 19.088 96.7903 19.44 96.4809 19.728C96.1823 20.0053 95.7983 20.144 95.3289 20.144ZM96.6889 21.072V30H93.9529V21.072H96.6889ZM104.112 20.976C105.157 20.976 105.989 21.3173 106.608 22C107.237 22.672 107.552 23.6 107.552 24.784V30H104.832V25.152C104.832 24.5547 104.677 24.0907 104.368 23.76C104.058 23.4293 103.642 23.264 103.12 23.264C102.597 23.264 102.181 23.4293 101.872 23.76C101.562 24.0907 101.408 24.5547 101.408 25.152V30H98.6717V21.072H101.408V22.256C101.685 21.8613 102.058 21.552 102.528 21.328C102.997 21.0933 103.525 20.976 104.112 20.976ZM125.66 21.072L123.244 30H120.22L118.812 24.208L117.356 30H114.348L111.916 21.072H114.652L115.916 27.456L117.42 21.072H120.316L121.836 27.424L123.084 21.072H125.66ZM128.079 20.144C127.599 20.144 127.204 20.0053 126.895 19.728C126.596 19.44 126.447 19.088 126.447 18.672C126.447 18.2453 126.596 17.8933 126.895 17.616C127.204 17.328 127.599 17.184 128.079 17.184C128.548 17.184 128.932 17.328 129.231 17.616C129.54 17.8933 129.695 18.2453 129.695 18.672C129.695 19.088 129.54 19.44 129.231 19.728C128.932 20.0053 128.548 20.144 128.079 20.144ZM129.439 21.072V30H126.703V21.072H129.439ZM136.398 27.68V30H135.006C134.014 30 133.24 29.76 132.686 29.28C132.131 28.7893 131.854 27.9947 131.854 26.896V23.344H130.766V21.072H131.854V18.896H134.59V21.072H136.382V23.344H134.59V26.928C134.59 27.1947 134.654 27.3867 134.782 27.504C134.91 27.6213 135.123 27.68 135.422 27.68H136.398ZM143.41 20.976C144.434 20.976 145.255 21.3173 145.874 22C146.492 22.672 146.802 23.6 146.802 24.784V30H144.082V25.152C144.082 24.5547 143.927 24.0907 143.618 23.76C143.308 23.4293 142.892 23.264 142.37 23.264C141.847 23.264 141.431 23.4293 141.122 23.76C140.812 24.0907 140.658 24.5547 140.658 25.152V30H137.922V18.16H140.658V22.272C140.935 21.8773 141.314 21.5627 141.794 21.328C142.274 21.0933 142.812 20.976 143.41 20.976ZM159.406 18.768V20.96H154.83V23.328H158.254V25.456H154.83V30H152.094V18.768H159.406ZM163.58 22.56C163.9 22.0693 164.3 21.6853 164.78 21.408C165.26 21.12 165.793 20.976 166.38 20.976V23.872H165.628C164.945 23.872 164.433 24.0213 164.092 24.32C163.75 24.608 163.58 25.12 163.58 25.856V30H160.844V21.072H163.58V22.56ZM176.103 25.392C176.103 25.648 176.087 25.9147 176.055 26.192H169.863C169.906 26.7467 170.082 27.1733 170.391 27.472C170.711 27.76 171.101 27.904 171.559 27.904C172.242 27.904 172.717 27.616 172.983 27.04H175.895C175.746 27.6267 175.474 28.1547 175.079 28.624C174.695 29.0933 174.21 29.4613 173.623 29.728C173.037 29.9947 172.381 30.128 171.655 30.128C170.781 30.128 170.002 29.9413 169.319 29.568C168.637 29.1947 168.103 28.6613 167.719 27.968C167.335 27.2747 167.143 26.464 167.143 25.536C167.143 24.608 167.33 23.7973 167.703 23.104C168.087 22.4107 168.621 21.8773 169.303 21.504C169.986 21.1307 170.77 20.944 171.655 20.944C172.519 20.944 173.287 21.1253 173.959 21.488C174.631 21.8507 175.154 22.368 175.527 23.04C175.911 23.712 176.103 24.496 176.103 25.392ZM173.303 24.672C173.303 24.2027 173.143 23.8293 172.823 23.552C172.503 23.2747 172.103 23.136 171.623 23.136C171.165 23.136 170.775 23.2693 170.455 23.536C170.146 23.8027 169.954 24.1813 169.879 24.672H173.303ZM177.003 25.552C177.003 24.6667 177.184 23.8773 177.547 23.184C177.92 22.4907 178.416 21.952 179.035 21.568C179.664 21.1733 180.347 20.976 181.083 20.976C181.648 20.976 182.155 21.0773 182.603 21.28C183.051 21.472 183.413 21.744 183.691 22.096V21.072H186.427V34.256H183.691V28.88C183.381 29.2533 183.003 29.552 182.555 29.776C182.117 30 181.616 30.112 181.051 30.112C180.325 30.112 179.653 29.92 179.035 29.536C178.416 29.152 177.92 28.6133 177.547 27.92C177.184 27.2267 177.003 26.4373 177.003 25.552ZM183.691 25.536C183.691 25.056 183.595 24.656 183.403 24.336C183.221 24.0053 182.981 23.76 182.683 23.6C182.384 23.4293 182.069 23.344 181.739 23.344C181.419 23.344 181.109 23.4293 180.811 23.6C180.512 23.76 180.267 24.0053 180.075 24.336C179.883 24.6667 179.787 25.072 179.787 25.552C179.787 26.032 179.883 26.4373 180.075 26.768C180.267 27.088 180.512 27.3333 180.811 27.504C181.109 27.664 181.419 27.744 181.739 27.744C182.059 27.744 182.368 27.664 182.667 27.504C182.976 27.3333 183.221 27.0827 183.403 26.752C183.595 26.4213 183.691 26.016 183.691 25.536ZM197.222 21.072V30H194.486V28.784C194.209 29.1787 193.83 29.4987 193.35 29.744C192.881 29.9787 192.358 30.096 191.782 30.096C191.099 30.096 190.497 29.9467 189.974 29.648C189.451 29.3387 189.046 28.896 188.758 28.32C188.47 27.744 188.326 27.0667 188.326 26.288V21.072H191.046V25.92C191.046 26.5173 191.201 26.9813 191.51 27.312C191.819 27.6427 192.235 27.808 192.758 27.808C193.291 27.808 193.713 27.6427 194.022 27.312C194.331 26.9813 194.486 26.5173 194.486 25.92V21.072H197.222ZM207.603 25.392C207.603 25.648 207.587 25.9147 207.555 26.192H201.363C201.406 26.7467 201.582 27.1733 201.891 27.472C202.211 27.76 202.601 27.904 203.059 27.904C203.742 27.904 204.217 27.616 204.483 27.04H207.395C207.246 27.6267 206.974 28.1547 206.579 28.624C206.195 29.0933 205.71 29.4613 205.123 29.728C204.537 29.9947 203.881 30.128 203.155 30.128C202.281 30.128 201.502 29.9413 200.819 29.568C200.137 29.1947 199.603 28.6613 199.219 27.968C198.835 27.2747 198.643 26.464 198.643 25.536C198.643 24.608 198.83 23.7973 199.203 23.104C199.587 22.4107 200.121 21.8773 200.803 21.504C201.486 21.1307 202.27 20.944 203.155 20.944C204.019 20.944 204.787 21.1253 205.459 21.488C206.131 21.8507 206.654 22.368 207.027 23.04C207.411 23.712 207.603 24.496 207.603 25.392ZM204.803 24.672C204.803 24.2027 204.643 23.8293 204.323 23.552C204.003 23.2747 203.603 23.136 203.123 23.136C202.665 23.136 202.275 23.2693 201.955 23.536C201.646 23.8027 201.454 24.1813 201.379 24.672H204.803ZM214.487 20.976C215.532 20.976 216.364 21.3173 216.983 22C217.612 22.672 217.927 23.6 217.927 24.784V30H215.207V25.152C215.207 24.5547 215.052 24.0907 214.743 23.76C214.433 23.4293 214.017 23.264 213.495 23.264C212.972 23.264 212.556 23.4293 212.247 23.76C211.937 24.0907 211.783 24.5547 211.783 25.152V30H209.047V21.072H211.783V22.256C212.06 21.8613 212.433 21.552 212.903 21.328C213.372 21.0933 213.9 20.976 214.487 20.976ZM219.284 25.536C219.284 24.608 219.471 23.7973 219.844 23.104C220.228 22.4107 220.756 21.8773 221.428 21.504C222.111 21.1307 222.889 20.944 223.764 20.944C224.884 20.944 225.817 21.2373 226.564 21.824C227.321 22.4107 227.817 23.2373 228.052 24.304H225.14C224.895 23.6213 224.42 23.28 223.716 23.28C223.215 23.28 222.815 23.4773 222.516 23.872C222.217 24.256 222.068 24.8107 222.068 25.536C222.068 26.2613 222.217 26.8213 222.516 27.216C222.815 27.6 223.215 27.792 223.716 27.792C224.42 27.792 224.895 27.4507 225.14 26.768H228.052C227.817 27.8133 227.321 28.6347 226.564 29.232C225.807 29.8293 224.873 30.128 223.764 30.128C222.889 30.128 222.111 29.9413 221.428 29.568C220.756 29.1947 220.228 28.6613 219.844 27.968C219.471 27.2747 219.284 26.464 219.284 25.536ZM238.635 21.072L233.035 34.24H230.091L232.139 29.696L228.507 21.072H231.563L233.627 26.656L235.675 21.072H238.635Z" fill="black"/>
<defs>
<clipPath id="clip0_1_39">
<rect width="33" height="33" fill="white" transform="translate(10 7.5)"/>
</clipPath>
</defs>
</svg>
